<svg width="43" height="43" viewBox="0 0 43 43" fill="none" xmlns="http://www.w3.org/2000/svg">
<path d="M21.5001 22.8438C15.8205 22.8438 11.198 18.2213 11.198 12.5417C11.198 6.86212 15.8205 2.23962 21.5001 2.23962C27.1797 2.23962 31.8022 6.86212 31.8022 12.5417C31.8022 18.2213 27.1797 22.8438 21.5001 22.8438ZM21.5001 4.92712C17.3076 4.92712 13.8855 8.34921 13.8855 12.5417C13.8855 16.7342 17.3076 20.1563 21.5001 20.1563C25.6926 20.1563 29.1147 16.7342 29.1147 12.5417C29.1147 8.34921 25.6926 4.92712 21.5001 4.92712Z" fill="#C08735"/>
<path d="M36.8907 40.7604C36.1561 40.7604 35.5469 40.1512 35.5469 39.4167C35.5469 33.2354 29.2403 28.2188 21.5003 28.2188C13.7603 28.2188 7.45361 33.2354 7.45361 39.4167C7.45361 40.1512 6.84445 40.7604 6.10986 40.7604C5.37528 40.7604 4.76611 40.1512 4.76611 39.4167C4.76611 31.7663 12.2732 25.5312 21.5003 25.5312C30.7274 25.5312 38.2344 31.7663 38.2344 39.4167C38.2344 40.1512 37.6253 40.7604 36.8907 40.7604Z" fill="#C08735"/>
</svg>
