<svg width="48" height="48" viewBox="0 0 48 48" fill="none" xmlns="http://www.w3.org/2000/svg">
<path d="M38 17.5C33.86 17.5 30.5 14.14 30.5 10C30.5 5.86 33.86 2.5 38 2.5C42.14 2.5 45.5 5.86 45.5 10C45.5 14.14 42.14 17.5 38 17.5ZM38 5.5C35.52 5.5 33.5 7.52 33.5 10C33.5 12.48 35.52 14.5 38 14.5C40.48 14.5 42.5 12.48 42.5 10C42.5 7.52 40.48 5.5 38 5.5Z" fill="#C08735"/>
<path d="M24 27.5H14C13.18 27.5 12.5 26.82 12.5 26C12.5 25.18 13.18 24.5 14 24.5H24C24.82 24.5 25.5 25.18 25.5 26C25.5 26.82 24.82 27.5 24 27.5Z" fill="#C08735"/>
<path d="M32 35.5H14C13.18 35.5 12.5 34.82 12.5 34C12.5 33.18 13.18 32.5 14 32.5H32C32.82 32.5 33.5 33.18 33.5 34C33.5 34.82 32.82 35.5 32 35.5Z" fill="#C08735"/>
<path d="M30 45.5H18C7.14 45.5 2.5 40.86 2.5 30V18C2.5 7.14 7.14 2.5 18 2.5H28C28.82 2.5 29.5 3.18 29.5 4C29.5 4.82 28.82 5.5 28 5.5H18C8.78 5.5 5.5 8.78 5.5 18V30C5.5 39.22 8.78 42.5 18 42.5H30C39.22 42.5 42.5 39.22 42.5 30V20C42.5 19.18 43.18 18.5 44 18.5C44.82 18.5 45.5 19.18 45.5 20V30C45.5 40.86 40.86 45.5 30 45.5Z" fill="#C08735"/>
</svg>
