<svg width="48" height="48" viewBox="0 0 48 48" fill="none" xmlns="http://www.w3.org/2000/svg">
<path d="M30 25.9H16C15.18 25.9 14.5 25.22 14.5 24.4C14.5 23.58 15.18 22.9 16 22.9H30C30.82 22.9 31.5 23.58 31.5 24.4C31.5 25.22 30.82 25.9 30 25.9Z" fill="#C08735"/>
<path d="M24.76 33.9H16C15.18 33.9 14.5 33.22 14.5 32.4C14.5 31.58 15.18 30.9 16 30.9H24.76C25.58 30.9 26.26 31.58 26.26 32.4C26.26 33.22 25.58 33.9 24.76 33.9Z" fill="#C08735"/>
<path d="M28 13.5H20C18.08 13.5 14.5 13.5 14.5 8C14.5 2.5 18.08 2.5 20 2.5H28C29.92 2.5 33.5 2.5 33.5 8C33.5 9.92 33.5 13.5 28 13.5ZM20 5.5C18.02 5.5 17.5 5.5 17.5 8C17.5 10.5 18.02 10.5 20 10.5H28C30.5 10.5 30.5 9.98 30.5 8C30.5 5.5 29.98 5.5 28 5.5H20Z" fill="#C08735"/>
<path d="M30 45.5H18C6.76 45.5 4.5 40.34 4.5 32V20C4.5 10.88 7.8 6.97999 15.92 6.55999C16.72 6.51999 17.46 7.13999 17.5 7.97999C17.54 8.81999 16.9 9.49999 16.08 9.53999C10.4 9.85999 7.5 11.56 7.5 20V32C7.5 39.4 8.96 42.5 18 42.5H30C39.04 42.5 40.5 39.4 40.5 32V20C40.5 11.56 37.6 9.85999 31.92 9.53999C31.1 9.49999 30.46 8.77999 30.5 7.95999C30.54 7.13999 31.26 6.49999 32.08 6.53999C40.2 6.97999 43.5 10.88 43.5 19.98V31.98C43.5 40.34 41.24 45.5 30 45.5Z" fill="#C08735"/>
</svg>
