<svg width="53" height="53" viewBox="0 0 53 53" fill="none" xmlns="http://www.w3.org/2000/svg">
<path d="M26.5001 36.9895C25.6167 36.9895 24.7334 36.9233 23.8942 36.7687C19.2126 36.0841 14.9505 33.39 12.2563 29.3929C10.3792 26.5662 9.3855 23.2758 9.3855 19.875C9.3855 10.4454 17.0705 2.76038 26.5001 2.76038C35.9297 2.76038 43.6147 10.4454 43.6147 19.875C43.6147 23.2758 42.6209 26.5662 40.7438 29.3929C38.0276 33.412 33.7655 36.0841 29.0397 36.7908C28.2667 36.9233 27.3834 36.9895 26.5001 36.9895ZM26.5001 6.07288C18.8813 6.07288 12.698 12.2562 12.698 19.875C12.698 22.6354 13.493 25.2854 14.9947 27.5379C17.1809 30.762 20.6038 32.9262 24.4022 33.4783C25.8155 33.7212 27.2067 33.7212 28.5097 33.4783C32.3742 32.9262 35.7972 30.7399 37.9834 27.5158C39.4851 25.2633 40.2801 22.6133 40.2801 19.8529C40.3022 12.2562 34.1188 6.07288 26.5001 6.07288Z" fill="#C08735"/>
<path d="M14.2874 49.8862C13.9782 49.8862 13.6912 49.8421 13.382 49.7758C11.9466 49.4446 10.8424 48.3404 10.5112 46.9049L9.73825 43.6587C9.69408 43.4599 9.5395 43.3054 9.31866 43.2391L5.67491 42.3779C4.30575 42.0466 3.22366 41.0308 2.84825 39.6837C2.47283 38.3366 2.84825 36.8791 3.842 35.8854L12.4545 27.2729C12.8078 26.9196 13.2937 26.7429 13.7795 26.7871C14.2653 26.8312 14.707 27.0962 14.9941 27.5158C17.1803 30.74 20.6032 32.9262 24.4237 33.4783C25.837 33.7212 27.2282 33.7212 28.5312 33.4783C32.3957 32.9262 35.8187 30.74 38.0049 27.5158C38.2699 27.0962 38.7337 26.8312 39.2195 26.7871C39.7053 26.7429 40.1912 26.9196 40.5445 27.2729L49.157 35.8854C50.1507 36.8791 50.5262 38.3366 50.1507 39.6837C49.7753 41.0308 48.6712 42.0687 47.3241 42.3779L43.6803 43.2391C43.4816 43.2833 43.327 43.4379 43.2607 43.6587L42.4878 46.9049C42.1566 48.3404 41.0524 49.4446 39.617 49.7758C38.1816 50.1292 36.702 49.6212 35.7745 48.495L26.4995 37.8287L17.2245 48.5171C16.4737 49.4004 15.4137 49.8862 14.2874 49.8862ZM13.4482 30.9829L6.18283 38.2483C5.98408 38.4471 6.00616 38.6679 6.05033 38.8004C6.07241 38.9108 6.18283 39.1316 6.44783 39.1758L10.0916 40.0371C11.527 40.3683 12.6312 41.4725 12.9624 42.9079L13.7353 46.1541C13.8016 46.4412 14.0224 46.5295 14.1549 46.5737C14.2874 46.5958 14.5082 46.6179 14.707 46.3971L23.1649 36.6583C19.4107 35.9296 15.9657 33.92 13.4482 30.9829ZM29.8341 36.6362L38.292 46.3529C38.4907 46.5958 38.7337 46.5958 38.8662 46.5516C38.9987 46.5295 39.1974 46.4192 39.2857 46.1321L40.0587 42.8858C40.3899 41.4504 41.4941 40.3462 42.9295 40.015L46.5732 39.1537C46.8382 39.0875 46.9487 38.8887 46.9707 38.7783C47.0149 38.6679 47.037 38.425 46.8382 38.2262L39.5728 30.9608C37.0332 33.8979 33.6103 35.9075 29.8341 36.6362Z" fill="#C08735"/>
<path d="M30.6741 28.4655C30.0999 28.4655 29.4154 28.3109 28.5983 27.8251L26.5004 26.5663L24.4024 27.803C22.4812 28.9513 21.2224 28.2888 20.7587 27.9576C20.2949 27.6263 19.3012 26.6326 19.8091 24.4463L20.3391 22.1717L18.5724 20.5375C17.6008 19.5659 17.2474 18.3955 17.5787 17.3355C17.9099 16.2755 18.8816 15.5246 20.2508 15.3038L22.6137 14.9063L23.7399 12.433C24.3804 11.1742 25.3741 10.4675 26.5004 10.4675C27.6266 10.4675 28.6424 11.1963 29.2608 12.4551L30.5637 15.0609L32.7499 15.3259C34.097 15.5467 35.0687 16.2975 35.422 17.3575C35.7533 18.4175 35.3999 19.588 34.4283 20.5596L32.5954 22.3926L33.1695 24.4463C33.6774 26.6326 32.6837 27.6263 32.2199 27.9576C31.977 28.1563 31.447 28.4655 30.6741 28.4655ZM21.2224 18.528L22.7462 20.0517C23.4529 20.7584 23.8062 21.9509 23.5854 22.9226L23.1658 24.6892L24.9324 23.6513C25.882 23.0992 27.1629 23.0992 28.0904 23.6513L29.857 24.6892L29.4595 22.9226C29.2387 21.9288 29.5699 20.7584 30.2766 20.0517L31.8004 18.528L29.8791 18.1967C28.9516 18.0421 28.0241 17.3576 27.6045 16.5184L26.5004 14.3542L25.3962 16.5626C24.9987 17.3796 24.0712 18.0863 23.1437 18.2409L21.2224 18.528Z" fill="#C08735"/>
</svg>
