<svg width="43" height="43" viewBox="0 0 43 43" fill="none" xmlns="http://www.w3.org/2000/svg">
<path d="M31.0855 16.2146L26.893 29.7237C25.8897 32.9308 21.3926 32.9846 20.3355 29.7954L19.0813 26.0867C18.7409 25.0654 17.9347 24.2413 16.9134 23.9188L13.1867 22.6646C10.0155 21.6075 10.0692 17.0746 13.2763 16.1071L26.7855 11.8967C29.4372 11.0904 31.9276 13.5808 31.0855 16.2146Z" stroke="#C08735" stroke-width="1.5" stroke-linecap="round" stroke-linejoin="round"/>
<path d="M16.1249 39.4167H26.8749C35.8333 39.4167 39.4166 35.8334 39.4166 26.875V16.125C39.4166 7.16671 35.8333 3.58337 26.8749 3.58337H16.1249C7.16659 3.58337 3.58325 7.16671 3.58325 16.125V26.875C3.58325 35.8334 7.16659 39.4167 16.1249 39.4167Z" stroke="#C08735" stroke-width="2" stroke-linecap="round" stroke-linejoin="round"/>
</svg>
