<svg width="48" height="48" viewBox="0 0 48 48" fill="none" xmlns="http://www.w3.org/2000/svg">
<path d="M16 4V10" stroke="#C08735" stroke-width="2" stroke-miterlimit="10" stroke-linecap="round" stroke-linejoin="round"/>
<path d="M32 4V10" stroke="#C08735" stroke-width="2" stroke-miterlimit="10" stroke-linecap="round" stroke-linejoin="round"/>
<path d="M7 18.1799H41" stroke="#C08735" stroke-width="2" stroke-miterlimit="10" stroke-linecap="round" stroke-linejoin="round"/>
<path d="M44 38C44 39.5 43.58 40.92 42.84 42.12C41.46 44.44 38.92 46 36 46C33.98 46 32.14 45.26 30.74 44C30.12 43.48 29.58 42.84 29.16 42.12C28.42 40.92 28 39.5 28 38C28 33.58 31.58 30 36 30C38.4 30 40.54 31.06 42 32.72C43.24 34.14 44 35.98 44 38Z" stroke="#C08735" stroke-width="3" stroke-miterlimit="10" stroke-linecap="round" stroke-linejoin="round"/>
<path d="M32.8799 38.0001L34.8599 39.98L39.1199 36.04" stroke="#C08735" stroke-width="3" stroke-linecap="round" stroke-linejoin="round"/>
<path d="M42 17V32.72C40.54 31.06 38.4 30 36 30C31.58 30 28 33.58 28 38C28 39.5 28.42 40.92 29.16 42.12C29.58 42.84 30.12 43.48 30.74 44H16C9 44 6 40 6 34V17C6 11 9 7 16 7H32C39 7 42 11 42 17Z" stroke="#C08735" stroke-width="3" stroke-miterlimit="10" stroke-linecap="round" stroke-linejoin="round"/>
<path d="M23.991 27.4H24.0089" stroke="#C08735" stroke-width="3" stroke-linecap="round" stroke-linejoin="round"/>
<path d="M16.5886 27.4H16.6066" stroke="#C08735" stroke-width="3" stroke-linecap="round" stroke-linejoin="round"/>
<path d="M16.5886 33.4H16.6066" stroke="#C08735" stroke-width="3" stroke-linecap="round" stroke-linejoin="round"/>
</svg>
