<svg width="28" height="28" viewBox="0 0 28 28" fill="none" xmlns="http://www.w3.org/2000/svg">
<path d="M13.9627 10.9183C13.0785 10.9183 12.2305 11.2696 11.6053 11.8948C10.98 12.52 10.6288 13.368 10.6288 14.2523C10.6288 15.1365 10.98 15.9845 11.6053 16.6097C12.2305 17.2349 13.0785 17.5862 13.9627 17.5862C14.8469 17.5862 15.6949 17.2349 16.3202 16.6097C16.9454 15.9845 17.2966 15.1365 17.2966 14.2523C17.2966 13.368 16.9454 12.52 16.3202 11.8948C15.6949 11.2696 14.8469 10.9183 13.9627 10.9183ZM13.9627 8.69571C15.4364 8.69571 16.8497 9.28113 17.8918 10.3232C18.9338 11.3652 19.5193 12.7786 19.5193 14.2523C19.5193 15.7259 18.9338 17.1393 17.8918 18.1813C16.8497 19.2234 15.4364 19.8088 13.9627 19.8088C12.489 19.8088 11.0757 19.2234 10.0336 18.1813C8.99158 17.1393 8.40616 15.7259 8.40616 14.2523C8.40616 12.7786 8.99158 11.3652 10.0336 10.3232C11.0757 9.28113 12.489 8.69571 13.9627 8.69571V8.69571ZM21.1862 8.41788C21.1862 8.7863 21.0399 9.13964 20.7794 9.40015C20.5188 9.66066 20.1655 9.80702 19.7971 9.80702C19.4287 9.80702 19.0753 9.66066 18.8148 9.40015C18.5543 9.13964 18.4079 8.7863 18.4079 8.41788C18.4079 8.04946 18.5543 7.69613 18.8148 7.43561C19.0753 7.1751 19.4287 7.02874 19.7971 7.02874C20.1655 7.02874 20.5188 7.1751 20.7794 7.43561C21.0399 7.69613 21.1862 8.04946 21.1862 8.41788V8.41788ZM13.9627 5.36178C11.2133 5.36178 10.7644 5.36956 9.48524 5.42624C8.61397 5.46735 8.02942 5.58404 7.4871 5.79519C7.0048 5.98189 6.65696 6.20526 6.28689 6.57644C5.93906 6.9125 5.67162 7.32278 5.50453 7.77666C5.29338 8.3212 5.17669 8.90463 5.13668 9.77479C5.0789 11.0017 5.07223 11.4306 5.07223 14.2523C5.07223 17.0016 5.08001 17.4506 5.13668 18.7297C5.1778 19.5999 5.29449 20.1855 5.50453 20.7267C5.69345 21.2102 5.91571 21.558 6.28467 21.927C6.65918 22.3004 7.00702 22.5237 7.48488 22.7082C8.03387 22.9205 8.61842 23.0383 9.48524 23.0783C10.7121 23.1361 11.1411 23.1427 13.9627 23.1427C16.7121 23.1427 17.1611 23.135 18.4402 23.0783C19.3092 23.0372 19.8949 22.9205 20.4372 22.7104C20.9184 22.5226 21.2685 22.2993 21.6374 21.9303C22.0119 21.5558 22.2353 21.2079 22.4198 20.7301C22.6309 20.1822 22.7487 19.5965 22.7887 18.7297C22.8465 17.5028 22.8532 17.0739 22.8532 14.2523C22.8532 11.5029 22.8454 11.0539 22.7887 9.77479C22.7476 8.90575 22.6309 8.31897 22.4198 7.77666C22.2523 7.32324 21.9853 6.91312 21.6385 6.57644C21.3026 6.22843 20.8923 5.96096 20.4383 5.79408C19.8938 5.58293 19.3092 5.46624 18.4402 5.42624C17.2133 5.36845 16.7843 5.36178 13.9627 5.36178ZM13.9627 3.13916C16.9821 3.13916 17.3589 3.15027 18.5435 3.20584C19.7271 3.2614 20.5328 3.44699 21.2418 3.7226C21.9752 4.00487 22.5931 4.38716 23.211 5.00394C23.7761 5.55948 24.2134 6.23148 24.4924 6.97318C24.7669 7.68108 24.9536 8.48789 25.0091 9.67144C25.0614 10.8561 25.0758 11.2328 25.0758 14.2523C25.0758 17.2717 25.0647 17.6484 25.0091 18.8331C24.9536 20.0166 24.7669 20.8223 24.4924 21.5313C24.2142 22.2734 23.7768 22.9456 23.211 23.5006C22.6553 24.0655 21.9834 24.5027 21.2418 24.7819C20.5339 25.0564 19.7271 25.2431 18.5435 25.2987C17.3589 25.3509 16.9821 25.3654 13.9627 25.3654C10.9433 25.3654 10.5665 25.3542 9.38189 25.2987C8.19834 25.2431 7.39264 25.0564 6.68363 24.7819C5.94164 24.5035 5.26952 24.0662 4.71439 23.5006C4.14918 22.9451 3.71191 22.2731 3.43305 21.5313C3.15744 20.8234 2.97185 20.0166 2.91629 18.8331C2.86406 17.6484 2.84961 17.2717 2.84961 14.2523C2.84961 11.2328 2.86072 10.8561 2.91629 9.67144C2.97185 8.48678 3.15744 7.68219 3.43305 6.97318C3.71114 6.23102 4.14851 5.55884 4.71439 5.00394C5.26968 4.43854 5.94175 4.00124 6.68363 3.7226C7.39264 3.44699 8.19723 3.2614 9.38189 3.20584C10.5665 3.15361 10.9433 3.13916 13.9627 3.13916Z" fill="#C08735"/>
</svg>
