<svg width="23" height="35" viewBox="0 0 23 35" fill="none" xmlns="http://www.w3.org/2000/svg">
<path d="M12.9166 33.3114L12.9156 33.3132C12.7834 33.5796 12.5782 33.8041 12.3231 33.961C12.0681 34.1179 11.7735 34.2008 11.473 34.2C11.1697 34.1987 10.8728 34.1148 10.6147 33.9575C10.357 33.8005 10.1482 33.5765 10.0106 33.3103C10.0104 33.3099 10.0102 33.3095 10.01 33.3091L1.43402 16.3037C1.4338 16.3032 1.43357 16.3028 1.43334 16.3023C0.177033 13.7451 -0.0438614 10.8082 0.815896 8.09474C1.67583 5.38069 3.5518 3.09554 6.05915 1.70945C8.56658 0.323325 11.5146 -0.0581113 14.2971 0.643812C17.0792 1.34562 19.4839 3.0769 21.0177 5.48113C22.0269 7.092 22.6021 8.93248 22.6886 10.8265C22.7751 12.7208 22.3697 14.6056 21.5112 16.3004L21.511 16.3007L12.9166 33.3114ZM19.208 15.1723L19.208 15.1723C19.8708 13.8632 20.1848 12.4076 20.1201 10.944C20.0554 9.48042 19.6141 8.05773 18.8384 6.81125C18.0628 5.56478 16.9786 4.53607 15.6892 3.82268C14.3998 3.10931 12.948 2.7349 11.4718 2.7349C9.99556 2.7349 8.54374 3.10931 7.25437 3.82268C5.96499 4.53607 4.8808 5.56478 4.10515 6.81125C3.32948 8.05773 2.88821 9.48042 2.82349 10.944C2.75878 12.4076 3.07279 13.8632 3.73552 15.1723L3.73554 15.1723L11.2041 29.9191L11.4718 30.4475L11.7394 29.9191L19.208 15.1723Z" fill="#C08735" stroke="#1A1A18" stroke-width="0.6"/>
<path d="M8.58326 7.13478C9.44662 6.55791 10.4617 6.25 11.5 6.25C12.8924 6.25 14.2277 6.80312 15.2123 7.78769C16.1969 8.77225 16.75 10.1076 16.75 11.5C16.75 12.5384 16.4421 13.5534 15.8652 14.4167C15.2883 15.2801 14.4684 15.953 13.5091 16.3504C12.5498 16.7477 11.4942 16.8517 10.4758 16.6491C9.45738 16.4465 8.52192 15.9465 7.78769 15.2123C7.05347 14.4781 6.55345 13.5426 6.35088 12.5242C6.14831 11.5058 6.25227 10.4502 6.64963 9.49091C7.04699 8.5316 7.7199 7.71166 8.58326 7.13478ZM9.83329 13.9944C10.3266 14.3241 10.9067 14.5 11.5 14.5C12.2957 14.5 13.0587 14.1839 13.6213 13.6213C14.1839 13.0587 14.5 12.2956 14.5 11.5C14.5 10.9067 14.3241 10.3266 13.9944 9.83329C13.6648 9.33994 13.1962 8.95542 12.6481 8.72836C12.0999 8.5013 11.4967 8.44189 10.9147 8.55764C10.3328 8.6734 9.79824 8.95912 9.37868 9.37868C8.95912 9.79824 8.6734 10.3328 8.55765 10.9147C8.44189 11.4967 8.5013 12.0999 8.72836 12.648C8.95543 13.1962 9.33994 13.6648 9.83329 13.9944Z" fill="#C08735" stroke="#1A1A18" stroke-width="0.5"/>
</svg>
