<svg width="24" height="24" viewBox="0 0 24 24" fill="none" xmlns="http://www.w3.org/2000/svg">
<g clip-path="url(#clip0_923_504)">
<path d="M22.2439 3.06637C21.3176 3.71972 20.2921 4.21944 19.2067 4.54626C18.6242 3.87645 17.85 3.40171 16.9888 3.18623C16.1277 2.97076 15.2211 3.02496 14.3918 3.3415C13.5625 3.65805 12.8504 4.22165 12.3518 4.9561C11.8532 5.69055 11.5922 6.5604 11.6041 7.44801V8.41526C9.9043 8.45934 8.21997 8.08235 6.70113 7.31787C5.18229 6.55338 3.87609 5.42514 2.89886 4.03362C2.89886 4.03362 -0.970146 12.7389 7.73511 16.6079C5.74308 17.9601 3.37006 18.6381 0.964355 18.5424C9.66961 23.3786 20.3094 18.5424 20.3094 7.419C20.3085 7.14957 20.2826 6.88081 20.232 6.61618C21.2192 5.64263 21.9158 4.41347 22.2439 3.06637Z" stroke="#C08735" stroke-width="2" stroke-linecap="round" stroke-linejoin="round"/>
</g>
<defs>
<clipPath id="clip0_923_504">
<rect width="23.214" height="23.214" fill="white" transform="translate(-0.00292969 0.166016)"/>
</clipPath>
</defs>
</svg>
