<svg width="29" height="29" viewBox="0 0 29 29" fill="none" xmlns="http://www.w3.org/2000/svg">
<path d="M26.3438 8.45243C26.2049 7.89774 25.9222 7.38952 25.5241 6.97909C25.1259 6.56866 24.6266 6.27056 24.0764 6.1149C22.0661 5.62402 14.025 5.62402 14.025 5.62402C14.025 5.62402 5.98393 5.62402 3.97366 6.16165C3.42347 6.31731 2.92409 6.61541 2.52597 7.02584C2.12786 7.43627 1.8451 7.94449 1.70627 8.49918C1.33836 10.5393 1.15839 12.6089 1.16864 14.6819C1.15552 16.7706 1.3355 18.8559 1.70627 20.9114C1.85933 21.4489 2.14842 21.9378 2.54561 22.3309C2.94279 22.724 3.43466 23.008 3.97366 23.1554C5.98393 23.6931 14.025 23.6931 14.025 23.6931C14.025 23.6931 22.0661 23.6931 24.0764 23.1554C24.6266 22.9998 25.1259 22.7017 25.5241 22.2913C25.9222 21.8808 26.2049 21.3726 26.3438 20.8179C26.7088 18.7931 26.8888 16.7393 26.8814 14.6819C26.8945 12.5933 26.7145 10.5079 26.3438 8.45243Z" stroke="#C08735" stroke-width="2" stroke-linecap="round" stroke-linejoin="round"/>
<path d="M11.3955 18.5041L18.1159 14.6822L11.3955 10.8604V18.5041Z" stroke="#C08735" stroke-width="2" stroke-linecap="round" stroke-linejoin="round"/>
</svg>
