<svg width="32" height="35" viewBox="0 0 32 35" fill="none" xmlns="http://www.w3.org/2000/svg">
<path d="M15.7669 34.4946L15.7462 34.4938L15.7256 34.4946C14.0819 34.5628 12.478 33.9778 11.2641 32.8675C10.0531 31.7597 9.32846 30.2188 9.24743 28.5799V27.9954V27.4954H8.74743H2.86314H2.86303C2.39569 27.4955 1.93883 27.357 1.55022 27.0974C1.16161 26.8378 0.858722 26.4688 0.679866 26.037C0.501011 25.6052 0.454224 25.1301 0.545424 24.6718C0.636624 24.2134 0.861714 23.7924 1.19222 23.462L1.19227 23.462L4.34176 20.3125L4.4882 20.166V19.9589V11.7689C4.48941 10.1628 4.83363 8.57558 5.49785 7.11332C6.16207 5.65106 7.13096 4.34754 8.33967 3.29C9.54838 2.23245 10.969 1.44528 12.5066 0.981159C14.0425 0.517504 15.6598 0.386937 17.2502 0.598156C19.9933 1.01907 22.4918 2.41785 24.2846 4.53651C26.0784 6.6564 27.0445 9.3538 27.0044 12.1305L27.0044 12.1305V12.1377V19.9467V20.1538L27.1508 20.3002L30.3003 23.4497L30.302 23.4514C30.6353 23.7816 30.8628 24.2035 30.9557 24.6634C31.0485 25.1233 31.0024 25.6004 30.8232 26.034C30.644 26.4676 30.3399 26.8381 29.9495 27.0984C29.5591 27.3586 29.1001 27.4968 28.6309 27.4954H28.6294H22.7451H22.2451V27.9954V28.5781C22.1641 30.2172 21.4395 31.7583 20.2285 32.8664C19.0147 33.977 17.4108 34.5624 15.7669 34.4946ZM12.2469 27.4954H11.7469V27.9954V28.5903V28.6189L11.7501 28.6473C11.8614 29.6171 12.3429 30.5065 13.094 31.1299C13.8361 31.7458 14.7848 32.0552 15.7464 31.9959C16.7079 32.0547 17.6562 31.7452 18.3981 31.1294C19.1491 30.5061 19.6306 29.6171 19.7424 28.6475L19.7457 28.619V28.5903V27.9954V27.4954H19.2457H12.2469ZM6.98763 11.7676V11.7685L6.98762 19.9467L6.98764 19.9502C6.9904 20.3439 6.91502 20.7342 6.76588 21.0986C6.6168 21.4628 6.39699 21.7939 6.11915 22.0726C6.11902 22.0727 6.11889 22.0728 6.11876 22.073L4.04773 24.1422L3.19331 24.9959H4.40114H27.0949H28.3006L27.4488 24.1427L25.3824 22.0728L25.3812 22.0716C25.1024 21.7942 24.8814 21.4644 24.731 21.1011C24.5806 20.7378 24.5038 20.3483 24.5049 19.9551V19.9537V12.1415C24.5517 9.97206 23.8125 7.85884 22.4235 6.19156C21.0334 4.52285 19.0863 3.41359 16.942 3.0687L16.9324 3.06717L16.9228 3.066C16.528 3.01807 16.1304 2.99581 15.7326 2.99936C13.6169 2.99249 11.573 3.76579 9.99164 5.17136C9.05043 5.99331 8.29555 7.00675 7.77749 8.14391C7.25912 9.28178 6.98982 10.5173 6.98763 11.7676Z" fill="#C08735" stroke="#FAF3E0"/>
</svg>
