<svg width="37" height="36" viewBox="0 0 37 36" fill="none" xmlns="http://www.w3.org/2000/svg">
<g id="Group 427321782">
<path id="Vector" d="M21.0602 9V9.5H21.5602H36.46V35.5H0.5V7.8556L21.0602 0.703325V9ZM18.48 9.50045H18.98V9.00045V4.25655V3.55318L18.3157 3.78432L2.91585 9.14247L2.58015 9.25927V9.6147V15.0007V15.5007H3.08015H8.74V17.5H3.08015H2.58015V18V32.9998V33.4998H3.08015H9.24H9.74V32.9998V29.7247V29.3687L9.40354 29.2523C7.79824 28.6966 6.65938 27.2258 6.65938 25.5001C6.65938 23.3043 8.4927 21.5001 10.7803 21.5001C13.0679 21.5001 14.9008 23.3042 14.9008 25.5001C14.9008 27.2258 13.7619 28.6966 12.1566 29.2523L11.8202 29.3687V29.7247V32.9998V33.4998H12.3202H18.48H18.98V32.9998V18V17.5H18.48H12.8202V15.5003H18.48H18.98V15.0003V11.9997V11.4997H18.48H12.8202V9.50045H18.48ZM33.8798 33.4998H34.3798V32.9998V12.0001V11.5001H33.8798H21.5602H21.0602V12.0001V32.9998V33.4998H21.5602H26.1802H26.6802V32.9998V28.9998H28.7598V32.9998V33.4998H29.2598H33.8798ZM8.74 25.5001C8.74 26.6161 9.66601 27.5 10.7798 27.5L12.3197 25.5001H12.8197C12.8197 25.5001 12.8197 25.5 12.8197 25.4999C12.8195 24.3837 11.8937 23.4998 10.7798 23.4998C9.66591 23.4998 8.74 24.3839 8.74 25.5001Z" fill="#C08735" stroke="#C08735"/>
</g>
</svg>
