<svg width="36" height="36" viewBox="0 0 36 36" fill="none" xmlns="http://www.w3.org/2000/svg">
<g clip-path="url(#clip0_1952_589)">
<path d="M33.4286 6.42857H23.1429V2.57143C23.1416 1.89 22.8703 1.23557 22.3881 0.753429C21.9073 0.272571 21.2529 0.00128623 20.5714 0H2.57143C1.89 0.00128623 1.23557 0.271286 0.753429 0.753429C0.271286 1.23557 0.00128623 1.89 0 2.57143V33.4286C0.00128623 34.11 0.272571 34.7644 0.753429 35.2453C1.23557 35.7274 1.89 35.9987 2.57143 36H33.4286C34.11 35.9987 34.7631 35.7274 35.2453 35.2453C35.7274 34.7631 35.9987 34.11 36 33.4286V9C35.9987 8.31857 35.7274 7.66414 35.2453 7.182C34.7644 6.70114 34.11 6.42986 33.4286 6.42857ZM14.1429 33.4286H9V27H14.1429V33.4286ZM20.5714 33.4286H16.7143V27C16.713 26.3186 16.4417 25.6641 15.9596 25.1833C15.4787 24.7011 14.8243 24.4299 14.1429 24.4286H9C8.31857 24.4299 7.66414 24.7011 7.182 25.1833C6.70114 25.6641 6.42986 26.3186 6.42857 27V33.4286H2.57143L2.57014 2.57143H20.5714V33.4286ZM33.4286 33.4286H23.1429V9H33.4286V33.4286ZM29.5714 18C29.5714 18.2546 29.4956 18.5027 29.3541 18.7149C29.214 18.9257 29.0121 19.0903 28.7781 19.188C28.5429 19.2857 28.2844 19.3101 28.035 19.2613C27.7856 19.2111 27.5567 19.089 27.3767 18.909C27.1967 18.729 27.0746 18.5001 27.0244 18.2507C26.9756 18.0013 27 17.7429 27.0977 17.5076C27.1954 17.2736 27.36 17.0717 27.5709 16.9316C27.783 16.7901 28.0311 16.7143 28.2857 16.7143C28.6264 16.7143 28.9543 16.8493 29.1947 17.091C29.4364 17.3314 29.5714 17.6593 29.5714 18ZM27 12.8571C27 12.6026 27.0759 12.3544 27.2173 12.1423C27.3574 11.9314 27.5593 11.7669 27.7933 11.6691C28.0286 11.5714 28.287 11.547 28.5364 11.5959C28.7859 11.646 29.0147 11.7681 29.1947 11.9481C29.3747 12.1281 29.4969 12.357 29.547 12.6064C29.5959 12.8559 29.5714 13.1143 29.4737 13.3496C29.376 13.5836 29.2114 13.7854 29.0006 13.9256C28.7884 14.067 28.5403 14.1429 28.2857 14.1429C27.945 14.1429 27.6171 14.0079 27.3767 13.7661C27.135 13.5257 27 13.1979 27 12.8571ZM16.7143 18C16.7143 18.2546 16.6384 18.5027 16.497 18.7149C16.3569 18.9257 16.155 19.0903 15.921 19.188C15.6857 19.2857 15.4273 19.3101 15.1779 19.2613C14.9284 19.2111 14.6996 19.089 14.5196 18.909C14.3396 18.729 14.2174 18.5001 14.1673 18.2507C14.1184 18.0013 14.1429 17.7429 14.2406 17.5076C14.3383 17.2736 14.5029 17.0717 14.7137 16.9316C14.9259 16.7901 15.174 16.7143 15.4286 16.7143C15.7693 16.7143 16.0971 16.8493 16.3376 17.091C16.5793 17.3314 16.7143 17.6593 16.7143 18ZM16.7143 12.8571C16.7143 13.1117 16.6384 13.3599 16.497 13.572C16.3569 13.7829 16.155 13.9474 15.921 14.0451C15.6857 14.1429 15.4273 14.1673 15.1779 14.1184C14.9284 14.0683 14.6996 13.9461 14.5196 13.7661C14.3396 13.5861 14.2174 13.3573 14.1673 13.1079C14.1184 12.8584 14.1429 12.6 14.2406 12.3647C14.3383 12.1307 14.5029 11.9289 14.7137 11.7887C14.9259 11.6473 15.174 11.5714 15.4286 11.5714C15.7693 11.5714 16.0971 11.7064 16.3376 11.9481C16.5793 12.1886 16.7143 12.5164 16.7143 12.8571ZM16.7143 7.71429C16.7143 7.96886 16.6384 8.217 16.497 8.42914C16.3569 8.64 16.155 8.80457 15.921 8.90229C15.6857 9 15.4273 9.02443 15.1779 8.97557C14.9284 8.92543 14.6996 8.80329 14.5196 8.62329C14.3396 8.44329 14.2174 8.21443 14.1673 7.965C14.1184 7.71557 14.1429 7.45714 14.2406 7.22186C14.3383 6.98786 14.5029 6.786 14.7137 6.64586C14.9259 6.50443 15.174 6.42857 15.4286 6.42857C15.7693 6.42857 16.0971 6.56357 16.3376 6.80529C16.5793 7.04571 16.7143 7.37357 16.7143 7.71429ZM9 18C9 18.2546 8.92414 18.5027 8.78271 18.7149C8.64257 18.9257 8.44071 19.0903 8.20671 19.188C7.97143 19.2857 7.713 19.3101 7.46357 19.2613C7.21414 19.2111 6.98529 19.089 6.80529 18.909C6.62529 18.729 6.50314 18.5001 6.453 18.2507C6.40414 18.0013 6.42857 17.7429 6.52629 17.5076C6.624 17.2736 6.78857 17.0717 6.99943 16.9316C7.21157 16.7901 7.45971 16.7143 7.71429 16.7143C8.055 16.7143 8.38286 16.8493 8.62329 17.091C8.865 17.3314 9 17.6593 9 18ZM9 12.8571C9 13.1117 8.92414 13.3599 8.78271 13.572C8.64257 13.7829 8.44071 13.9474 8.20671 14.0451C7.97143 14.1429 7.713 14.1673 7.46357 14.1184C7.21414 14.0683 6.98529 13.9461 6.80529 13.7661C6.62529 13.5861 6.50314 13.3573 6.453 13.1079C6.40414 12.8584 6.42857 12.6 6.52629 12.3647C6.624 12.1307 6.78857 11.9289 6.99943 11.7887C7.21157 11.6473 7.45971 11.5714 7.71429 11.5714C8.055 11.5714 8.38286 11.7064 8.62329 11.9481C8.865 12.1886 9 12.5164 9 12.8571ZM9 7.71429C9 7.96886 8.92414 8.217 8.78271 8.42914C8.64257 8.64 8.44071 8.80457 8.20671 8.90229C7.97143 9 7.713 9.02443 7.46357 8.97557C7.21414 8.92543 6.98529 8.80329 6.80529 8.62329C6.62529 8.44329 6.50314 8.21443 6.453 7.965C6.40414 7.71557 6.42857 7.45714 6.52629 7.22186C6.624 6.98786 6.78857 6.786 6.99943 6.64586C7.21157 6.50443 7.45971 6.42857 7.71429 6.42857C8.055 6.42857 8.38286 6.56357 8.62329 6.80529C8.865 7.04571 9 7.37357 9 7.71429Z" fill="#C08735"/>
</g>
<defs>
<clipPath id="clip0_1952_589">
<rect width="36" height="36" fill="white"/>
</clipPath>
</defs>
</svg>
