<svg width="36" height="36" viewBox="0 0 36 36" fill="none" xmlns="http://www.w3.org/2000/svg">
<g clip-path="url(#clip0_1952_591)">
<path d="M23.8864 12.9757L16.9323 20.7653L13.4034 17.2367C13.162 16.9953 12.771 16.9953 12.5296 17.2367C12.2882 17.4781 12.2882 17.8691 12.5296 18.1105L16.5208 22.1017C16.6365 22.2179 16.7939 22.2826 16.9579 22.2826C16.9636 22.2826 16.9694 22.2826 16.9752 22.2822C17.1453 22.2772 17.3056 22.2031 17.4189 22.0762L24.8088 13.7988C25.0363 13.5442 25.014 13.1537 24.7594 12.9263C24.504 12.6993 24.1143 12.7215 23.8864 12.9757Z" stroke="#C08735" stroke-width="1.3"/>
<path d="M35.6869 17.499C35.6984 17.452 35.7063 17.4034 35.7063 17.3527C35.7063 15.7056 33.9978 14.8545 32.49 14.1031C31.4197 13.57 30.3135 13.0183 30.019 12.3233C29.7191 11.6139 30.1426 10.4579 30.5512 9.33943C31.1214 7.78093 31.7105 6.16971 30.6233 5.08333C29.5572 4.01715 27.9982 4.37803 26.49 4.72862C25.4345 4.97334 24.3424 5.22588 23.6153 4.91854C22.9054 4.61821 22.3155 3.68716 21.7449 2.78576C20.9173 1.48022 19.98 0 18.3531 0C16.7234 0 15.8038 1.51235 14.9931 2.84714C14.4303 3.77367 13.8482 4.7311 13.1392 5.03101C12.4145 5.33793 11.3109 5.05985 10.2439 4.79166C8.72368 4.41017 7.152 4.01385 6.08334 5.08374C5.00356 6.16311 5.52677 7.78258 6.03349 9.34931C6.3952 10.467 6.76886 11.623 6.46648 12.3386C6.1715 13.0365 5.11438 13.5832 4.09145 14.1121C2.64254 14.8611 1 15.7102 1 17.3535C1 17.4046 1.00824 17.4537 1.01977 17.501C1.00824 17.548 1.00041 17.5966 1.00041 17.6473C1.00041 19.2906 2.64295 20.1397 4.09227 20.8887C5.11438 21.4172 6.17192 21.9639 6.46689 22.6618C6.76928 23.3774 6.39562 24.5334 6.0339 25.6515C5.52759 27.2178 5.00397 28.8369 6.08334 29.9167C7.15282 30.9866 8.7245 30.5915 10.2443 30.2088C11.3117 29.941 12.4158 29.6637 13.14 29.9702C13.8486 30.2697 14.4307 31.2272 14.9935 32.1533C15.8047 33.4876 16.7238 35 18.3535 35C19.9804 35 20.9181 33.5198 21.7453 32.2142C22.3163 31.3128 22.9063 30.3818 23.6149 30.0815C24.3449 29.7733 25.435 30.0262 26.49 30.2714C27.9974 30.6211 29.5572 30.9837 30.6225 29.9171C31.711 28.8303 31.1214 27.2187 30.5512 25.6606C30.1422 24.5421 29.7191 23.3861 30.0186 22.6775C30.3135 21.9821 31.4197 21.4304 32.49 20.8973C33.9974 20.1463 35.7063 19.2948 35.7063 17.6477C35.7067 17.5954 35.6984 17.5463 35.6869 17.499ZM31.9392 19.7895C30.6682 20.4227 29.3541 21.0778 28.8807 22.1946C28.3917 23.3523 28.8996 24.741 29.3907 26.0837C29.8472 27.3324 30.2789 28.5127 29.7487 29.0416C29.1683 29.6233 28.0024 29.3527 26.7693 29.0668C25.5219 28.7776 24.232 28.4781 23.1337 28.9423C22.0687 29.393 21.3737 30.4905 20.7014 31.5518C19.9808 32.6888 19.3003 33.7628 18.3535 33.7628C17.4188 33.7628 16.7539 32.6686 16.0494 31.5102C15.3849 30.4164 14.6973 29.2851 13.6212 28.8307C12.5151 28.3619 11.2079 28.6906 9.94229 29.0091C8.70225 29.3201 7.53101 29.6159 6.95714 29.0416C6.41209 28.497 6.79935 27.299 7.20926 26.0305C7.6406 24.6978 8.08594 23.3193 7.60476 22.1794C7.13593 21.0704 5.87694 20.4194 4.65956 19.7895C3.41334 19.1456 2.23592 18.5371 2.23592 17.646C2.23592 17.595 2.22768 17.5459 2.21615 17.4981C2.22768 17.4512 2.23551 17.4026 2.23551 17.3519C2.23551 16.4608 3.41252 15.8523 4.65874 15.2084C5.87653 14.5789 7.13593 13.928 7.60435 12.8181C8.08553 11.6786 7.64019 10.3006 7.20885 8.96742C6.79894 7.69895 6.41127 6.50093 6.95714 5.95589C7.52978 5.38201 8.70102 5.67699 9.94188 5.98885C11.2066 6.30648 12.5138 6.63647 13.6204 6.16765C14.6965 5.71283 15.384 4.58155 16.0494 3.48776C16.7534 2.32888 17.4184 1.23468 18.3531 1.23468C19.2998 1.23468 19.9804 2.30869 20.7006 3.44615C21.3733 4.50739 22.0683 5.60489 23.1337 6.056C24.232 6.52029 25.5219 6.22079 26.7693 5.93117C28.0024 5.64526 29.1678 5.3746 29.7491 5.95672C30.2785 6.48528 29.8468 7.66517 29.3903 8.91427C28.8992 10.2573 28.3913 11.6461 28.8807 12.8041C29.3532 13.9206 30.6678 14.5756 31.9388 15.2088C33.2406 15.8573 34.4703 16.4703 34.4703 17.3519C34.4703 17.403 34.4786 17.452 34.4901 17.4994C34.4786 17.5463 34.4708 17.595 34.4708 17.6456C34.4708 18.5285 33.241 19.1411 31.9392 19.7895Z" stroke="#C08735" stroke-width="1.3"/>
</g>
<defs>
<clipPath id="clip0_1952_591">
<rect width="36" height="36" fill="white"/>
</clipPath>
</defs>
</svg>
