<svg width="36" height="36" viewBox="0 0 36 36" fill="none" xmlns="http://www.w3.org/2000/svg">
<path d="M33.632 16.6841V12.6051C33.6307 11.5237 33.2006 10.4869 32.4359 9.7222C31.6712 8.95751 30.6344 8.52737 29.553 8.52613H27.9214V4.44755C27.9214 4.09319 27.8445 3.74304 27.6959 3.42133C27.5473 3.09961 27.3307 2.81399 27.0609 2.58422C26.7911 2.35444 26.4747 2.18599 26.1334 2.09051C25.7921 1.99503 25.4342 1.9748 25.0844 2.03121L4.77268 5.30735C3.71852 5.47362 2.75865 6.01165 2.06669 6.82412C1.37473 7.63659 0.996364 8.66986 1.00003 9.73706V28.921C1.00138 30.0024 1.43156 31.0391 2.19623 31.8038C2.96089 32.5685 3.9976 32.9986 5.07899 33H29.5529C30.6343 32.9986 31.671 32.5685 32.4357 31.8038C33.2004 31.0391 33.6305 30.0024 33.6319 28.921V24.8421C34.0645 24.8417 34.4793 24.6696 34.7852 24.3638C35.0911 24.0579 35.2631 23.6431 35.2635 23.2105V18.3157C35.2631 17.8831 35.0911 17.4684 34.7852 17.1625C34.4793 16.8566 34.0646 16.6845 33.632 16.6841ZM32.0004 28.921C31.9997 29.5699 31.7416 30.192 31.2828 30.6508C30.824 31.1096 30.2019 31.3677 29.553 31.3684H5.07907C4.4302 31.3677 3.8081 31.1096 3.34928 30.6508C2.89046 30.192 2.63238 29.5699 2.63167 28.921V9.73706C2.62935 9.05794 2.87014 8.4004 3.31049 7.88339C3.75083 7.36637 4.36166 7.024 5.03249 6.9182L25.3439 3.64205C25.4606 3.62321 25.5799 3.62993 25.6937 3.66173C25.8074 3.69354 25.9129 3.74969 26.0029 3.82629C26.0928 3.90288 26.165 3.9981 26.2145 4.10536C26.2641 4.21261 26.2897 4.32934 26.2896 4.44747V8.52606H5.07899C4.9712 8.52501 4.86426 8.54534 4.76437 8.58587C4.66448 8.6264 4.57361 8.68633 4.49702 8.76218C4.42042 8.83804 4.35962 8.92832 4.31813 9.02782C4.27663 9.12731 4.25527 9.23404 4.25527 9.34184C4.25527 9.44964 4.27663 9.55637 4.31813 9.65587C4.35962 9.75536 4.42042 9.84565 4.49702 9.9215C4.57361 9.99736 4.66448 10.0573 4.76437 10.0978C4.86426 10.1383 4.9712 10.1587 5.07899 10.1576H29.5529C30.2018 10.1583 30.8239 10.4164 31.2827 10.8752C31.7415 11.3341 31.9996 11.9562 32.0003 12.605V16.684H24.6581C23.5763 16.684 22.5388 17.1137 21.7739 17.8787C21.0089 18.6437 20.5791 19.6812 20.5791 20.763C20.5791 21.8448 21.0089 22.8823 21.7739 23.6473C22.5388 24.4122 23.5763 24.842 24.6581 24.842H32.0003L32.0004 28.921ZM33.632 23.2104H24.6581C24.0091 23.2104 23.3866 22.9526 22.9276 22.4936C22.4686 22.0346 22.2107 21.4121 22.2107 20.763C22.2107 20.1139 22.4686 19.4914 22.9276 19.0325C23.3866 18.5735 24.0091 18.3156 24.6581 18.3156H33.632V23.2104Z" fill="#C08735"/>
</svg>
