<svg width="35" height="35" viewBox="0 0 35 35" fill="none" xmlns="http://www.w3.org/2000/svg">
<path d="M19.6417 25.8871L19.6417 25.8872L24.0663 32.3284H32.3284V18.8064H13.1638C12.6465 18.8064 12.2278 18.387 12.2278 17.8703C12.2278 17.353 12.6466 16.9342 13.1638 16.9342H32.3284V2.67214H19.2421V11.8718C19.2421 12.3891 18.8227 12.8079 18.306 12.8079C17.7894 12.8079 17.37 12.3891 17.37 11.8718V2.67214H2.67214V21.7879H8.52315C9.04049 21.7879 9.45922 22.2073 9.45922 22.7239C9.45922 23.2406 9.04049 23.66 8.52315 23.66H2.67214V32.3284H13.791C14.3083 32.3284 14.727 32.7478 14.727 33.2645C14.727 33.7812 14.3083 34.2006 13.791 34.2006H1.73607C1.21873 34.2006 0.8 33.7812 0.8 33.2645V1.73607C0.8 1.21881 1.21881 0.8 1.73607 0.8H33.2645C33.781 0.8 34.2007 1.21865 34.2001 1.73582M19.6417 25.8871L34.0001 33.264C34.0001 33.6703 33.6703 34.0001 33.264 34.0001H23.5734C23.331 34.0001 23.1038 33.8808 22.9668 33.6811M19.6417 25.8871C19.3489 25.4613 18.7673 25.3538 18.3404 25.6454L18.34 25.6457C17.9135 25.9386 17.8066 26.5208 18.0983 26.9471L18.0985 26.9474L22.8019 33.7942M19.6417 25.8871L22.9668 33.6811M34.2001 1.73582L34.0001 1.73558H34.2001V1.73582ZM34.2001 1.73582V33.264C34.2001 33.7808 33.7808 34.2001 33.264 34.2001H23.5734C23.2653 34.2001 22.9763 34.0486 22.8019 33.7942M22.8019 33.7942L22.802 33.7944L22.9668 33.6811M22.8019 33.7942L22.9668 33.6811" fill="#C08735" stroke="#C08735" stroke-width="0.4"/>
</svg>
