<svg width="38" height="38" viewBox="0 0 38 38" fill="none" xmlns="http://www.w3.org/2000/svg">
<g id="10872356811641893730 1">
<g id="School">
<path id="Vector" d="M31.886 16.6563H28.4177V12.5972L28.8639 12.944C29.0664 13.1028 29.3165 13.1887 29.5738 13.1879C29.8146 13.1878 30.0494 13.1125 30.2453 12.9726C30.4413 12.8326 30.5887 12.6349 30.6668 12.4071C30.745 12.1793 30.7501 11.9328 30.6814 11.702C30.6127 11.4712 30.4737 11.2676 30.2836 11.1196L19.8786 3.02679C19.6756 2.86892 19.4258 2.7832 19.1687 2.7832C18.9116 2.7832 18.6618 2.86892 18.4588 3.02679L8.05377 11.1196C7.93022 11.2115 7.82626 11.3271 7.74799 11.4597C7.66972 11.5923 7.61873 11.7392 7.59799 11.8917C7.57726 12.0443 7.5872 12.1994 7.62725 12.3481C7.66729 12.4968 7.73662 12.6359 7.83118 12.7574C7.92574 12.8789 8.04361 12.9803 8.17788 13.0557C8.31215 13.131 8.46012 13.1788 8.6131 13.1961C8.76608 13.2135 8.92098 13.2002 9.06873 13.1569C9.21648 13.1136 9.35409 13.0412 9.47349 12.944L9.91975 12.5972V16.6563H6.45139C5.53153 16.6563 4.64933 17.0217 3.99889 17.6721C3.34845 18.3226 2.98303 19.2048 2.98303 20.1246V31.6858C2.98303 32.6057 3.34845 33.4879 3.99889 34.1383C4.64933 34.7888 5.53153 35.1542 6.45139 35.1542H31.886C32.8059 35.1542 33.6881 34.7888 34.3385 34.1383C34.989 33.4879 35.3544 32.6057 35.3544 31.6858V20.1246C35.3544 19.2048 34.989 18.3226 34.3385 17.6721C33.6881 17.0217 32.8059 16.6563 31.886 16.6563ZM6.45139 32.842C6.14477 32.842 5.85071 32.7202 5.63389 32.5033C5.41708 32.2865 5.29527 31.9925 5.29527 31.6858V20.1246C5.29527 19.818 5.41708 19.524 5.63389 19.3071C5.85071 19.0903 6.14477 18.9685 6.45139 18.9685H9.91975V32.842H6.45139ZM16.8565 32.842V29.3736H21.4809V32.842H16.8565ZM23.7932 32.842V28.2175C23.7932 27.9109 23.6714 27.6168 23.4546 27.4C23.2378 27.1832 22.9437 27.0614 22.6371 27.0614H15.7003C15.3937 27.0614 15.0997 27.1832 14.8828 27.4C14.666 27.6168 14.5442 27.9109 14.5442 28.2175V32.842H12.232V10.7982L19.1687 5.40377L26.1054 10.7982V32.842H23.7932ZM33.0421 31.6858C33.0421 31.9925 32.9203 32.2865 32.7035 32.5033C32.4867 32.7202 32.1926 32.842 31.886 32.842H28.4177V18.9685H31.886C32.1926 18.9685 32.4867 19.0903 32.7035 19.3071C32.9203 19.524 33.0421 19.818 33.0421 20.1246V31.6858Z" fill="#C08735"/>
<path id="Vector_2" d="M16.8565 17.8125H15.7004C15.3937 17.8125 15.0997 17.9343 14.8829 18.1511C14.6661 18.3679 14.5443 18.662 14.5443 18.9686C14.5443 19.2752 14.6661 19.5693 14.8829 19.7861C15.0997 20.0029 15.3937 20.1247 15.7004 20.1247H16.8565C17.1631 20.1247 17.4572 20.0029 17.674 19.7861C17.8908 19.5693 18.0126 19.2752 18.0126 18.9686C18.0126 18.662 17.8908 18.3679 17.674 18.1511C17.4572 17.9343 17.1631 17.8125 16.8565 17.8125Z" fill="#C08735"/>
<path id="Vector_3" d="M22.6371 17.8125H21.4809C21.1743 17.8125 20.8803 17.9343 20.6634 18.1511C20.4466 18.3679 20.3248 18.662 20.3248 18.9686C20.3248 19.2752 20.4466 19.5693 20.6634 19.7861C20.8803 20.0029 21.1743 20.1247 21.4809 20.1247H22.6371C22.9437 20.1247 23.2378 20.0029 23.4546 19.7861C23.6714 19.5693 23.7932 19.2752 23.7932 18.9686C23.7932 18.662 23.6714 18.3679 23.4546 18.1511C23.2378 17.9343 22.9437 17.8125 22.6371 17.8125Z" fill="#C08735"/>
<path id="Vector_4" d="M16.8565 22.4375H15.7004C15.3937 22.4375 15.0997 22.5593 14.8829 22.7761C14.6661 22.9929 14.5443 23.287 14.5443 23.5936C14.5443 23.9002 14.6661 24.1943 14.8829 24.4111C15.0997 24.6279 15.3937 24.7497 15.7004 24.7497H16.8565C17.1631 24.7497 17.4572 24.6279 17.674 24.4111C17.8908 24.1943 18.0126 23.9002 18.0126 23.5936C18.0126 23.287 17.8908 22.9929 17.674 22.7761C17.4572 22.5593 17.1631 22.4375 16.8565 22.4375Z" fill="#C08735"/>
<path id="Vector_5" d="M22.6371 22.4375H21.4809C21.1743 22.4375 20.8803 22.5593 20.6634 22.7761C20.4466 22.9929 20.3248 23.287 20.3248 23.5936C20.3248 23.9002 20.4466 24.1943 20.6634 24.4111C20.8803 24.6279 21.1743 24.7497 21.4809 24.7497H22.6371C22.9437 24.7497 23.2378 24.6279 23.4546 24.4111C23.6714 24.1943 23.7932 23.9002 23.7932 23.5936C23.7932 23.287 23.6714 22.9929 23.4546 22.7761C23.2378 22.5593 22.9437 22.4375 22.6371 22.4375Z" fill="#C08735"/>
<path id="Vector_6" d="M22.637 12.0328C22.637 11.3468 22.4336 10.6763 22.0525 10.1059C21.6714 9.53553 21.1297 9.09098 20.496 8.82847C19.8622 8.56596 19.1648 8.49727 18.492 8.6311C17.8192 8.76493 17.2012 9.09525 16.7162 9.58031C16.2311 10.0654 15.9008 10.6834 15.767 11.3562C15.6331 12.029 15.7018 12.7263 15.9643 13.3601C16.2268 13.9939 16.6714 14.5355 17.2418 14.9166C17.8121 15.2978 18.4827 15.5012 19.1687 15.5012C20.0885 15.5012 20.9707 15.1358 21.6212 14.4853C22.2716 13.8349 22.637 12.9527 22.637 12.0328ZM19.1687 13.1889C18.94 13.1889 18.7165 13.1211 18.5264 12.9941C18.3362 12.8671 18.1881 12.6865 18.1006 12.4752C18.0131 12.264 17.9902 12.0315 18.0348 11.8073C18.0794 11.583 18.1895 11.377 18.3512 11.2153C18.5129 11.0536 18.7189 10.9435 18.9431 10.8989C19.1674 10.8543 19.3999 10.8772 19.6111 10.9647C19.8224 11.0522 20.0029 11.2004 20.13 11.3905C20.257 11.5806 20.3248 11.8042 20.3248 12.0328C20.3248 12.3394 20.203 12.6335 19.9862 12.8503C19.7694 13.0671 19.4753 13.1889 19.1687 13.1889Z" fill="#C08735"/>
</g>
</g>
</svg>
