<svg width="41" height="35" viewBox="0 0 41 35" fill="none" xmlns="http://www.w3.org/2000/svg">
<g id="7094525971555937120 1" clip-path="url(#clip0_713_3334)">
<g id="Icons">
<g id="Outlined">
<g id="Social">
<g id="Outlined-/-Social-/-school">
<g id="Group">
<path id="&#240;&#159;&#148;&#185;-Icon-Color" d="M39.6932 12.0624V26.678H36.7827V13.924V13.3112L36.2506 13.615L32.6286 15.683L32.4493 15.7854V15.9919V27.1689L20.1281 34.2129L7.80694 27.1689V15.9919V15.7854L7.62759 15.683L0.924496 11.8559L20.1281 0.882368L39.6932 12.0624ZM32.6555 12.1649L33.196 11.856L32.6555 11.5471L20.3046 4.48946L20.1281 4.38861L19.9516 4.48946L7.6007 11.5471L7.0602 11.856L7.6007 12.1649L19.9516 19.2225L20.1281 19.3234L20.3046 19.2225L32.6555 12.1649ZM29.3597 25.4264L29.5388 25.3239V25.1176V18.0599V17.4466L29.0064 17.7511L20.1281 22.8295L11.2498 17.7511L10.7175 17.4466V18.0599V25.1176V25.3239L10.8966 25.4264L19.9515 30.6058L20.1281 30.7068L20.3047 30.6058L29.3597 25.4264Z" fill="#C08735" stroke="white" stroke-width="0.711458"/>
</g>
</g>
</g>
</g>
</g>
</g>
<defs>
<clipPath id="clip0_713_3334">
<rect width="39.8417" height="34.15" fill="white" transform="translate(0.207275 0.46875)"/>
</clipPath>
</defs>
</svg>
