<svg width="28" height="35" viewBox="0 0 28 35" fill="none" xmlns="http://www.w3.org/2000/svg">
<g id="Group 427321640">
<g id="Layer 15">
<path id="Vector" d="M27.9215 6.89799C27.7693 5.1057 26.951 3.43552 25.628 2.21682C24.305 0.998123 22.5734 0.319382 20.7747 0.314453H7.75554C5.9568 0.319382 4.22519 0.998123 2.90222 2.21682C1.57924 3.43552 0.76093 5.1057 0.60867 6.89799C0.523317 11.7233 0.60867 21.3226 0.580219 26.1991C0.580219 26.5009 0.700119 26.7904 0.913542 27.0038C1.12697 27.2172 1.41643 27.3371 1.71825 27.3371H4.9389L1.88896 32.7485C1.73805 33.0126 1.69823 33.3258 1.77826 33.6193C1.8583 33.9127 2.05163 34.1624 2.31572 34.3133C2.57982 34.4642 2.89305 34.504 3.18651 34.424C3.47997 34.3439 3.72961 34.1506 3.88052 33.8865L5.54206 30.9106H22.9881L24.6497 33.8865C24.8006 34.1506 25.0502 34.3439 25.3437 34.424C25.6372 34.504 25.9504 34.4642 26.2145 34.3133C26.4786 34.1624 26.6719 33.9127 26.7519 33.6193C26.832 33.3258 26.7922 33.0126 26.6412 32.7485L23.6027 27.3257H26.8233C27.1252 27.3257 27.4146 27.2058 27.628 26.9924C27.8415 26.779 27.9614 26.4895 27.9614 26.1877C27.9215 21.2998 28.0183 11.7403 27.9215 6.89799ZM2.84491 14.3806V8.28071H13.1271V14.3806H2.84491ZM15.4031 8.28071H25.6853V14.3806H15.4031V8.28071ZM7.75554 2.59053H20.7747C21.8153 2.59134 22.8288 2.92234 23.6693 3.53586C24.5099 4.14938 25.134 5.01378 25.452 6.00463H3.07821C3.39617 5.01378 4.02035 4.14938 4.86087 3.53586C5.7014 2.92234 6.71492 2.59134 7.75554 2.59053ZM21.7135 28.6231H6.81666L7.53362 27.3371H20.9966L21.7135 28.6231ZM21.6623 25.061H2.84491V16.6567H25.6853V25.061H21.6623Z" fill="#C08735"/>
<path id="Vector_2" d="M21.1733 17.8125C17.1447 17.9377 17.1447 23.7815 21.1733 23.9067C25.202 23.7815 25.202 17.9548 21.1733 17.8125ZM21.1733 21.6306C20.9803 21.614 20.8005 21.5256 20.6695 21.3828C20.5385 21.2401 20.4658 21.0534 20.4658 20.8596C20.4658 20.6658 20.5385 20.4791 20.6695 20.3364C20.8005 20.1936 20.9803 20.1052 21.1733 20.0886C21.3664 20.1052 21.5462 20.1936 21.6772 20.3364C21.8082 20.4791 21.8809 20.6658 21.8809 20.8596C21.8809 21.0534 21.8082 21.2401 21.6772 21.3828C21.5462 21.5256 21.3664 21.614 21.1733 21.6306Z" fill="#C08735"/>
<path id="Vector_3" d="M7.35754 17.8125C3.3289 17.9377 3.3289 23.7815 7.35754 23.9067C11.3862 23.7815 11.3862 17.9548 7.35754 17.8125ZM7.35754 21.6306C7.16449 21.614 6.98469 21.5256 6.85368 21.3828C6.72267 21.2401 6.64998 21.0534 6.64998 20.8596C6.64998 20.6658 6.72267 20.4791 6.85368 20.3364C6.98469 20.1936 7.16449 20.1052 7.35754 20.0886C7.5506 20.1052 7.7304 20.1936 7.86141 20.3364C7.99242 20.4791 8.06511 20.6658 8.06511 20.8596C8.06511 21.0534 7.99242 21.2401 7.86141 21.3828C7.7304 21.5256 7.5506 21.614 7.35754 21.6306Z" fill="#C08735"/>
</g>
</g>
</svg>
