<svg width="36" height="27" viewBox="0 0 36 27" fill="none" xmlns="http://www.w3.org/2000/svg">
<g id="7348931771558965379 1" clip-path="url(#clip0_713_3355)">
<g id="Layer 2">
<g id="Layer 1">
<path id="Vector" d="M31.4755 0.296875H5.32936C4.17363 0.296875 3.06524 0.75911 2.24802 1.58189C1.43079 2.40468 0.97168 3.52061 0.97168 4.6842L0.97168 22.2335C0.97168 23.3971 1.43079 24.513 2.24802 25.3358C3.06524 26.1586 4.17363 26.6208 5.32936 26.6208H31.4755C32.6312 26.6208 33.7396 26.1586 34.5568 25.3358C35.374 24.513 35.8331 23.3971 35.8331 22.2335V4.6842C35.8331 3.52061 35.374 2.40468 34.5568 1.58189C33.7396 0.75911 32.6312 0.296875 31.4755 0.296875ZM5.32936 3.21993H31.4755C31.8607 3.22138 32.2298 3.37611 32.5023 3.6504C32.7747 3.92469 32.9284 4.2963 32.9298 4.6842V6.14847H3.87499V4.6842C3.87642 4.2963 4.03011 3.92469 4.30255 3.6504C4.57499 3.37611 4.94408 3.22138 5.32936 3.21993ZM31.4755 23.6978H5.32936C4.94408 23.6963 4.57499 23.5416 4.30255 23.2673C4.03011 22.993 3.87642 22.6214 3.87499 22.2335V9.07153H32.9298V22.2335C32.9284 22.6214 32.7747 22.993 32.5023 23.2673C32.2298 23.5416 31.8607 23.6963 31.4755 23.6978Z" fill="#C08735" stroke="white" stroke-width="0.711458"/>
<path id="Vector_2" d="M30.0211 13.459H22.7601V20.7694H30.0211V13.459Z" fill="#C08735" stroke="white" stroke-width="0.711458"/>
</g>
</g>
</g>
<defs>
<clipPath id="clip0_713_3355">
<rect width="34.8615" height="26.324" fill="white" transform="translate(0.971924 0.296875)"/>
</clipPath>
</defs>
</svg>
