<svg width="22" height="22" viewBox="0 0 22 22" fill="none" xmlns="http://www.w3.org/2000/svg">
<g id="floor_plan_pbrp21fhsfla 1" clip-path="url(#clip0_1733_1167)">
<path id="Vector" d="M18.7773 0C17.221 0 15.919 1.10894 15.6195 2.57812H0V22H18.7773C20.5543 22 22 20.5543 22 18.7773V3.22266C22 1.44568 20.5543 0 18.7773 0ZM18.7773 1.28906C19.8435 1.28906 20.7109 2.15647 20.7109 3.22266V16.201C20.1719 15.7954 19.5023 15.5547 18.7773 15.5547C18.0524 15.5547 17.3827 15.7954 16.8438 16.201V3.22266C16.8438 2.15647 17.7112 1.28906 18.7773 1.28906ZM18.7773 20.7109H1.28906V3.86719H15.5547V18.7774H16.8438C16.8438 17.7112 17.7112 16.8438 18.7773 16.8438C19.8435 16.8438 20.7109 17.7112 20.7109 18.7773C20.7109 19.8435 19.8435 20.7109 18.7773 20.7109Z" fill="#C08735"/>
<path id="Vector_2" d="M3.95312 9.10938H2.57812V10.3984H6.53125V9.10938H5.24219V6.44531H7.82031V11.6875H10.3984V10.3984H9.10938V6.44531H12.9766V12.9766H7.82031V18.1328H5.24219V14.2656H6.53125V12.9766H2.57812V14.2656H3.95312V19.4219H14.2656V5.15625H3.95312V9.10938ZM9.10938 18.1328V14.2656H12.9766V15.5547H11.6875V16.8438H12.9766V18.1328H9.10938Z" fill="#C08735"/>
</g>
<defs>
<clipPath id="clip0_1733_1167">
<rect width="22" height="22" fill="white"/>
</clipPath>
</defs>
</svg>
