<svg width="32" height="32" viewBox="0 0 32 32" fill="none" xmlns="http://www.w3.org/2000/svg">
<path d="M28.25 0H3.75C1.68225 0 0 1.68225 0 3.75V28.25C0 30.3177 1.68225 32 3.75 32H28.25C30.3177 32 32 30.3177 32 28.25V3.75C32 1.68225 30.3177 0 28.25 0ZM29.5 28.25C29.5 28.9393 28.9393 29.5 28.25 29.5H3.75C3.06075 29.5 2.5 28.9393 2.5 28.25V3.75C2.5 3.06075 3.06075 2.5 3.75 2.5H28.25C28.9393 2.5 29.5 3.06075 29.5 3.75V28.25Z" fill="#C08735"/>
<path d="M17.875 6.25H9.125V25.75H11.625V18.75H17.875C21.3212 18.75 24.125 15.9462 24.125 12.5C24.125 9.05375 21.3212 6.25 17.875 6.25ZM17.875 16.25H11.625V8.75H17.875C19.9427 8.75 21.625 10.4323 21.625 12.5C21.625 14.5677 19.9427 16.25 17.875 16.25Z" fill="#C08735"/>
</svg>
