<svg width="45" height="32" viewBox="0 0 45 32" fill="none" xmlns="http://www.w3.org/2000/svg">
<path d="M43.125 13.1765V5.64706H37.5V0H30V13.1765H15V0H7.5V5.64706H1.875V13.1765H0V18.8235H1.875V26.3529H7.5V32H15V18.8235H30V32H37.5V26.3529H43.125V18.8235H45V13.1765H43.125ZM7.5 24.4706H3.75V18.8235V13.1765V7.52941H7.5V24.4706ZM13.125 13.1765V18.8235V30.1176H9.375V26.3529V5.64706V1.88235H13.125V13.1765ZM30 16.9412H15V15.0588H30V16.9412ZM35.625 5.64706V26.3529V30.1176H31.875V18.8235V13.1765V1.88235H35.625V5.64706ZM41.25 13.1765V18.8235V24.4706H37.5V7.52941H41.25V13.1765Z" fill="#C08735"/>
</svg>
