<svg width="44" height="44" viewBox="0 0 44 44" fill="none" xmlns="http://www.w3.org/2000/svg">
<g id="16569793461580594407 1">
<path id="Vector" d="M40.8362 19.6662L40.9387 19.7687H40.9521C41.5082 20.3784 41.8183 21.1751 41.8183 22.0037C41.8183 22.8798 41.4717 23.7202 40.8541 24.3416C40.854 24.3417 40.8539 24.3418 40.8538 24.3419L37.0962 28.0995L36.9937 28.202V28.347V33.6637C36.9937 34.5433 36.6443 35.3869 36.0223 36.0089C35.4003 36.6309 34.5567 36.9804 33.677 36.9804H28.342H28.1966L28.0939 37.0835L24.3372 40.8585C24.337 40.8587 24.3368 40.8589 24.3366 40.8591C23.7148 41.4755 22.8745 41.8211 21.999 41.8204H21.9984C21.1227 41.8211 20.2822 41.4754 19.6604 40.8587C19.6603 40.8587 19.6602 40.8586 19.6602 40.8585L15.9029 37.1012L15.8003 36.9987H15.6554H10.3387C9.45906 36.9987 8.61546 36.6493 7.99346 36.0273C7.37147 35.4053 7.02203 34.5617 7.02203 33.682V28.347V28.2015L6.91892 28.0989L3.14387 24.3422C3.14361 24.342 3.14336 24.3417 3.1431 24.3414C2.52776 23.7206 2.18239 22.882 2.18203 22.008C2.193 21.5698 2.2907 21.1382 2.46951 20.738C2.64887 20.3366 2.90625 19.9748 3.22668 19.6738L3.23224 19.6686L3.23756 19.6631L6.90422 15.9048L7.0037 15.8028V15.6604V10.3437C7.0037 9.46405 7.35313 8.62045 7.97513 7.99845C8.59712 7.37645 9.44073 7.02702 10.3204 7.02702H15.6554H15.7983L15.9004 6.92694L19.6587 3.24194L19.6604 3.24024C20.2819 2.62251 21.1225 2.27578 21.9987 2.27578C22.8749 2.27578 23.7155 2.62251 24.337 3.24024L24.3369 3.24025L24.3393 3.24254L28.0976 6.90921L28.1996 7.00869H28.342H33.6587C34.5383 7.00869 35.3819 7.35812 36.0039 7.98012C36.6259 8.60211 36.9754 9.44572 36.9754 10.3254V15.6604V15.8053L37.0779 15.9078L40.8362 19.6662ZM33.6587 34.0137H34.0087V33.6637V26.9887L38.7462 22.2512L38.9937 22.0037L38.7462 21.7562L34.0087 17.0187V10.3437V9.99369H33.6587H26.9837L22.2462 5.2562L21.9987 5.00871L21.7512 5.2562L17.0137 9.99369H10.3387H9.9887V10.3437V17.0187L5.25121 21.7562L5.00372 22.0037L5.25121 22.2512L9.9887 26.9887V33.6637V34.0137H10.3387H17.0137L21.7512 38.7512L21.9987 38.9987L22.2462 38.7512L26.9837 34.0137H33.6587Z" fill="#C08735" stroke="#F7F7F7" stroke-width="0.7"/>
<path id="Vector_2" d="M26.3738 14.6195L26.374 14.6193C26.6298 14.3203 26.9938 14.1351 27.386 14.1045C27.7783 14.0739 28.1666 14.2004 28.4656 14.4561C28.7646 14.7118 28.9497 15.0758 28.9803 15.4681C29.0109 15.8602 28.8845 16.2485 28.6289 16.5475C28.6288 16.5475 28.6288 16.5476 28.6287 16.5476L17.629 29.3807L17.6287 29.3809C17.373 29.6799 17.009 29.8651 16.6168 29.8957C16.2245 29.9263 15.8362 29.7998 15.5372 29.5441C15.2382 29.2884 15.0531 28.9244 15.0225 28.5321C15.0073 28.3379 15.0306 28.1426 15.0909 27.9574C15.1512 27.7722 15.2474 27.6006 15.374 27.4526L26.3738 14.6195Z" fill="#C08735" stroke="#F7F7F7" stroke-width="0.7"/>
<path id="Vector_3" d="M21.0579 18.0587C20.7518 18.4233 20.3442 18.6887 19.8869 18.821C19.2821 18.9912 18.6347 18.9193 18.082 18.6205C17.5292 18.3217 17.1144 17.8195 16.9255 17.2203C16.7857 16.7652 16.7845 16.2788 16.9218 15.823C17.0593 15.3669 17.3295 14.9619 17.6979 14.6598C18.0663 14.3577 18.5163 14.1721 18.9905 14.1266C19.4648 14.0811 19.9418 14.1778 20.361 14.4043C20.7801 14.6309 21.1223 14.9771 21.344 15.3988C21.5657 15.8205 21.6569 16.2986 21.606 16.7723C21.555 17.246 21.3642 17.6938 21.0579 18.0587Z" fill="#C08735" stroke="#F7F7F7" stroke-width="0.7"/>
<path id="Vector_4" d="M22.9421 25.9429C23.2482 25.5783 23.6558 25.313 24.1131 25.1806C24.7179 25.0104 25.3653 25.0824 25.918 25.3811C26.4708 25.6799 26.8856 26.1822 27.0745 26.7814C27.2143 27.2365 27.2156 27.7228 27.0782 28.1786C26.9407 28.6348 26.6705 29.0397 26.3021 29.3418C25.9337 29.6439 25.4837 29.8296 25.0095 29.8751C24.5352 29.9206 24.0582 29.8239 23.639 29.5973C23.2199 29.3708 22.8777 29.0246 22.656 28.6029C22.4343 28.1812 22.3431 27.703 22.394 27.2293C22.445 26.7556 22.6358 26.3078 22.9421 25.9429Z" fill="#C08735" stroke="#F7F7F7" stroke-width="0.7"/>
</g>
</svg>
