<svg width="25" height="32" viewBox="0 0 25 32" fill="none" xmlns="http://www.w3.org/2000/svg">
<path fill-rule="evenodd" clip-rule="evenodd" d="M19.3479 28.8691C19.2354 28.8691 19.1041 28.8316 19.0104 28.7566L17.3793 27.5005C17.2481 27.4068 17.1544 27.238 17.1544 27.0693V23.8822C17.1544 23.5634 17.4168 23.3197 17.7168 23.3197H21.0914C21.4101 23.3197 21.6539 23.5634 21.6539 23.8822V27.0693C21.6539 27.238 21.5601 27.4068 21.4101 27.5192L19.6666 28.7754C19.5728 28.8316 19.4603 28.8691 19.3479 28.8691ZM23.9036 32H0.562438C0.243723 32 0 31.7375 0 31.4376V21.8199C0 18.539 3.18715 15.9143 7.18045 15.8955H8.92401L9.14899 15.0144C7.79914 14.152 6.99298 12.6709 6.93673 11.0398C4.91196 9.67122 5.34316 5.47169 5.81186 3.46566C6.18681 1.74085 6.95548 1.15967 8.34283 0.634725C11.4175 -0.565143 17.5481 -0.32142 18.6917 3.63439C19.1979 5.30296 19.2166 7.98391 18.298 9.8962C18.298 9.8962 18.298 9.8962 18.2792 9.8962C17.8668 10.7211 17.4731 10.9461 17.4731 11.0773C17.4731 12.7646 16.7044 14.2457 15.3171 15.0894L15.5233 15.8955H17.2856C20.8852 15.8955 24.466 18.2953 24.466 21.8199V31.4376C24.466 31.7375 24.2223 32 23.9036 32ZM9.16774 17.0204H7.98662L9.73017 20.8262L11.4175 18.7265L9.16774 17.0204ZM6.74925 17.0204C3.61835 17.1891 1.12488 19.2702 1.12488 21.8199V30.8751H23.3412V21.8199C23.3412 19.0639 20.4915 17.1704 17.698 17.0204L15.3545 22.1198C15.1858 22.5136 14.6609 22.551 14.4172 22.2323L13.911 21.5949L13.7047 21.8949L14.7921 27.9692C14.8296 28.1754 14.7546 28.3817 14.5859 28.5129L12.5799 30.069C12.3736 30.2189 12.0924 30.2189 11.8862 30.069L9.88016 28.5129C9.73017 28.3817 9.63643 28.1754 9.67393 27.9692L10.7613 21.8949L10.5551 21.5949C10.2364 21.9886 9.95515 22.5136 9.54269 22.4386C9.33647 22.4198 9.18648 22.2886 9.09274 22.1198L6.74925 17.0204ZM16.4794 17.0204H15.2983L13.0298 18.7265L14.7359 20.8262L16.4794 17.0204ZM12.2236 23.6947C11.9049 23.6947 11.7924 23.4884 11.6612 23.2822L10.855 27.8192L12.2424 28.9066L13.6297 27.8192L12.8048 23.2822C12.6736 23.4884 12.5424 23.6947 12.2236 23.6947ZM11.305 20.6763L12.2424 22.1011L13.161 20.6763L12.2236 19.5326L11.305 20.6763ZM12.2424 17.9391L14.4546 16.233L14.2672 15.5393C13.2173 15.858 11.23 15.858 10.1801 15.5206L9.99264 16.233L12.2424 17.9391ZM8.04286 10.7211C8.04286 13.0084 9.59894 14.6394 11.7362 14.6394H12.7298C14.9796 14.6394 16.4794 12.9709 16.3482 10.8711C16.1982 8.62134 16.4419 8.73383 16.067 6.14661C15.617 6.2966 15.1296 6.48408 14.6421 6.67156C12.7111 7.42147 10.3489 8.34012 8.19284 6.46533C7.87413 7.87142 8.06161 9.27752 8.04286 10.7211ZM12.0737 1.12217C10.8363 1.12217 9.63643 1.3284 8.75528 1.68461C6.8055 2.43453 7.1992 3.22194 6.89924 3.72813C6.48678 5.37795 6.35555 7.75894 6.89924 9.16503C6.86174 7.85267 6.86174 6.59656 7.40543 5.20922C7.55541 4.79676 8.08036 4.72177 8.36157 5.04049C10.8925 7.98391 13.5922 5.49044 16.4419 4.90925C16.7419 4.85301 17.0419 5.05923 17.0981 5.37795C17.3043 6.65281 17.4543 7.75894 17.4356 9.07129C17.998 7.6277 18.0917 5.49044 17.623 3.93436C16.9856 1.74085 14.1734 1.12217 12.0737 1.12217ZM18.2792 26.7881L19.3666 27.613L20.529 26.7693V24.4446H18.2792V26.7881Z" fill="#C08735"/>
</svg>
