<svg width="36" height="36" viewBox="0 0 36 36" fill="none" xmlns="http://www.w3.org/2000/svg">
<path d="M29.1546 9.82012V10.1201H29.4546H31.9578C32.949 10.1243 33.8985 10.5199 34.5994 11.2208C35.3003 11.9217 35.6959 12.8711 35.7001 13.8622C35.7001 13.8625 35.7001 13.8629 35.7001 13.8632V31.959C35.7001 31.9593 35.7001 31.9596 35.7001 31.9599C35.6959 32.9511 35.3003 33.9004 34.5994 34.6013C33.8983 35.3024 32.9486 35.698 31.9571 35.702H4.04304C3.05155 35.698 2.10181 35.3024 1.40072 34.6013C0.699764 33.9003 0.304146 32.9509 0.3 31.9596V13.8632C0.305736 13.199 0.486657 12.548 0.824499 11.9761C1.16255 11.4038 1.64573 10.9309 2.22517 10.6053L2.26269 10.5842L2.29278 10.5534C2.4335 10.4094 2.60016 10.2932 2.78398 10.2111L27.324 0.395108C27.324 0.395075 27.3241 0.395033 27.3242 0.395001C27.5265 0.314355 27.7454 0.284377 27.962 0.30766C28.1786 0.330952 28.3862 0.40685 28.5668 0.528744C28.7481 0.651318 28.8965 0.816539 28.999 1.00989C29.1015 1.2033 29.155 1.41893 29.1546 1.63783V1.63828V9.82012ZM26.1819 10.1201H26.4819V9.82012V4.06011V3.61718L26.0706 3.78152L11.6542 9.54154L11.7655 10.1201H26.1819ZM32.7274 26.4838H33.0274V26.1838V19.6383V19.3383H32.7274H26.1819C25.2343 19.3383 24.3256 19.7147 23.6556 20.3848C22.9856 21.0548 22.6092 21.9635 22.6092 22.9111C22.6092 23.8586 22.9856 24.7674 23.6556 25.4374C24.3256 26.1074 25.2343 26.4838 26.1819 26.4838H32.7274ZM33.0274 29.4565V29.1565H32.7274H26.1819C24.5255 29.1565 22.9369 28.4985 21.7657 27.3273C20.5944 26.156 19.9364 24.5675 19.9364 22.9111C19.9364 21.2547 20.5944 19.6661 21.7657 18.4949C22.9369 17.3236 24.5255 16.6656 26.1819 16.6656H32.7274H33.0274V16.3656V13.862C33.0274 13.7216 32.9997 13.5825 32.946 13.4528C32.8923 13.3231 32.8135 13.2053 32.7142 13.106C32.615 13.0067 32.4971 12.928 32.3674 12.8742C32.2377 12.8205 32.0987 12.7929 31.9583 12.7929H4.04183C3.90143 12.7929 3.76241 12.8205 3.63271 12.8742C3.503 12.928 3.38514 13.0067 3.28587 13.106C3.18659 13.2053 3.10784 13.3231 3.05412 13.4528C3.00039 13.5825 2.97274 13.7216 2.97274 13.862V31.9602C2.97274 32.2437 3.08537 32.5157 3.28587 32.7162C3.48636 32.9166 3.75829 33.0293 4.04183 33.0293H31.9583C32.2418 33.0293 32.5137 32.9166 32.7142 32.7162C32.9147 32.5157 33.0274 32.2437 33.0274 31.9602V29.4565Z" fill="#C08735" stroke="#F7F7F7" stroke-width="0.6"/>
<path d="M29.1544 22.9157C29.1544 23.6537 28.5561 24.252 27.818 24.252C27.08 24.252 26.4816 23.6537 26.4816 22.9157C26.4816 22.1776 27.08 21.5793 27.818 21.5793C28.5561 21.5793 29.1544 22.1776 29.1544 22.9157Z" fill="#C08735" stroke="#F7F7F7" stroke-width="0.6"/>
</svg>
