<svg width="30" height="32" viewBox="0 0 30 32" fill="none" xmlns="http://www.w3.org/2000/svg">
<path d="M27.9558 19.3252L23.4536 16.1123L21.1265 11.4632C20.8258 10.8579 20.3617 10.3488 19.7867 9.99357C19.2117 9.63834 18.5488 9.45113 17.8729 9.45315H11.2159C10.5398 9.45086 9.87651 9.63794 9.30123 9.99318C8.72595 10.3484 8.26162 10.8576 7.96084 11.4632L5.63373 16.1123L1.13877 19.3208C0.610724 19.6879 0.235899 20.2362 0.0854786 20.8615C-0.0649417 21.4867 0.0195198 22.1455 0.322822 22.7126C0.500031 23.0221 0.739981 23.2911 1.02727 23.5023C1.31456 23.7136 1.64285 23.8625 1.99107 23.9394C2.16904 23.9783 2.35069 23.9978 2.53285 23.9976C2.73699 23.995 2.94011 23.9682 3.1379 23.9176C3.07363 24.5633 3.22577 25.2121 3.5704 25.762C3.91503 26.3118 4.4326 26.7316 5.04177 26.9552L7.0969 27.7064C6.87074 28.1252 6.75111 28.5933 6.74856 29.0692C6.74918 29.4127 6.80845 29.7536 6.92382 30.0772C7.13453 30.641 7.51243 31.127 8.00696 31.4701C8.50148 31.8132 9.08901 31.997 9.6909 31.997C10.0297 31.997 10.3658 31.9379 10.6843 31.8225L14.5444 30.4146L18.4052 31.8196C18.9604 32.0239 19.5646 32.0548 20.1377 31.908C20.7109 31.7613 21.2259 31.4439 21.6146 30.998C22.0034 30.552 22.2474 29.9984 22.3145 29.4107C22.3816 28.8229 22.2686 28.2285 21.9904 27.7064L24.0506 26.9567C24.6145 26.7488 25.1012 26.3734 25.4455 25.8808C25.7897 25.3883 25.975 24.8021 25.9763 24.2012C25.9763 24.1067 25.961 24.0129 25.9516 23.9183C26.1479 23.9689 26.3496 23.9955 26.5523 23.9976C27.0157 23.9985 27.4706 23.8729 27.8679 23.6343C28.2652 23.3956 28.5898 23.0531 28.8067 22.6435C29.0906 22.0811 29.1608 21.4348 29.0044 20.8246C28.8479 20.2143 28.4753 19.6816 27.9558 19.3252ZM9.45383 22.325L7.04963 21.4523C7.02054 21.4414 6.99 21.4385 6.96018 21.429L9.11276 19.8924C9.23502 19.806 9.34918 19.7086 9.45383 19.6015V22.325ZM10.1883 30.4546C9.82089 30.5866 9.41633 30.5691 9.06164 30.4059C8.70696 30.2427 8.4305 29.9469 8.29173 29.5819C8.23328 29.4168 8.20328 29.243 8.203 29.0678C8.20423 28.7593 8.30271 28.459 8.48444 28.2097L12.4209 29.6423L10.1883 30.4546ZM20.7985 29.571C20.6642 29.9383 20.3898 30.2374 20.0354 30.4028C19.681 30.5681 19.2755 30.5862 18.9077 30.4531L5.53846 25.5888C5.35629 25.5224 5.18898 25.4208 5.04608 25.2897C4.90318 25.1587 4.78749 25.0008 4.70561 24.8251C4.62373 24.6493 4.57727 24.4592 4.56888 24.2655C4.56049 24.0718 4.59033 23.8783 4.6567 23.6962C4.72308 23.514 4.82468 23.3467 4.95571 23.2038C5.08674 23.0609 5.24464 22.9452 5.42038 22.8633C5.59613 22.7814 5.78628 22.735 5.97998 22.7266C6.17368 22.7182 6.36713 22.748 6.5493 22.8144L19.9135 27.6781C20.2816 27.8121 20.5815 28.0866 20.7474 28.4415C20.9134 28.7964 20.9317 29.2026 20.7985 29.571ZM23.5561 25.5902L20.9127 26.5531C20.7542 26.4568 20.5869 26.376 20.4131 26.3116L16.6722 24.9495L22.5387 22.8129C22.9062 22.6807 23.3108 22.6981 23.6655 22.8613C24.0203 23.0246 24.2967 23.3206 24.4353 23.6856C24.4938 23.8507 24.5238 24.0246 24.5241 24.1998C24.5239 24.5029 24.4308 24.7987 24.2573 25.0473C24.0839 25.2959 23.8384 25.4854 23.5539 25.5902H23.5561ZM19.6408 22.3177V19.5964C19.7449 19.7032 19.8583 19.8005 19.9796 19.8873L22.1322 21.424C22.1024 21.4334 22.0719 21.4356 22.0428 21.4465L19.6408 22.3177ZM27.5231 21.9541C27.4477 22.0891 27.3451 22.2069 27.2218 22.3002C27.0985 22.3934 26.9571 22.46 26.8067 22.4958C26.6563 22.5315 26.5001 22.5356 26.348 22.5079C26.196 22.4801 26.0513 22.421 25.9232 22.3344L20.8276 18.6983C20.683 18.5949 20.5657 18.4579 20.4858 18.2991L19.5622 16.4658C19.4889 16.3194 19.3683 16.2021 19.22 16.1328C19.0717 16.0635 18.9044 16.0462 18.745 16.0838C18.5857 16.1214 18.4437 16.2117 18.3421 16.34C18.2404 16.4683 18.185 16.6271 18.1849 16.7908V22.8508L14.5487 24.1765L10.9126 22.8515V16.7908C10.9125 16.6271 10.8571 16.4683 10.7554 16.34C10.6537 16.2117 10.5118 16.1214 10.3525 16.0838C10.1931 16.0462 10.0258 16.0635 9.87749 16.1328C9.7292 16.2021 9.60862 16.3194 9.53527 16.4658L8.61679 18.3013C8.53688 18.4615 8.41875 18.5996 8.27282 18.7034L3.1779 22.3395C3.0534 22.4287 2.91151 22.4907 2.76146 22.5215C2.61141 22.5522 2.45658 22.551 2.30703 22.5179C2.15747 22.4849 2.01656 22.4207 1.89346 22.3296C1.77036 22.2384 1.66784 22.1224 1.59255 21.989C1.46608 21.7355 1.43694 21.4444 1.51065 21.1709C1.58436 20.8974 1.75581 20.6604 1.99252 20.5047L6.63511 17.1915C6.73189 17.1226 6.81029 17.0309 6.86346 16.9246L9.26984 12.1141C9.44983 11.7518 9.72733 11.447 10.0711 11.2338C10.4149 11.0207 10.8114 10.9077 11.2159 10.9076H17.8729C18.2787 10.9062 18.6769 11.0185 19.0222 11.2317C19.3676 11.4449 19.6463 11.7506 19.8269 12.1141L22.2333 16.9246C22.2865 17.0309 22.3649 17.1226 22.4617 17.1915L27.1108 20.5069C27.3411 20.6609 27.5089 20.8919 27.5841 21.1585C27.6593 21.4251 27.6369 21.7098 27.5209 21.9614L27.5231 21.9541Z" fill="#C08735"/>
<path d="M19.2713 4.72695C19.2713 3.79205 18.994 2.87814 18.4746 2.1008C17.9552 1.32346 17.217 0.717591 16.3533 0.359819C15.4895 0.00204811 14.5391 -0.0915612 13.6221 0.0908291C12.7052 0.273219 11.863 0.723417 11.2019 1.38449C10.5408 2.04557 10.0906 2.88783 9.90821 3.80477C9.72582 4.7217 9.81943 5.67213 10.1772 6.53587C10.535 7.39961 11.1408 8.13786 11.9182 8.65726C12.6955 9.17666 13.6094 9.45389 14.5443 9.45389C15.7975 9.45235 16.9989 8.95384 17.8851 8.0677C18.7712 7.18156 19.2697 5.98014 19.2713 4.72695ZM14.5443 7.99945C13.8971 7.99945 13.2644 7.80752 12.7262 7.44793C12.1881 7.08835 11.7686 6.57725 11.5209 5.97928C11.2732 5.38131 11.2084 4.72332 11.3347 4.08851C11.461 3.45371 11.7727 2.87061 12.2303 2.41294C12.688 1.95527 13.2711 1.6436 13.9059 1.51733C14.5407 1.39106 15.1987 1.45586 15.7967 1.70355C16.3946 1.95124 16.9057 2.37068 17.2653 2.90884C17.6249 3.447 17.8168 4.07971 17.8168 4.72695C17.8159 5.59457 17.4708 6.42639 16.8573 7.03989C16.2438 7.6534 15.412 7.99849 14.5443 7.99945Z" fill="#C08735"/>
<path d="M2.90886 7.27217H3.63609V7.99939C3.63609 8.19226 3.7127 8.37724 3.84908 8.51362C3.98546 8.65 4.17044 8.72662 4.36331 8.72662C4.55618 8.72662 4.74115 8.65 4.87753 8.51362C5.01391 8.37724 5.09053 8.19226 5.09053 7.99939V7.27217H5.81775C6.01062 7.27217 6.1956 7.19555 6.33198 7.05917C6.46836 6.92279 6.54497 6.73782 6.54497 6.54495C6.54497 6.35208 6.46836 6.16711 6.33198 6.03072C6.1956 5.89434 6.01062 5.81773 5.81775 5.81773H5.09053V5.0905C5.09053 4.89763 5.01391 4.71266 4.87753 4.57628C4.74115 4.4399 4.55618 4.36328 4.36331 4.36328C4.17044 4.36328 3.98546 4.4399 3.84908 4.57628C3.7127 4.71266 3.63609 4.89763 3.63609 5.0905V5.81773H2.90886C2.71599 5.81773 2.53102 5.89434 2.39464 6.03072C2.25826 6.16711 2.18164 6.35208 2.18164 6.54495C2.18164 6.73782 2.25826 6.92279 2.39464 7.05917C2.53102 7.19555 2.71599 7.27217 2.90886 7.27217Z" fill="#C08735"/>
<path d="M25.4528 11.6361C25.2599 11.6361 25.075 11.7127 24.9386 11.8491C24.8022 11.9855 24.7256 12.1704 24.7256 12.3633C24.7256 12.5562 24.8022 12.7412 24.9386 12.8775C25.075 13.0139 25.2599 13.0905 25.4528 13.0905H26.18V13.8178C26.18 14.0106 26.2566 14.1956 26.393 14.332C26.5294 14.4684 26.7144 14.545 26.9073 14.545C27.1001 14.545 27.2851 14.4684 27.4215 14.332C27.5579 14.1956 27.6345 14.0106 27.6345 13.8178V13.0905H28.3617C28.5546 13.0905 28.7395 13.0139 28.8759 12.8775C29.0123 12.7412 29.0889 12.5562 29.0889 12.3633C29.0889 12.1704 29.0123 11.9855 28.8759 11.8491C28.7395 11.7127 28.5546 11.6361 28.3617 11.6361H27.6345V10.9089C27.6345 10.716 27.5579 10.531 27.4215 10.3946C27.2851 10.2583 27.1001 10.1816 26.9073 10.1816C26.7144 10.1816 26.5294 10.2583 26.393 10.3946C26.2566 10.531 26.18 10.716 26.18 10.9089V11.6361H25.4528Z" fill="#C08735"/>
<path d="M24.7253 6.54429C25.1269 6.54429 25.4525 6.2187 25.4525 5.81707C25.4525 5.41543 25.1269 5.08984 24.7253 5.08984C24.3236 5.08984 23.998 5.41543 23.998 5.81707C23.998 6.2187 24.3236 6.54429 24.7253 6.54429Z" fill="#C08735"/>
<path d="M0.727222 13.0892C1.12886 13.0892 1.45444 12.7636 1.45444 12.362C1.45444 11.9604 1.12886 11.6348 0.727222 11.6348C0.325588 11.6348 0 11.9604 0 12.362C0 12.7636 0.325588 13.0892 0.727222 13.0892Z" fill="#C08735"/>
</svg>
