<svg width="46" height="39" viewBox="0 0 46 39" fill="none" xmlns="http://www.w3.org/2000/svg">
<path d="M23.5524 14.1129L26.0445 7.51467H40.1664L36.4282 17.4537H27.6228M18.2359 38H16.6576H15.0792L13.5009 36.3296M13.5009 36.3296L11.9226 38H10.3442H8.76594M13.5009 36.3296V32.237M6.43994 13.2777V25.6388C6.43994 29.3138 9.26435 32.237 12.7533 32.237H18.2359M16.6576 18.2054V23.1332H20.5618C22.2232 23.1332 23.7185 24.219 24.3 25.8894L28.1212 38M24.5492 38L19.8142 28.8962H14.2485C11.6734 28.8962 9.51354 26.6411 9.51354 23.9684V14.8646C9.51354 13.0271 10.9257 11.5237 12.6702 11.5237H15.8269L19.7311 16.4515H25.2138C25.2138 16.4515 25.6291 19.7088 22.0571 19.7088H17.3221L14.1655 16.4515M16.6576 19.8759H39.5018M13.9162 9.1851C15.9099 9.1851 17.4883 7.5982 17.4883 5.67721V4.5079C17.4883 2.58691 15.9099 1 13.9162 1C11.9226 1 10.3442 2.58691 10.3442 4.5079V5.67721C10.3442 7.5982 11.9226 9.1851 13.9162 9.1851Z" stroke="#C08735" stroke-miterlimit="10" stroke-linecap="round" stroke-linejoin="round"/>
</svg>
