<svg width="45" height="45" viewBox="0 0 45 45" fill="none" xmlns="http://www.w3.org/2000/svg">
<g id="Bed">
<g id="Double Bed">
<g id="Group 427321724">
<rect id="Rectangle 8689" width="45" height="45" fill="white"/>
<path id="Vector" d="M33.9167 21.4873V16.0833C33.9154 15.0007 33.4848 13.9629 32.7193 13.1973C31.9538 12.4318 30.9159 12.0012 29.8333 12H15.8333C14.7507 12.0012 13.7129 12.4318 12.9473 13.1973C12.1818 13.9629 11.7512 15.0007 11.75 16.0833V21.4873C11.2102 21.8627 10.7691 22.363 10.4644 22.9456C10.1597 23.5282 10.0004 24.1758 10 24.8333V31.8333C10 32.1428 10.1229 32.4395 10.3417 32.6583C10.5605 32.8771 10.8572 33 11.1667 33H13.5C13.8094 33 14.1062 32.8771 14.325 32.6583C14.5437 32.4395 14.6667 32.1428 14.6667 31.8333V30.0833H31V31.8333C31 32.1428 31.1229 32.4395 31.3417 32.6583C31.5605 32.8771 31.8572 33 32.1667 33H34.5C34.8094 33 35.1062 32.8771 35.325 32.6583C35.5438 32.4395 35.6667 32.1428 35.6667 31.8333V24.8333C35.6663 24.1758 35.507 23.5282 35.2023 22.9456C34.8975 22.363 34.4565 21.8627 33.9167 21.4873ZM12.9167 16.0833C12.9176 15.3101 13.2252 14.5687 13.772 14.022C14.3187 13.4752 15.0601 13.1676 15.8333 13.1667H29.8333C30.6066 13.1676 31.3479 13.4752 31.8947 14.022C32.4415 14.5687 32.7491 15.3101 32.75 16.0833V20.925C32.3717 20.8101 31.9787 20.7512 31.5833 20.75V19.5833C31.5833 18.9645 31.3375 18.371 30.8999 17.9334C30.4623 17.4958 29.8688 17.25 29.25 17.25H25.75C25.1312 17.25 24.5377 17.4958 24.1001 17.9334C23.6625 18.371 23.4167 18.9645 23.4167 19.5833V20.75H22.25V19.5833C22.25 18.9645 22.0042 18.371 21.5666 17.9334C21.129 17.4958 20.5355 17.25 19.9167 17.25H16.4167C15.7978 17.25 15.2043 17.4958 14.7668 17.9334C14.3292 18.371 14.0833 18.9645 14.0833 19.5833V20.75C13.688 20.7512 13.295 20.8101 12.9167 20.925V16.0833ZM30.4167 20.75H24.5833V19.5833C24.5833 19.2739 24.7062 18.9772 24.925 18.7584C25.1438 18.5396 25.4406 18.4167 25.75 18.4167H29.25C29.5594 18.4167 29.8562 18.5396 30.075 18.7584C30.2938 18.9772 30.4167 19.2739 30.4167 19.5833V20.75ZM21.0833 20.75H15.25V19.5833C15.25 19.2739 15.3729 18.9772 15.5917 18.7584C15.8105 18.5396 16.1072 18.4167 16.4167 18.4167H19.9167C20.2261 18.4167 20.5228 18.5396 20.7416 18.7584C20.9604 18.9772 21.0833 19.2739 21.0833 19.5833V20.75ZM11.1667 24.8333C11.1676 24.0601 11.4752 23.3187 12.022 22.772C12.5687 22.2252 13.3101 21.9176 14.0833 21.9167H31.5833C32.3566 21.9176 33.0979 22.2252 33.6447 22.772C34.1915 23.3187 34.4991 24.0601 34.5 24.8333V25.4167H11.1667V24.8333ZM13.5 31.8333H11.1667V30.0833H13.5V31.8333ZM11.1667 28.9167V26.5833H34.5V28.9167H11.1667ZM34.5 31.8333H32.1667V30.0833H34.5V31.8333Z" fill="#4C4C4C"/>
</g>
</g>
</g>
</svg>
