<svg width="34" height="39" viewBox="0 0 34 39" fill="none" xmlns="http://www.w3.org/2000/svg">
<path d="M15.056 38.3527V32.0132C15.056 29.5869 12.1601 27.9433 12.1601 27.9433C10.8296 27.0824 9.34252 25.5954 9.34252 25.5954L6.91628 22.9343C5.89882 21.8386 4.41178 21.5255 3.70738 22.2299C2.92472 22.9343 3.1595 24.4214 4.17696 25.5171L7.6207 29.1956M4.56829 19.9602V12.9945C4.56829 11.8205 3.78564 10.8813 2.76818 10.8813C1.75072 10.8813 0.88979 11.8205 0.811523 12.9945V26.5346L7.07282 34.6742C7.07282 34.6742 7.7772 35.4569 7.5424 38.3527M18.2649 38.3527V32.0132C18.2649 29.5869 21.1607 27.9433 21.1607 27.9433C22.4913 27.0824 23.9783 25.5954 23.9783 25.5954L26.4046 22.9343C27.4221 21.8386 28.9091 21.5255 29.6135 22.2299C30.3962 22.9343 30.1614 24.4214 29.1439 25.5171L25.7002 29.1956M28.7526 19.9602V12.9945C28.7526 11.8205 29.5352 10.8813 30.5527 10.8813C31.5702 10.8813 32.4311 11.8205 32.5094 12.9945V26.5346L26.2481 34.6742C26.2481 34.6742 25.5436 35.4569 25.7784 38.3527M16.6213 16.4382V20.3515M21.7086 12.2901V20.7428H11.6123V12.2901M9.49906 14.012L16.6996 7.35932L23.9001 14.012M10.2817 6.81145L8.55985 4.62M23.0391 6.81145L24.761 4.62M16.6213 3.52426V1.17627" stroke="#C08735" stroke-width="1.3" stroke-miterlimit="10" stroke-linecap="round" stroke-linejoin="round"/>
</svg>
