<svg width="45" height="38" viewBox="0 0 45 38" fill="none" xmlns="http://www.w3.org/2000/svg">
<path d="M33.9682 35.3487C30.8307 35.9267 26.7023 36.3395 22.3262 36.3395C17.9501 36.3395 13.8217 36.0093 10.6841 35.3487C7.29885 34.6882 6.06035 33.8625 6.06035 33.2845C6.06035 32.7066 7.29885 31.9634 10.6841 31.2203C13.8217 30.6424 17.9501 30.2295 22.3262 30.2295C26.7023 30.2295 30.8307 30.5598 33.9682 31.2203C37.3535 31.8809 38.592 32.7066 38.592 33.2845C38.592 33.8625 37.3535 34.6056 33.9682 35.3487ZM22.3262 29.7341C14.152 29.7341 5.48242 30.9726 5.48242 33.2845C5.48242 34.3579 7.2163 35.1835 10.6016 35.9266C13.7391 36.5872 17.9501 36.9175 22.3262 36.9175C26.7023 36.9175 30.9132 36.5872 34.0508 35.9266C37.4361 35.2661 39.1699 34.3579 39.1699 33.2845C39.1699 30.9726 30.5004 29.7341 22.3262 29.7341Z" fill="#CBC5B3"/>
<path d="M34.0508 35.3493C30.9132 36.0099 26.7849 36.3401 22.3263 36.3401C17.8676 36.3401 13.7392 36.0099 10.6016 35.3493C7.13376 34.6888 5.97784 33.7805 5.97784 33.2026C5.97784 32.6246 7.21633 31.7989 10.6016 31.0558C13.7392 30.3952 17.8676 30.065 22.3263 30.065C26.7849 30.065 30.9132 30.3952 34.0508 31.0558C37.5186 31.7163 38.6746 32.6246 38.6746 33.2026C38.6746 33.8631 37.4361 34.6888 34.0508 35.3493ZM22.3263 29.5696C14.0695 29.5696 5.3999 30.8907 5.3999 33.2851C5.3999 34.3585 7.13378 35.2668 10.5191 36.0099C13.6566 36.6704 17.8676 37.0007 22.3263 37.0007C26.7849 37.0007 30.9958 36.6704 34.1334 36.0099C37.5186 35.3494 39.2526 34.4411 39.2526 33.2851C39.2526 30.8907 30.5004 29.5696 22.3263 29.5696Z" stroke="#C08735" stroke-miterlimit="10"/>
<path d="M19.6841 33.532H25.051" stroke="#C08735" stroke-miterlimit="10" stroke-linecap="round" stroke-linejoin="round"/>
<path d="M22.3262 10.8261V33.5322M25.8765 25.358C25.8765 25.358 24.06 13.9637 22.9867 12.1472C22.9867 12.1472 32.3994 14.3765 25.8765 25.358ZM35.1242 20.3213L23.1519 11.2389C23.1519 11.2389 32.482 7.85364 35.1242 20.3213ZM38.1791 9.50502L22.9867 10.5784C22.9867 10.4958 28.1884 1.33083 38.1791 9.50502ZM31.6563 1.00056L22.2435 9.91785C22.3261 9.91785 21.3353 0.917997 31.6563 1.00056ZM18.7757 25.358C18.7757 25.358 20.5922 13.9637 21.6656 12.1472C21.6656 12.1472 12.3355 14.3765 18.7757 25.358ZM9.52821 20.3213L21.5005 11.2389C21.5005 11.2389 12.1704 7.85364 9.52821 20.3213ZM6.47314 9.50502L21.6656 10.5784C21.6656 10.4958 16.4638 1.33083 6.47314 9.50502ZM12.996 1.00056L22.4087 9.91785C22.4087 9.91785 23.317 0.917997 12.996 1.00056Z" stroke="#C08735" stroke-miterlimit="10" stroke-linecap="round" stroke-linejoin="round"/>
</svg>
