<svg width="29" height="39" viewBox="0 0 29 39" fill="none" xmlns="http://www.w3.org/2000/svg">
<path d="M13.8778 26.4862L12.1658 30.2364M15.1007 26.4862L16.8128 30.2364M8.90466 8.55015C7.51869 9.93611 6.70336 11.8112 6.70336 13.9309C6.70336 18.2519 10.2091 21.7575 14.5301 21.7575C18.851 21.7575 22.3567 18.2519 22.3567 13.9309C22.3567 11.8112 21.5413 9.93611 20.1554 8.55015M16.3236 26.4862H12.7364V24.1219H16.3236V26.4862ZM24.721 34.8835H19.9109V31.2963H24.721V34.8835ZM9.06767 24.1219C4.42061 24.1219 0.67041 27.8721 0.67041 32.5192V38.4707H28.3081V32.5192C28.3081 27.8721 24.5579 24.1219 19.9109 24.1219L14.5301 34.8835L9.06767 24.1219ZM21.1338 8.55015H7.92627V6.18583H21.1338V8.55015ZM22.2752 2.5171C19.8293 1.70183 17.2204 1.29419 14.4485 1.29419C11.6765 1.29419 9.06767 1.6203 6.62185 2.5171C6.62185 2.5171 6.29574 4.79989 7.84476 6.10433H21.0523C22.6828 4.88141 22.2752 2.5171 22.2752 2.5171Z" stroke="#C08735" stroke-miterlimit="10" stroke-linecap="round" stroke-linejoin="round"/>
</svg>
