<svg width="42" height="42" viewBox="0 0 42 42" fill="none" xmlns="http://www.w3.org/2000/svg">
<path d="M7.45496 19.285V27.9825C7.45496 31.1675 7.45496 31.1675 10.465 33.1975L18.7425 37.975C19.985 38.6925 22.015 38.6925 23.2575 37.975L31.535 33.1975C34.545 31.1675 34.545 31.1675 34.545 27.9825V19.285C34.545 16.1 34.545 16.1 31.535 14.07L23.2575 9.29249C22.015 8.57499 19.985 8.57499 18.7425 9.29249L10.465 14.07C7.45496 16.1 7.45496 16.1 7.45496 19.285Z" stroke="#C08735" stroke-width="1.5" stroke-linecap="round" stroke-linejoin="round"/>
<path d="M30.625 13.3525V8.75C30.625 5.25 28.875 3.5 25.375 3.5H16.625C13.125 3.5 11.375 5.25 11.375 8.75V13.23" stroke="#C08735" stroke-width="1.5" stroke-linecap="round" stroke-linejoin="round"/>
<path d="M22.1025 19.2325L23.1 20.79C23.2575 21.035 23.6075 21.28 23.87 21.35L25.655 21.805C26.7575 22.085 27.055 23.03 26.3375 23.905L25.165 25.3225C24.99 25.55 24.85 25.9525 24.8675 26.2325L24.9725 28.07C25.0425 29.2075 24.2375 29.785 23.1875 29.365L21.4725 28.6825C21.21 28.5775 20.7725 28.5775 20.51 28.6825L18.795 29.365C17.745 29.785 16.94 29.19 17.01 28.07L17.115 26.2325C17.1325 25.9525 16.9925 25.5325 16.8175 25.3225L15.645 23.905C14.9275 23.03 15.225 22.085 16.3275 21.805L18.1125 21.35C18.3925 21.28 18.7425 21.0175 18.8825 20.79L19.88 19.2325C20.51 18.2875 21.49 18.2875 22.1025 19.2325Z" stroke="#C08735" stroke-width="1.5" stroke-linecap="round" stroke-linejoin="round"/>
</svg>
