<svg width="30" height="39" viewBox="0 0 30 39" fill="none" xmlns="http://www.w3.org/2000/svg">
<path d="M14.2074 26.192L12.4953 29.9422M15.4303 26.192L17.1424 29.9422M9.23425 8.25596C7.84828 9.64192 7.03295 11.517 7.03295 13.6367C7.03295 17.9577 10.5387 21.4634 14.8597 21.4634C19.1806 21.4634 22.6863 17.9577 22.6863 13.6367C22.6863 11.517 21.8709 9.64192 20.485 8.25596M16.6532 26.192H13.066V23.8277H16.6532V26.192ZM25.0506 34.5893H20.2404V31.0021H25.0506V34.5893ZM9.39726 23.8277C4.7502 23.8277 1 27.5779 1 32.225V38.1765H28.6377V32.225C28.6377 27.5779 24.8875 23.8277 20.2404 23.8277L14.8597 34.5893L9.39726 23.8277ZM21.4634 8.25596H8.25586V5.89164H21.4634V8.25596ZM22.6048 2.22291C20.1589 1.40764 17.55 1 14.778 1C12.0061 1 9.39726 1.32611 6.95144 2.22291C6.95144 2.22291 6.62533 4.5057 8.17435 5.81014H21.3818C23.0124 4.58723 22.6048 2.22291 22.6048 2.22291Z" stroke="#C08735" stroke-miterlimit="10" stroke-linecap="round" stroke-linejoin="round"/>
</svg>
