<svg width="53" height="53" viewBox="0 0 53 53" fill="none" xmlns="http://www.w3.org/2000/svg">
<path d="M26.8609 52.6642C41.2962 52.6642 52.9984 40.962 52.9984 26.5267C52.9984 12.0914 41.2962 0.38916 26.8609 0.38916C12.4256 0.38916 0.723389 12.0914 0.723389 26.5267C0.723389 40.962 12.4256 52.6642 26.8609 52.6642Z" fill="white"/>
<path fill-rule="evenodd" clip-rule="evenodd" d="M31.8991 11.9636C33.1304 10.3742 34.0638 8.12763 33.7261 5.83447C31.7137 5.97433 29.3615 7.26189 27.9889 8.94014C26.7378 10.4608 25.7095 12.7229 26.1111 14.9183C28.3111 14.9872 30.5817 13.6685 31.8991 11.9636ZM42.7733 33.5344C41.8928 35.4968 41.4692 36.3737 40.335 38.1119C38.7528 40.5382 36.5219 43.5595 33.7548 43.5817C31.2989 43.6084 30.6656 41.9723 27.3314 41.9923C23.9972 42.01 23.3021 43.6128 20.8417 43.5884C18.0768 43.5639 15.9629 40.8379 14.3807 38.4115C9.95428 31.632 9.48868 23.6736 12.2183 19.4403C14.1601 16.4345 17.2229 14.6763 20.1003 14.6763C23.0285 14.6763 24.871 16.2924 27.2961 16.2924C29.6483 16.2924 31.0804 14.6719 34.4676 14.6719C37.0316 14.6719 39.748 16.0771 41.681 18.5012C35.3436 21.9954 36.3697 31.0992 42.7733 33.5344Z" fill="#252525"/>
</svg>
