<svg width="45" height="45" viewBox="0 0 45 45" fill="none" xmlns="http://www.w3.org/2000/svg">
<g id="Group 427321726">
<g id="Group 427321523">
<path id="Vector" d="M23.4762 30.9303V31.1208H23.6667H30.6667H30.8571V30.9303V20.1842V20.0922L30.7851 20.035L22.6184 13.5507L22.5 13.4566L22.3816 13.5507L14.2149 20.035L14.1429 20.0922V20.1842V30.9303V31.1208H14.3333H21.3333H21.5238V30.9303V23.9742H23.4762V30.9303ZM12.1905 19.6029L12.1905 19.6028C12.1904 19.4497 12.2246 19.2987 12.2902 19.1614L12.1184 19.0792L12.2902 19.1614C12.3559 19.0242 12.4513 18.9045 12.5688 18.8111C12.5688 18.8111 12.5688 18.8111 12.5688 18.8111L21.9021 11.4001L21.9021 11.4001C22.0735 11.264 22.2839 11.1905 22.5 11.1905C22.7161 11.1905 22.9265 11.264 23.0979 11.4001L23.0979 11.4001L32.4312 18.8111C32.4312 18.8111 32.4312 18.8111 32.4312 18.8111C32.5487 18.9045 32.6441 19.0242 32.7098 19.1614C32.7754 19.2987 32.8096 19.4497 32.8095 19.6028V19.6029V32.1214C32.8095 32.388 32.7057 32.643 32.5222 32.8303C32.3388 33.0176 32.0909 33.122 31.8333 33.122H13.1667C12.9091 33.122 12.6612 33.0176 12.4778 32.8304C12.2943 32.643 12.1905 32.388 12.1905 32.1214L12.1905 19.6029Z" fill="#C08735" stroke="white" stroke-width="0.380952"/>
</g>
</g>
</svg>
