<svg width="37" height="26" viewBox="0 0 37 26" fill="none" xmlns="http://www.w3.org/2000/svg">
<g id="Group 427321469">
<g id="Layer 47">
<path id="Vector" d="M1.2907 3.53306H18.5C18.8423 3.53306 19.1706 3.39707 19.4127 3.15502C19.6547 2.91297 19.7907 2.58467 19.7907 2.24236C19.7907 1.90004 19.6547 1.57175 19.4127 1.3297C19.1706 1.08764 18.8423 0.95166 18.5 0.95166H1.2907C0.948383 0.95166 0.620089 1.08764 0.378036 1.3297C0.135984 1.57175 0 1.90004 0 2.24236C0 2.58467 0.135984 2.91297 0.378036 3.15502C0.620089 3.39707 0.948383 3.53306 1.2907 3.53306Z" fill="white"/>
<path id="Vector_2" d="M37 13.1359C37 12.7936 36.864 12.4653 36.622 12.2233C36.3799 11.9812 36.0516 11.8452 35.7093 11.8452H1.2907C0.948383 11.8452 0.620089 11.9812 0.378036 12.2233C0.135984 12.4653 0 12.7936 0 13.1359C0 13.4782 0.135984 13.8065 0.378036 14.0486C0.620089 14.2906 0.948383 14.4266 1.2907 14.4266H35.7093C36.0516 14.4266 36.3799 14.2906 36.622 14.0486C36.864 13.8065 37 13.4782 37 13.1359Z" fill="white"/>
<path id="Vector_3" d="M35.7094 22.7383H18.5C18.1577 22.7383 17.8294 22.8743 17.5874 23.1163C17.3453 23.3584 17.2094 23.6867 17.2094 24.029C17.2094 24.3713 17.3453 24.6996 17.5874 24.9416C17.8294 25.1837 18.1577 25.3197 18.5 25.3197H35.7094C36.0517 25.3197 36.38 25.1837 36.622 24.9416C36.8641 24.6996 37 24.3713 37 24.029C37 23.6867 36.8641 23.3584 36.622 23.1163C36.38 22.8743 36.0517 22.7383 35.7094 22.7383Z" fill="white"/>
</g>
</g>
</svg>
