<svg width="21" height="19" viewBox="0 0 21 19" fill="none" xmlns="http://www.w3.org/2000/svg">
<path id="Vector" d="M20.1 1.37906C20.1004 1.10414 19.8548 0.9 19.5765 0.9H1.4238C1.1451 0.9 0.9 1.10422 0.9 1.37918V17.6208C0.9 17.8955 1.14506 18.1 1.4238 18.1H8.36448C8.64322 18.1 8.88828 17.8955 8.88828 17.6208C8.88828 17.3462 8.64322 17.1416 8.36448 17.1416H1.9476V12.6701H5.3315C5.61024 12.6701 5.8553 12.4656 5.8553 12.1909C5.8553 11.9163 5.61024 11.7117 5.3315 11.7117H1.9476V1.85836H10.4403V6.60052C10.4403 6.87552 10.6857 7.0797 10.9641 7.0797C11.2424 7.0797 11.4879 6.87552 11.4879 6.60052V1.85836H19.0527V9.21142H8.0034C7.72471 9.21142 7.47961 9.41564 7.47961 9.6906C7.47961 9.96527 7.72466 10.1698 8.0034 10.1698H19.0527V17.1416H14.2693L11.7175 13.8179L11.7175 13.8179C11.5518 13.6023 11.2309 13.5525 10.9967 13.6956L10.9965 13.6958C10.7565 13.8432 10.6894 14.1458 10.86 14.369L10.8602 14.3692L13.5682 17.8963C13.6676 18.026 13.8289 18.0997 13.9968 18.0997H19.5762C19.8546 18.0997 20.1 17.8953 20.1 17.6206V1.37906ZM20.1 1.37906L20 1.37893H20.1V1.37906Z" fill="#C08735" stroke="#C08735" stroke-width="0.2"/>
</svg>
