<svg width="21" height="22" viewBox="0 0 21 22" fill="none" xmlns="http://www.w3.org/2000/svg">
<path d="M19.6708 12.6016H4.99601V3.60328C4.99601 2.58447 5.71865 1.75548 6.60689 1.75548C7.40531 1.75548 8.0682 2.42462 8.19537 3.29867C6.96492 3.48269 6.01429 4.60396 6.01429 5.95934C6.01429 6.16804 6.16189 6.33696 6.34376 6.33696H10.7556C10.9374 6.33696 11.085 6.16804 11.085 5.95934C11.085 4.58759 10.1118 3.4545 8.86024 3.29137C8.72516 2.00269 7.76706 1 6.60689 1C5.35535 1 4.33708 2.16784 4.33708 3.60303V12.6013H1.32947C1.1476 12.6013 1 12.7703 1 12.979C1 13.1876 1.1476 13.3566 1.32947 13.3566H2.74091L4.34696 20.714C4.38364 20.8819 4.51543 21 4.66655 21H16.3346C16.4857 21 16.6175 20.8822 16.6541 20.714L18.2602 13.3566H19.6705C19.8524 13.3566 20 13.1876 20 12.979C20 12.7703 19.8528 12.6016 19.6708 12.6016ZM10.3905 5.58198H6.70925C6.88013 4.69534 7.64055 4.02444 8.55032 4.02444C9.45965 4.0247 10.2198 4.69534 10.3905 5.58198ZM16.0776 20.245H4.92397L3.42028 13.3568H17.5813L16.0776 20.245Z" fill="#C08735" stroke="#C08735" stroke-width="0.228571"/>
</svg>
