<svg width="21" height="17" viewBox="0 0 21 17" fill="none" xmlns="http://www.w3.org/2000/svg">
<path d="M19.5682 7.68022V3.30556C19.5672 2.42917 19.2149 1.58897 18.5885 0.969279C17.9622 0.349584 17.113 0.000999865 16.2273 0H4.77273C3.88697 0.000999865 3.03779 0.349584 2.41146 0.969279C1.78514 1.58897 1.43283 2.42917 1.43182 3.30556V7.68022C0.990148 7.98407 0.629278 8.38907 0.379968 8.86071C0.130657 9.33235 0.000297124 9.85664 0 10.3889V16.0556C0 16.306 0.100568 16.5463 0.27958 16.7234C0.458592 16.9005 0.701384 17 0.954545 17H2.86364C3.1168 17 3.35959 16.9005 3.5386 16.7234C3.71761 16.5463 3.81818 16.306 3.81818 16.0556V14.6389H17.1818V16.0556C17.1818 16.306 17.2824 16.5463 17.4614 16.7234C17.6404 16.9005 17.8832 17 18.1364 17H20.0455C20.2986 17 20.5414 16.9005 20.7204 16.7234C20.8994 16.5463 21 16.306 21 16.0556V10.3889C20.9997 9.85664 20.8693 9.33235 20.62 8.86071C20.3707 8.38907 20.0099 7.98407 19.5682 7.68022ZM2.38636 3.30556C2.38712 2.67958 2.63878 2.07946 3.08615 1.63683C3.53352 1.19419 4.14006 0.945194 4.77273 0.944444H16.2273C16.8599 0.945194 17.4665 1.19419 17.9138 1.63683C18.3612 2.07946 18.6129 2.67958 18.6136 3.30556V7.225C18.3041 7.13202 17.9825 7.08429 17.6591 7.08333V6.13889C17.6591 5.63792 17.458 5.15748 17.0999 4.80324C16.7419 4.44901 16.2563 4.25 15.75 4.25H12.8864C12.38 4.25 11.8945 4.44901 11.5364 4.80324C11.1784 5.15748 10.9773 5.63792 10.9773 6.13889V7.08333H10.0227V6.13889C10.0227 5.63792 9.82159 5.15748 9.46357 4.80324C9.10554 4.44901 8.61996 4.25 8.11364 4.25H5.25C4.74368 4.25 4.25809 4.44901 3.90007 4.80324C3.54204 5.15748 3.34091 5.63792 3.34091 6.13889V7.08333C3.01745 7.08429 2.69587 7.13202 2.38636 7.225V3.30556ZM16.7045 7.08333H11.9318V6.13889C11.9318 5.88841 12.0324 5.64818 12.2114 5.47107C12.3904 5.29395 12.6332 5.19444 12.8864 5.19444H15.75C16.0032 5.19444 16.246 5.29395 16.425 5.47107C16.604 5.64818 16.7045 5.88841 16.7045 6.13889V7.08333ZM9.06818 7.08333H4.29545V6.13889C4.29545 5.88841 4.39602 5.64818 4.57503 5.47107C4.75405 5.29395 4.99684 5.19444 5.25 5.19444H8.11364C8.3668 5.19444 8.60959 5.29395 8.7886 5.47107C8.96761 5.64818 9.06818 5.88841 9.06818 6.13889V7.08333ZM0.954545 10.3889C0.955303 9.76291 1.20697 9.16279 1.65433 8.72016C2.1017 8.27753 2.70824 8.02853 3.34091 8.02778H17.6591C18.2918 8.02853 18.8983 8.27753 19.3457 8.72016C19.793 9.16279 20.0447 9.76291 20.0455 10.3889V10.8611H0.954545V10.3889ZM2.86364 16.0556H0.954545V14.6389H2.86364V16.0556ZM0.954545 13.6944V11.8056H20.0455V13.6944H0.954545ZM20.0455 16.0556H18.1364V14.6389H20.0455V16.0556Z" fill="#C08735"/>
</svg>
