<svg width="22" height="22" viewBox="0 0 22 22" fill="none" xmlns="http://www.w3.org/2000/svg">
<path d="M20.85 20V20.15H21H21.85V21.85H0.15V20.15H1H1.15V20V9C1.15 8.24413 1.45027 7.51922 1.98475 6.98475C2.51922 6.45027 3.24413 6.15 4 6.15H5H5.15V6V3C5.15 2.24413 5.45027 1.51922 5.98475 0.984746C6.51922 0.450267 7.24413 0.15 8 0.15H14C14.7559 0.15 15.4808 0.450267 16.0153 0.984746C16.5497 1.51922 16.85 2.24413 16.85 3V6V6.15H17H18C18.7559 6.15 19.4808 6.45027 20.0153 6.98475C20.5497 7.51922 20.85 8.24413 20.85 9V20ZM5.15 8V7.85H5H4C3.695 7.85 3.40249 7.97116 3.18683 8.18683C2.97116 8.40249 2.85 8.695 2.85 9V20V20.15H3H5H5.15V20V8ZM15 20.15H15.15V20V3C15.15 2.695 15.0288 2.40249 14.8132 2.18683C14.5975 1.97116 14.305 1.85 14 1.85H8C7.695 1.85 7.40249 1.97116 7.18683 2.18683C6.97116 2.40249 6.85 2.695 6.85 3V7V20V20.15H7H8H8.15V20V15C8.15 14.7746 8.23955 14.5584 8.39896 14.399C8.55837 14.2396 8.77457 14.15 9 14.15H13C13.2254 14.15 13.4416 14.2396 13.601 14.399C13.7604 14.5584 13.85 14.7746 13.85 15V20V20.15H14H15ZM9.85 20V20.15H10H12H12.15V20V16V15.85H12H10H9.85V16V20ZM16.85 20V20.15H17H19H19.15V20V9C19.15 8.695 19.0288 8.40249 18.8132 8.18683C18.5975 7.97116 18.305 7.85 18 7.85H17H16.85V8V20ZM9.85 4.85H8.15V3.15H9.85V4.85ZM13.85 4.85H12.15V3.15H13.85V4.85ZM9.85 8.85H8.15V7.15H9.85V8.85ZM13.85 8.85H12.15V7.15H13.85V8.85ZM9.85 12.85H8.15V11.15H9.85V12.85ZM13.85 12.85H12.15V11.15H13.85V12.85Z" fill="#C08735" stroke="#FAF3E0" stroke-width="0.3"/>
</svg>
