<svg width="20" height="20" viewBox="0 0 20 20" fill="none" xmlns="http://www.w3.org/2000/svg">
<g id="chevron-right">
<path id="Vector" d="M7.78901 15.8334C7.56973 15.8334 7.35538 15.765 7.17307 15.637C6.99076 15.5089 6.84867 15.327 6.76476 15.1141C6.68085 14.9012 6.65889 14.6669 6.70166 14.4409C6.74443 14.2149 6.85 14.0073 7.00503 13.8444L10.6566 10.0072L7.00503 6.17012C6.89912 6.06263 6.81465 5.93406 6.75653 5.79189C6.69842 5.64973 6.66783 5.49683 6.66655 5.34211C6.66527 5.18739 6.69332 5.03395 6.74908 4.89075C6.80483 4.74755 6.88717 4.61744 6.99129 4.50804C7.0954 4.39863 7.21921 4.31211 7.35549 4.25352C7.49177 4.19493 7.63778 4.16545 7.78502 4.16679C7.93226 4.16814 8.07776 4.20028 8.21305 4.26135C8.34834 4.32242 8.4707 4.41119 8.57299 4.52248L13.0085 9.18342C13.2164 9.40193 13.3332 9.69826 13.3332 10.0072C13.3332 10.3162 13.2164 10.6125 13.0085 10.8311L8.57299 15.492C8.36508 15.7105 8.08308 15.8333 7.78901 15.8334Z" fill="#6B7280"/>
</g>
</svg>
