<svg width="20" height="20" viewBox="0 0 20 20" fill="none" xmlns="http://www.w3.org/2000/svg">
<g id="chevron-left">
<path id="Vector" d="M12.2107 15.8334C11.9166 15.8333 11.6346 15.7105 11.4267 15.492L6.99117 10.8311C6.78329 10.6125 6.6665 10.3162 6.6665 10.0072C6.6665 9.69826 6.78329 9.40193 6.99117 9.18342L11.4267 4.52248C11.529 4.41119 11.6513 4.32242 11.7866 4.26135C11.9219 4.20028 12.0674 4.16814 12.2147 4.16679C12.3619 4.16545 12.5079 4.19493 12.6442 4.25352C12.7805 4.31211 12.9043 4.39863 13.0084 4.50804C13.1125 4.61744 13.1948 4.74755 13.2506 4.89075C13.3064 5.03395 13.3344 5.18739 13.3331 5.34211C13.3318 5.49683 13.3013 5.64973 13.2431 5.79189C13.185 5.93406 13.1006 6.06263 12.9946 6.17012L9.3431 10.0072L12.9946 13.8444C13.1497 14.0073 13.2552 14.2149 13.298 14.4409C13.3408 14.6669 13.3188 14.9012 13.2349 15.1141C13.151 15.327 13.0089 15.5089 12.8266 15.637C12.6443 15.765 12.4299 15.8334 12.2107 15.8334Z" fill="#6B7280"/>
</g>
</svg>
