<svg width="28" height="28" viewBox="0 0 28 28" fill="none" xmlns="http://www.w3.org/2000/svg">
<g id="Group 427321719">
<path id="Vector" fill-rule="evenodd" clip-rule="evenodd" d="M24.4 1.0003H3.6C2.92075 0.989883 2.2652 1.24975 1.77759 1.72275C1.28997 2.19573 1.01027 2.84307 1 3.5223V18.6432C1.01027 19.3224 1.28997 19.9698 1.77759 20.4428C2.2652 20.9156 2.92075 21.1756 3.6 21.1652H10.7871C11.1922 21.163 11.5922 21.2533 11.9571 21.4289L22.4519 27.0004L22.3571 18.6432H25.0129C26.0911 18.6598 26.9798 17.801 27 16.7229V3.5223C26.9898 2.84307 26.7101 2.19573 26.2224 1.72275C25.7347 1.24975 25.0792 0.989883 24.4 1.0003Z" stroke="#C08735" stroke-width="2" stroke-linecap="round" stroke-linejoin="round"/>
<path id="Vector_2" d="M6.57157 7.03613C5.80232 7.03613 5.17871 7.65974 5.17871 8.42899C5.17871 9.19826 5.80232 9.82185 6.57157 9.82185V7.03613ZM21.4287 9.82185C22.1979 9.82185 22.8216 9.19826 22.8216 8.42899C22.8216 7.65974 22.1979 7.03613 21.4287 7.03613V9.82185ZM6.57157 12.6075C5.80232 12.6075 5.17871 13.2311 5.17871 14.0003C5.17871 14.7698 5.80232 15.3932 6.57157 15.3932V12.6075ZM17.7144 15.3932C18.4837 15.3932 19.1073 14.7698 19.1073 14.0003C19.1073 13.2311 18.4837 12.6075 17.7144 12.6075V15.3932ZM6.57157 9.82185H21.4287V7.03613H6.57157V9.82185ZM6.57157 15.3932H17.7144V12.6075H6.57157V15.3932Z" fill="#C08735"/>
</g>
</svg>
