<svg width="30" height="30" viewBox="0 0 30 30" fill="none" xmlns="http://www.w3.org/2000/svg">
<path d="M25.7091 24.8182V25.0182H25.9091H26.8V26.8H3.2V25.0182H4.09091H4.29091V24.8182V12.8182C4.29091 12.0032 4.61464 11.2217 5.19089 10.6454C5.76714 10.0692 6.5487 9.74545 7.36364 9.74545H8.45455H8.65455V9.54545V6.27273C8.65455 5.45779 8.97828 4.67623 9.55453 4.09998C10.1308 3.52373 10.9123 3.2 11.7273 3.2H18.2727C19.0877 3.2 19.8692 3.52373 20.4455 4.09998L20.5869 3.95856L20.4455 4.09998C21.0217 4.67623 21.3455 5.45779 21.3455 6.27273V9.54545V9.74545H21.5455H22.6364C23.4513 9.74545 24.2329 10.0692 24.8091 10.6454C25.3854 11.2217 25.7091 12.0032 25.7091 12.8182V24.8182ZM8.65455 11.7273V11.5273H8.45455H7.36364C7.02127 11.5273 6.69292 11.6633 6.45083 11.9054C6.20873 12.1475 6.07273 12.4758 6.07273 12.8182V24.8182V25.0182H6.27273H8.45455H8.65455V24.8182V11.7273ZM19.3636 25.0182H19.5636V24.8182V6.27273C19.5636 5.93036 19.4276 5.60201 19.1855 5.35992C18.9434 5.11782 18.6151 4.98182 18.2727 4.98182H11.7273C11.3849 4.98182 11.0566 5.11782 10.8145 5.35992C10.5724 5.60201 10.4364 5.93036 10.4364 6.27273V10.6364V24.8182V25.0182H10.6364H11.7273H11.9273V24.8182V19.3636C11.9273 19.1274 12.0211 18.9007 12.1882 18.7337C12.3553 18.5666 12.5819 18.4727 12.8182 18.4727H17.1818C17.4181 18.4727 17.6447 18.5666 17.8118 18.7337C17.9789 18.9007 18.0727 19.1274 18.0727 19.3636V24.8182V25.0182H18.2727H19.3636ZM13.7091 24.8182V25.0182H13.9091H16.0909H16.2909V24.8182V20.4545V20.2545H16.0909H13.9091H13.7091V20.4545V24.8182ZM21.3455 24.8182V25.0182H21.5455H23.7273H23.9273V24.8182V12.8182C23.9273 12.4758 23.7913 12.1475 23.5492 11.9054C23.3071 11.6633 22.9787 11.5273 22.6364 11.5273H21.5455H21.3455V11.7273V24.8182ZM13.7091 8.25455H11.9273V6.47273H13.7091V8.25455ZM18.0727 8.25455H16.2909V6.47273H18.0727V8.25455ZM13.7091 12.6182H11.9273V10.8364H13.7091V12.6182ZM18.0727 12.6182H16.2909V10.8364H18.0727V12.6182ZM13.7091 16.9818H11.9273V15.2H13.7091V16.9818ZM18.0727 16.9818H16.2909V15.2H18.0727V16.9818Z" fill="#C08735" stroke="#FAF3E0" stroke-width="0.4"/>
</svg>
