<svg width="30" height="30" viewBox="0 0 30 30" fill="none" xmlns="http://www.w3.org/2000/svg">
<g id="Group 427321717">
<path id="Vector" d="M8.99951 15C8.17109 15 7.49951 15.6716 7.49951 16.5C7.49951 17.3284 8.17109 18 8.99951 18H20.9995C21.828 18 22.4995 17.3284 22.4995 16.5C22.4995 15.6716 21.828 15 20.9995 15H8.99951Z" fill="#C08735"/>
<path id="Vector_2" d="M7.49951 22.5C7.49951 21.6716 8.17109 21 8.99951 21H14.9995C15.828 21 16.4995 21.6716 16.4995 22.5C16.4995 23.3284 15.828 24 14.9995 24H8.99951C8.17109 24 7.49951 23.3284 7.49951 22.5Z" fill="#C08735"/>
<path id="Vector_3" fill-rule="evenodd" clip-rule="evenodd" d="M9 1.5C9 0.67158 8.32842 0 7.5 0C6.67158 0 6 0.67158 6 1.5V3.15003C2.57664 3.84493 0 6.87156 0 10.5V22.5C0 26.6421 3.35787 30 7.5 30H22.5C26.6421 30 30 26.6421 30 22.5V10.5C30 6.87156 27.4233 3.84493 24 3.15003V1.5C24 0.67158 23.3284 0 22.5 0C21.6716 0 21 0.67158 21 1.5V3H9V1.5ZM27 12H3V22.5C3 24.9853 5.01473 27 7.5 27H22.5C24.9853 27 27 24.9853 27 22.5V12ZM3.25607 9C3.87381 7.25221 5.54067 6 7.5 6H22.5C24.4593 6 26.1262 7.25221 26.7439 9H3.25607Z" fill="#C08735"/>
</g>
</svg>
