<svg width="45" height="45" viewBox="0 0 45 45" fill="none" xmlns="http://www.w3.org/2000/svg">
<g id="Double Bed">
<g id="Group 427321724">
<path id="Vector" d="M23.9167 21.4873V16.0833C23.9154 15.0007 23.4848 13.9629 22.7193 13.1973C21.9538 12.4318 20.9159 12.0012 19.8333 12H5.83333C4.75074 12.0012 3.71285 12.4318 2.94734 13.1973C2.18184 13.9629 1.75124 15.0007 1.75 16.0833V21.4873C1.21018 21.8627 0.769118 22.363 0.464405 22.9456C0.159691 23.5282 0.000363151 24.1758 0 24.8333V31.8333C0 32.1428 0.122916 32.4395 0.341709 32.6583C0.560501 32.8771 0.857247 33 1.16667 33H3.5C3.80942 33 4.10616 32.8771 4.32496 32.6583C4.54375 32.4395 4.66667 32.1428 4.66667 31.8333V30.0833H21V31.8333C21 32.1428 21.1229 32.4395 21.3417 32.6583C21.5605 32.8771 21.8572 33 22.1667 33H24.5C24.8094 33 25.1062 32.8771 25.325 32.6583C25.5438 32.4395 25.6667 32.1428 25.6667 31.8333V24.8333C25.6663 24.1758 25.507 23.5282 25.2023 22.9456C24.8975 22.363 24.4565 21.8627 23.9167 21.4873ZM2.91667 16.0833C2.91759 15.3101 3.22518 14.5687 3.77196 14.022C4.31874 13.4752 5.06007 13.1676 5.83333 13.1667H19.8333C20.6066 13.1676 21.3479 13.4752 21.8947 14.022C22.4415 14.5687 22.7491 15.3101 22.75 16.0833V20.925C22.3717 20.8101 21.9787 20.7512 21.5833 20.75V19.5833C21.5833 18.9645 21.3375 18.371 20.8999 17.9334C20.4623 17.4958 19.8688 17.25 19.25 17.25H15.75C15.1312 17.25 14.5377 17.4958 14.1001 17.9334C13.6625 18.371 13.4167 18.9645 13.4167 19.5833V20.75H12.25V19.5833C12.25 18.9645 12.0042 18.371 11.5666 17.9334C11.129 17.4958 10.5355 17.25 9.91667 17.25H6.41667C5.79783 17.25 5.20434 17.4958 4.76675 17.9334C4.32917 18.371 4.08333 18.9645 4.08333 19.5833V20.75C3.688 20.7512 3.29495 20.8101 2.91667 20.925V16.0833ZM20.4167 20.75H14.5833V19.5833C14.5833 19.2739 14.7062 18.9772 14.925 18.7584C15.1438 18.5396 15.4406 18.4167 15.75 18.4167H19.25C19.5594 18.4167 19.8562 18.5396 20.075 18.7584C20.2938 18.9772 20.4167 19.2739 20.4167 19.5833V20.75ZM11.0833 20.75H5.25V19.5833C5.25 19.2739 5.37292 18.9772 5.59171 18.7584C5.8105 18.5396 6.10725 18.4167 6.41667 18.4167H9.91667C10.2261 18.4167 10.5228 18.5396 10.7416 18.7584C10.9604 18.9772 11.0833 19.2739 11.0833 19.5833V20.75ZM1.16667 24.8333C1.16759 24.0601 1.47518 23.3187 2.02196 22.772C2.56874 22.2252 3.31007 21.9176 4.08333 21.9167H21.5833C22.3566 21.9176 23.0979 22.2252 23.6447 22.772C24.1915 23.3187 24.4991 24.0601 24.5 24.8333V25.4167H1.16667V24.8333ZM3.5 31.8333H1.16667V30.0833H3.5V31.8333ZM1.16667 28.9167V26.5833H24.5V28.9167H1.16667ZM24.5 31.8333H22.1667V30.0833H24.5V31.8333Z" fill="#C08735"/>
</g>
</g>
</svg>
