<svg width="52" height="52" viewBox="0 0 52 52" fill="none" xmlns="http://www.w3.org/2000/svg">
<g id="3425613661595156102 1">
<path id="Vector" d="M4.875 16.25L26 29.25L47.125 16.25" stroke="#C08735" stroke-width="3" stroke-miterlimit="10" stroke-linecap="round" stroke-linejoin="round"/>
<path id="Vector_2" d="M11.375 20.3125V4.875C11.375 3.0875 12.8375 1.625 14.625 1.625H37.375C39.1625 1.625 40.625 3.0875 40.625 4.875V20.3125" stroke="#C08735" stroke-width="3" stroke-miterlimit="10" stroke-linecap="round" stroke-linejoin="round"/>
<path id="Vector_3" d="M40.625 8.125C44.2 8.125 47.125 11.05 47.125 14.625V37.375C47.125 40.95 44.2 43.875 40.625 43.875H11.375C7.8 43.875 4.875 40.95 4.875 37.375V14.625C4.875 11.05 7.8 8.125 11.375 8.125" stroke="#C08735" stroke-width="3" stroke-miterlimit="10" stroke-linecap="round" stroke-linejoin="round"/>
<path id="Vector_4" d="M17.875 8.125H29.25" stroke="#C08735" stroke-width="3" stroke-miterlimit="10" stroke-linecap="round" stroke-linejoin="round"/>
<path id="Vector_5" d="M17.875 14.625H22.75" stroke="#C08735" stroke-width="3" stroke-miterlimit="10" stroke-linecap="round" stroke-linejoin="round"/>
</g>
</svg>
