<svg width="16" height="17" viewBox="0 0 16 17" fill="none" xmlns="http://www.w3.org/2000/svg">
<path d="M8.69841 15.185V15.3755H8.88889H14.2222H14.4127V15.185V6.99749V6.90551L14.3407 6.84831L8.11844 1.90786L8 1.81382L7.88156 1.90786L1.65933 6.84831L1.5873 6.90551V6.99749V15.185V15.3755H1.77778H7.11111H7.30159V15.185V9.93044H8.69841V15.185ZM0.190476 6.55463L0.190476 6.5545C0.190402 6.44459 0.214939 6.33626 0.26205 6.23782C0.309152 6.1394 0.377489 6.05364 0.461558 5.98687C0.461562 5.98686 0.461567 5.98686 0.461572 5.98686L7.57267 0.340375L7.57268 0.340364C7.69532 0.242964 7.8457 0.190476 8 0.190476C8.1543 0.190476 8.30468 0.242964 8.42732 0.340364L8.42733 0.340375L15.5384 5.98686C15.5384 5.98686 15.5384 5.98686 15.5384 5.98687C15.6225 6.05364 15.6908 6.1394 15.738 6.23782C15.7851 6.33626 15.8096 6.44459 15.8095 6.5545V6.55463V16.0925C15.8095 16.2839 15.735 16.4667 15.6036 16.6009C15.4723 16.735 15.2951 16.8095 15.1111 16.8095H0.888889C0.704947 16.8095 0.527721 16.735 0.396425 16.6009C0.264998 16.4667 0.190476 16.2839 0.190476 16.0925L0.190476 6.55463Z" fill="#C08735" stroke="white" stroke-width="0.380952"/>
</svg>
