<svg width="20" height="20" viewBox="0 0 31 29" fill="none" xmlns="http://www.w3.org/2000/svg">
<path d="M30.2782 16.9095C29.8345 14.6913 28.2818 13.0277 26.2855 12.1404V11.1422C26.2855 10.255 26.1745 9.36769 25.9527 8.48042C24.5109 2.60224 18.5218 -1.05776 12.6436 0.273149C7.54182 1.60406 3.99273 6.15133 4.10364 11.3641V12.1404C2.10727 13.0277 0.554546 14.6913 0.110909 16.9095C1.57004e-07 17.3531 0 17.7968 0 18.2404C0 20.015 0.665454 21.6786 1.99636 22.8986C3.10545 24.2295 4.76909 24.895 6.54364 24.895H7.54182C7.98545 26.7804 9.76 28.2222 11.8673 28.2222C12.5327 28.2222 12.9764 27.7786 12.9764 27.1131C12.9764 26.4477 12.5327 26.0041 11.8673 26.0041C10.6473 26.0041 9.64909 25.0059 9.64909 23.7859V12.695C9.64909 12.0295 9.20545 11.5859 8.54 11.5859H6.76545H6.65455C6.54364 11.5859 6.43273 11.5859 6.32182 11.5859V11.3641C6.21091 7.14951 9.09455 3.48951 13.0873 2.49133C17.8564 1.38224 22.6255 4.26588 23.7345 9.03497C23.8455 9.70042 23.9564 10.4768 23.9564 11.1422V11.5859C23.8455 11.5859 23.6236 11.5859 23.5127 11.5859H21.8491C21.1836 11.5859 20.74 12.0295 20.74 12.695V23.7859C20.74 24.4513 21.1836 24.895 21.8491 24.895H23.8455C27.5055 24.895 30.5 21.9004 30.5 18.2404C30.5 17.7968 30.3891 17.3531 30.2782 16.9095ZM5.21273 22.455C4.54727 22.2331 3.99273 21.9004 3.43818 21.3459C2.55091 20.4586 2.10727 19.3495 2.10727 18.2404C2.10727 17.9077 2.10727 17.6859 2.21818 17.3532C2.55091 15.8004 3.77091 14.5804 5.21273 14.0259V22.455ZM6.76545 13.8041H7.43091V22.6768H6.65455C6.54364 22.6768 6.43273 22.6768 6.43273 22.6768V13.8041H6.76545ZM24.0673 22.6768V13.8041C26.0636 14.0259 27.7273 15.3568 28.1709 17.3532C28.2818 17.6859 28.2818 17.9077 28.2818 18.2404C28.2818 20.5695 26.3964 22.455 24.0673 22.6768Z" fill="#C08735"/>
</svg>
