<svg width="230" height="33" viewBox="0 0 230 33" fill="none" xmlns="http://www.w3.org/2000/svg">
<path d="M229.924 22.4029H216.847C217.119 24.4748 218.919 25.9693 221.84 25.9693C223.368 25.9693 225.372 25.3919 226.323 24.4069L228.973 27.0222C227.206 28.8563 224.319 29.7394 221.772 29.7394C215.998 29.7394 212.567 26.1731 212.567 20.8065C212.567 15.7117 216.032 12.0435 221.466 12.0435C227.071 12.0435 230.569 15.5079 229.924 22.4029ZM216.915 18.9724H225.95C225.678 16.7986 223.98 15.7117 221.602 15.7117C219.36 15.7117 217.526 16.7986 216.915 18.9724Z" fill="#C08735"/>
<path d="M201.445 8.27334L205.589 7.83179V12.5869H210.208V16.1533H205.555V23.3879C205.555 24.9843 206.438 25.7655 207.729 25.7655C208.374 25.7655 209.121 25.5617 209.733 25.256L210.888 28.7884C209.699 29.264 208.714 29.4677 207.457 29.5017C203.823 29.6376 201.445 27.5657 201.445 23.3879V16.1533H198.32V12.5869H201.445V8.27334Z" fill="#C08735"/>
<path d="M192.855 14.8628L192.991 12.5531H196.965V29.2981H193.059L192.855 26.8526C191.904 28.8226 189.289 29.7736 187.421 29.8076C182.462 29.8415 178.793 26.7846 178.793 20.9086C178.793 15.1345 182.632 12.1116 187.523 12.1455C189.764 12.1455 191.904 13.1985 192.855 14.8628ZM187.896 15.8478C185.145 15.8478 182.937 17.7159 182.937 20.9086C182.937 24.1014 185.145 26.0034 187.896 26.0034C194.418 26.0034 194.418 15.8478 187.896 15.8478Z" fill="#C08735"/>
<path d="M167.846 8.27334L171.99 7.83179V12.5869H176.61V16.1533H171.956V23.3879C171.956 24.9843 172.839 25.7655 174.13 25.7655C174.775 25.7655 175.523 25.5617 176.134 25.256L177.289 28.7884C176.1 29.264 175.115 29.4677 173.858 29.5017C170.224 29.6376 167.846 27.5657 167.846 23.3879V16.1533H164.722V12.5869H167.846V8.27334Z" fill="#C08735"/>
<path d="M162.707 14.2849L160.397 17.0021C159.208 15.8813 157.849 15.5077 156.253 15.5077C154.283 15.5077 153.196 16.119 153.196 17.172C153.196 18.2588 154.181 18.8702 156.321 19.0061C159.48 19.2099 163.488 19.9232 163.488 24.3726C163.488 27.3276 161.076 29.875 156.287 29.875C153.638 29.875 150.988 29.4335 148.543 26.8861L150.581 23.9311C151.77 25.2557 154.487 26.2407 156.355 26.2747C157.917 26.3086 159.378 25.4935 159.378 24.2707C159.378 23.1159 158.427 22.6404 156.049 22.5045C152.891 22.2668 149.12 21.1119 149.12 17.3078C149.12 13.4358 153.128 12.0771 156.185 12.0771C158.801 12.0771 160.771 12.5866 162.707 14.2849Z" fill="#C08735"/>
<path d="M117.319 12.4849V29.2978H113.175V12.4849H117.319ZM112.801 7.83166C112.801 11.0584 117.692 11.0584 117.692 7.83166C117.692 4.60494 112.801 4.60494 112.801 7.83166Z" fill="white"/>
<path d="M109.739 14.2849L107.43 17.0021C106.241 15.8813 104.882 15.5077 103.286 15.5077C101.316 15.5077 100.229 16.119 100.229 17.172C100.229 18.2588 101.214 18.8702 103.354 19.0061C106.513 19.2099 110.52 19.9232 110.52 24.3726C110.52 27.3276 108.109 29.875 103.32 29.875C100.67 29.875 98.0212 29.4335 95.5757 26.8861L97.6136 23.9311C98.8024 25.2557 101.52 26.2407 103.388 26.2747C104.95 26.3086 106.411 25.4935 106.411 24.2707C106.411 23.1159 105.46 22.6404 103.082 22.5045C99.9233 22.2668 96.1531 21.1119 96.1531 17.3078C96.1531 13.4358 100.161 12.0771 103.218 12.0771C105.833 12.0771 107.803 12.5866 109.739 14.2849Z" fill="white"/>
<path d="M88.7632 5.55615H92.873V29.298H88.7632V5.55615Z" fill="white"/>
<path d="M81.1413 14.8628L81.2771 12.5531H85.2511V29.2981H81.3451L81.1413 26.8526C80.1902 28.8226 77.5749 29.7736 75.7068 29.8076C70.7479 29.8415 67.0796 26.7846 67.0796 20.9086C67.0796 15.1345 70.9177 12.1116 75.8087 12.1455C78.0504 12.1455 80.1902 13.1985 81.1413 14.8628ZM76.1823 15.8478C73.4311 15.8478 71.2234 17.7159 71.2234 20.9086C71.2234 24.1014 73.4311 26.0034 76.1823 26.0034C82.7037 26.0034 82.7037 15.8478 76.1823 15.8478Z" fill="white"/>
<path d="M65.798 5.52271V5.65857L55.2348 17.037L66.6811 29.0268V29.2985H61.1448L51.1929 18.7692V29.2985H46.7095V5.52271H51.1929V15.5765L60.2277 5.52271H65.798Z" fill="white"/>
<path fill-rule="evenodd" clip-rule="evenodd" d="M129.628 29.2976H146.942L144.111 25.0924H129.628V29.2976ZM129.628 19.9814H142.736V16.0026H129.628V19.9814ZM129.628 10.7946H144.111L146.942 6.65405H129.628V10.7946Z" fill="#C08735"/>
<path fill-rule="evenodd" clip-rule="evenodd" d="M0 0.692871H32.1626V32.3034C30.184 31.6452 27.9378 31.1028 25.4951 30.7036L25.489 8.31004C25.489 8.21267 25.4547 8.13153 25.3861 8.06662L17.8497 3.64718C17.8334 3.63183 17.8133 3.62176 17.7917 3.61819C17.7701 3.61462 17.748 3.61769 17.7281 3.62704C17.7081 3.63639 17.6911 3.65162 17.6792 3.6709C17.6673 3.69017 17.6608 3.71267 17.6607 3.7357V21.7095L19.4521 22.74V30.0439C18.1941 29.9699 16.9057 29.9316 15.594 29.9316C14.4875 29.9316 13.3975 29.9589 12.3284 30.0118V18.6422L15.2411 20.3177L15.2379 9.63987C15.2376 9.62327 15.2329 9.60702 15.2242 9.59309C15.2156 9.57916 15.2035 9.56814 15.1893 9.56135C15.1751 9.55457 15.1594 9.55232 15.1442 9.55486C15.129 9.5574 15.1148 9.56464 15.1035 9.57569L7.49356 15.3363C7.46774 15.3614 7.44713 15.3918 7.43303 15.4257C7.41894 15.4596 7.41167 15.4962 7.41168 15.5332L7.41365 30.4506C4.70734 30.8055 2.20704 31.3314 0 31.9951V0.692871Z" fill="#C08735"/>
</svg>
