<svg width="36" height="51" viewBox="0 0 36 51" fill="none" xmlns="http://www.w3.org/2000/svg">
<g id="8240160651551939479 1" clip-path="url(#clip0_2703_510)">
<g id="Icons">
<g id="Outlined">
<g id="Communication">
<g id="Outlined-/-Communication-/-location_on">
<g id="Group">
<path id="&#240;&#159;&#148;&#185;-Icon-Color" fill-rule="evenodd" clip-rule="evenodd" d="M18 0C8.04857 0 0 7.9815 0 17.85C0 31.2375 18 51 18 51C18 51 36 31.2375 36 17.85C36 7.9815 27.9514 0 18 0ZM5.14286 17.85C5.14286 10.812 10.9029 5.1 18 5.1C25.0971 5.1 30.8571 10.812 30.8571 17.85C30.8571 25.194 23.4514 36.1845 18 43.044C12.6514 36.2355 5.14286 25.1175 5.14286 17.85Z" fill="#C08735"/>
<path id="&#240;&#159;&#148;&#185;-Icon-Color_2" d="M17.9969 24.2251C21.5473 24.2251 24.4255 21.3709 24.4255 17.8501C24.4255 14.3293 21.5473 11.4751 17.9969 11.4751C14.4465 11.4751 11.5684 14.3293 11.5684 17.8501C11.5684 21.3709 14.4465 24.2251 17.9969 24.2251Z" fill="#C08735"/>
<path id="&#240;&#159;&#148;&#185;-Icon-Color_3" d="M17.9969 24.2249C21.5473 24.2249 24.4255 21.3707 24.4255 17.8499C24.4255 14.329 21.5473 11.4749 17.9969 11.4749C14.4465 11.4749 11.5684 14.329 11.5684 17.8499C11.5684 21.3707 14.4465 24.2249 17.9969 24.2249Z" fill="#C08735"/>
</g>
</g>
</g>
</g>
</g>
</g>
<defs>
<clipPath id="clip0_2703_510">
<rect width="36" height="51" fill="white"/>
</clipPath>
</defs>
</svg>
