<svg width="30" height="30" viewBox="0 0 30 30" fill="none" xmlns="http://www.w3.org/2000/svg">
<g id="17018819521586787806 1">
<g id="Layer_1">
<path id="Vector" d="M4.80005 12.0001C4.80005 19.7887 14.1858 28.8517 14.5854 29.2339L15 29.6299L15.4146 29.2333C15.8142 28.8517 25.2 19.7887 25.2 12.0001C25.2 6.7411 22.5288 0.600098 15 0.600098C7.47125 0.600098 4.80005 6.7411 4.80005 12.0001ZM24 12.0001C24 18.3853 16.8204 26.1001 15 27.9529C13.1796 26.1001 6.00005 18.3853 6.00005 12.0001C6.00005 4.4797 10.6494 1.8001 15 1.8001C19.3506 1.8001 24 4.4797 24 12.0001Z" fill="#C08735" stroke="#C08735" stroke-width="0.5"/>
<path id="Vector_2" d="M10.3953 11.129C10.3953 13.6683 12.4608 15.7338 15.0001 15.7338C17.5394 15.7338 19.6049 13.6683 19.6049 11.129C19.6049 8.58968 17.5394 6.52417 15.0001 6.52417C12.4608 6.52417 10.3953 8.58968 10.3953 11.129ZM18.234 11.129C18.234 12.9119 16.783 14.3629 15.0001 14.3629C13.2173 14.3629 11.7662 12.9119 11.7662 11.129C11.7662 9.34616 13.2173 7.89514 15.0001 7.89514C16.783 7.89514 18.234 9.34616 18.234 11.129Z" fill="#C08735" stroke="#C08735" stroke-width="0.5"/>
</g>
</g>
</svg>
