<svg width="37" height="25" viewBox="0 0 37 25" fill="none" xmlns="http://www.w3.org/2000/svg">
<path d="M1.2907 2.5814H18.5C18.8423 2.5814 19.1706 2.44541 19.4127 2.20336C19.6547 1.96131 19.7907 1.63301 19.7907 1.2907C19.7907 0.948383 19.6547 0.62009 19.4127 0.378037C19.1706 0.135984 18.8423 0 18.5 0H1.2907C0.948383 0 0.620089 0.135984 0.378036 0.378037C0.135984 0.62009 0 0.948383 0 1.2907C0 1.63301 0.135984 1.96131 0.378036 2.20336C0.620089 2.44541 0.948383 2.5814 1.2907 2.5814Z" fill="white"/>
<path d="M37 12.1843C37 11.8419 36.864 11.5136 36.622 11.2716C36.3799 11.0295 36.0516 10.8936 35.7093 10.8936H1.2907C0.948383 10.8936 0.620089 11.0295 0.378036 11.2716C0.135984 11.5136 0 11.8419 0 12.1843C0 12.5266 0.135984 12.8549 0.378036 13.0969C0.620089 13.339 0.948383 13.475 1.2907 13.475H35.7093C36.0516 13.475 36.3799 13.339 36.622 13.0969C36.864 12.8549 37 12.5266 37 12.1843Z" fill="white"/>
<path d="M35.709 21.7866H18.4997C18.1574 21.7866 17.8291 21.9226 17.587 22.1647C17.345 22.4067 17.209 22.735 17.209 23.0773C17.209 23.4196 17.345 23.7479 17.587 23.99C17.8291 24.232 18.1574 24.368 18.4997 24.368H35.709C36.0513 24.368 36.3796 24.232 36.6216 23.99C36.8637 23.7479 36.9997 23.4196 36.9997 23.0773C36.9997 22.735 36.8637 22.4067 36.6216 22.1647C36.3796 21.9226 36.0513 21.7866 35.709 21.7866Z" fill="white"/>
</svg>
