<svg width="170" height="24" viewBox="0 0 170 24" fill="none" xmlns="http://www.w3.org/2000/svg">
<path d="M169.943 16.0461H160.278C160.479 17.5775 161.809 18.6822 163.968 18.6822C165.098 18.6822 166.579 18.2554 167.282 17.5273L169.24 19.4604C167.935 20.8161 165.801 21.4688 163.918 21.4688C159.65 21.4688 157.115 18.8328 157.115 14.8662C157.115 11.1005 159.675 8.38916 163.692 8.38916C167.835 8.38916 170.42 10.9499 169.943 16.0461ZM160.328 13.5106H167.006C166.805 11.9038 165.55 11.1005 163.793 11.1005C162.136 11.1005 160.78 11.9038 160.328 13.5106Z" fill="#C08735"/>
<path d="M148.894 5.60273L151.957 5.27637V8.79105H155.371V11.4271H151.932V16.7744C151.932 17.9543 152.585 18.5317 153.539 18.5317C154.016 18.5317 154.568 18.3811 155.02 18.1552L155.873 20.7661C154.995 21.1175 154.267 21.2682 153.338 21.2933C150.651 21.3937 148.894 19.8623 148.894 16.7744V11.4271H146.584V8.79105H148.894V5.60273Z" fill="#C08735"/>
<path d="M142.545 10.4734L142.645 8.76631H145.582V21.143H142.695L142.545 19.3355C141.842 20.7915 139.909 21.4945 138.528 21.5196C134.863 21.5447 132.151 19.2852 132.151 14.9421C132.151 10.6743 134.988 8.43995 138.603 8.46505C140.26 8.46505 141.842 9.2433 142.545 10.4734ZM138.879 11.2015C136.846 11.2015 135.214 12.5822 135.214 14.9421C135.214 17.302 136.846 18.7078 138.879 18.7078C143.7 18.7078 143.7 11.2015 138.879 11.2015Z" fill="#C08735"/>
<path d="M124.06 5.60273L127.123 5.27637V8.79105H130.537V11.4271H127.098V16.7744C127.098 17.9543 127.751 18.5317 128.705 18.5317C129.182 18.5317 129.734 18.3811 130.186 18.1552L131.039 20.7661C130.161 21.1175 129.433 21.2682 128.504 21.2933C125.817 21.3937 124.06 19.8623 124.06 16.7744V11.4271H121.75V8.79105H124.06V5.60273Z" fill="#C08735"/>
<path d="M120.261 10.0464L118.554 12.0548C117.675 11.2263 116.671 10.9501 115.491 10.9501C114.035 10.9501 113.232 11.402 113.232 12.1803C113.232 12.9836 113.96 13.4355 115.541 13.5359C117.876 13.6866 120.839 14.2138 120.839 17.5025C120.839 19.6866 119.056 21.5695 115.516 21.5695C113.558 21.5695 111.6 21.2431 109.792 19.3603L111.299 17.1761C112.177 18.1552 114.186 18.8833 115.567 18.9084C116.721 18.9335 117.801 18.331 117.801 17.4272C117.801 16.5736 117.098 16.2222 115.341 16.1217C113.006 15.946 110.219 15.0924 110.219 12.2807C110.219 9.41875 113.182 8.41455 115.441 8.41455C117.374 8.41455 118.83 8.79112 120.261 10.0464Z" fill="#C08735"/>
<path d="M86.7139 8.71588V21.1428H83.6512V8.71588H86.7139ZM83.375 5.27651C83.375 7.66148 86.9901 7.66148 86.9901 5.27651C86.9901 2.89155 83.375 2.89155 83.375 5.27651Z" fill="#1A1A18"/>
<path d="M81.1113 10.0464L79.4042 12.0548C78.5255 11.2263 77.5213 10.9501 76.3414 10.9501C74.8853 10.9501 74.0819 11.402 74.0819 12.1803C74.0819 12.9836 74.81 13.4355 76.3916 13.5359C78.7263 13.6866 81.6887 14.2138 81.6887 17.5025C81.6887 19.6866 79.9063 21.5695 76.3665 21.5695C74.4083 21.5695 72.4501 21.2431 70.6426 19.3603L72.1489 17.1761C73.0275 18.1552 75.0359 18.8833 76.4167 18.9084C77.5715 18.9335 78.651 18.331 78.651 17.4272C78.651 16.5736 77.9481 16.2222 76.1908 16.1217C73.856 15.946 71.0694 15.0924 71.0694 12.2807C71.0694 9.41875 74.0317 8.41455 76.2912 8.41455C78.2242 8.41455 79.6803 8.79112 81.1113 10.0464Z" fill="#1A1A18"/>
<path d="M65.6074 3.59473H68.6451V21.143H65.6074V3.59473Z" fill="#1A1A18"/>
<path d="M59.974 10.4734L60.0744 8.76631H63.0117V21.143H60.1246L59.974 19.3355C59.271 20.7915 57.338 21.4945 55.9572 21.5196C52.2919 21.5447 49.5806 19.2852 49.5806 14.9421C49.5806 10.6743 52.4174 8.43995 56.0325 8.46505C57.6894 8.46505 59.271 9.2433 59.974 10.4734ZM56.3087 11.2015C54.2752 11.2015 52.6434 12.5822 52.6434 14.9421C52.6434 17.302 54.2752 18.7078 56.3087 18.7078C61.1288 18.7078 61.1288 11.2015 56.3087 11.2015Z" fill="#1A1A18"/>
<path d="M48.6333 3.56982V3.67024L40.8257 12.0804L49.2861 20.9424V21.1432H45.194L37.8383 13.3607V21.1432H34.5244V3.56982H37.8383V11.0009L44.5161 3.56982H48.6333Z" fill="#1A1A18"/>
<path fill-rule="evenodd" clip-rule="evenodd" d="M95.8125 21.1428H108.609L106.517 18.0346H95.8125V21.1428ZM95.8125 14.2569H105.5V11.3161H95.8125V14.2569ZM95.8125 7.46665H106.517L108.609 4.40625H95.8125V7.46665Z" fill="#C08735"/>
<path fill-rule="evenodd" clip-rule="evenodd" d="M0 0H23.7724V23.3643C22.3099 22.8778 20.6497 22.4769 18.8442 22.1819L18.8397 5.63008C18.8397 5.55811 18.8144 5.49814 18.7637 5.45016L13.1933 2.18362C13.1812 2.17227 13.1663 2.16483 13.1504 2.16219C13.1344 2.15955 13.1181 2.16183 13.1034 2.16874C13.0886 2.17565 13.0761 2.1869 13.0672 2.20115C13.0584 2.2154 13.0537 2.23203 13.0536 2.24904V15.5341L14.3776 16.2957V21.6942C13.4478 21.6396 12.4955 21.6112 11.526 21.6112C10.7082 21.6112 9.90254 21.6314 9.11233 21.6705V13.2669L11.2652 14.5053L11.2628 6.613C11.2626 6.60073 11.2591 6.58872 11.2527 6.57842C11.2463 6.56813 11.2374 6.55998 11.2269 6.55497C11.2164 6.54995 11.2048 6.54829 11.1935 6.55017C11.1823 6.55205 11.1718 6.55739 11.1635 6.56557L5.53872 10.8234C5.51963 10.8419 5.5044 10.8644 5.49398 10.8895C5.48357 10.9146 5.47819 10.9416 5.4782 10.969L5.47966 21.9949C3.47934 22.2571 1.63129 22.6459 0 23.1364V0Z" fill="#C08735"/>
</svg>
