<svg width="35" height="35" viewBox="0 0 35 35" fill="none" xmlns="http://www.w3.org/2000/svg">
<circle cx="17.5" cy="17.5" r="17" stroke="#333333"/>
<path d="M8.68486 12.3697H17.8163C17.998 12.3697 18.1722 12.2976 18.3006 12.1691C18.4291 12.0407 18.5012 11.8665 18.5012 11.6849C18.5012 11.5032 18.4291 11.329 18.3006 11.2006C18.1722 11.0722 17.998 11 17.8163 11H8.68486C8.50322 11 8.32903 11.0722 8.20059 11.2006C8.07215 11.329 8 11.5032 8 11.6849C8 11.8665 8.07215 12.0407 8.20059 12.1691C8.32903 12.2976 8.50322 12.3697 8.68486 12.3697Z" fill="#333333"/>
<path d="M27.6327 17.4651C27.6327 17.2835 27.5605 17.1093 27.4321 16.9809C27.3037 16.8524 27.1295 16.7803 26.9478 16.7803H8.68486C8.50322 16.7803 8.32903 16.8524 8.20059 16.9809C8.07215 17.1093 8 17.2835 8 17.4651C8 17.6468 8.07215 17.821 8.20059 17.9494C8.32903 18.0778 8.50322 18.15 8.68486 18.15H26.9478C27.1295 18.15 27.3037 18.0778 27.4321 17.9494C27.5605 17.821 27.6327 17.6468 27.6327 17.4651Z" fill="#333333"/>
<path d="M26.9477 22.5605H17.8162C17.6346 22.5605 17.4604 22.6327 17.3319 22.7611C17.2035 22.8896 17.1313 23.0638 17.1313 23.2454C17.1313 23.427 17.2035 23.6012 17.3319 23.7297C17.4604 23.8581 17.6346 23.9303 17.8162 23.9303H26.9477C27.1293 23.9303 27.3035 23.8581 27.432 23.7297C27.5604 23.6012 27.6326 23.427 27.6326 23.2454C27.6326 23.0638 27.5604 22.8896 27.432 22.7611C27.3035 22.6327 27.1293 22.5605 26.9477 22.5605Z" fill="#333333"/>
</svg>
