<svg width="53" height="53" viewBox="0 0 53 53" fill="none" xmlns="http://www.w3.org/2000/svg">
<path d="M26.6155 52.6642C41.0508 52.6642 52.753 40.962 52.753 26.5267C52.753 12.0914 41.0508 0.38916 26.6155 0.38916C12.1802 0.38916 0.478027 12.0914 0.478027 26.5267C0.478027 40.962 12.1802 52.6642 26.6155 52.6642Z" fill="white"/>
<path d="M37.1201 31.8032C40.8626 29.7284 43.7208 28.1436 43.9808 27.9993C44.7564 27.5693 45.569 26.4721 43.9808 25.595C43.4704 25.3126 40.6891 23.7763 37.1158 21.8018L32.2012 26.818L37.1201 31.8032Z" fill="#FFE300"/>
<path d="M32.2009 26.8179L16.4819 42.8611C16.837 42.9067 17.2639 42.8115 17.7549 42.5393C18.7717 41.9756 29.6904 35.9219 37.1202 31.8025L32.2009 26.8179Z" fill="#FF4E54"/>
<path d="M32.2038 26.8181L37.1186 21.802C37.1186 21.802 18.8515 11.7072 17.7579 11.103C17.3376 10.8706 16.8792 10.7895 16.4736 10.881L32.2038 26.8181Z" fill="#00F085"/>
<path d="M32.2037 26.818L16.4732 10.8811C15.8235 11.0279 15.291 11.5975 15.291 12.7424V40.9491C15.291 42.0273 15.7099 42.7856 16.4845 42.8612L32.2037 26.818Z" fill="#00E0FF"/>
</svg>
