<svg width="30" height="30" viewBox="0 0 30 30" fill="none" xmlns="http://www.w3.org/2000/svg">
<path d="M4.16673 6.33341C2.96958 6.33341 2 5.36382 2 4.16673C2 2.96964 2.96958 2 4.16673 2C5.36388 2 6.33346 2.96958 6.33346 4.16673C6.33346 5.36388 5.36382 6.33341 4.16673 6.33341ZM4.16673 3.08334C3.57086 3.08334 3.08339 3.57086 3.08339 4.16668C3.08339 4.76249 3.57092 5.25001 4.16673 5.25001C4.76254 5.25001 5.25007 4.76249 5.25007 4.16668C5.25007 3.57086 4.76254 3.08334 4.16673 3.08334Z" fill="#C08735"/>
<path d="M4.16673 28C2.96958 28 2 27.0303 2 25.8332C2 24.6361 2.96958 23.6665 4.16673 23.6665C5.36388 23.6665 6.33346 24.6361 6.33346 25.8332C6.33341 27.0303 5.36382 28 4.16673 28ZM4.16673 24.7499C3.57086 24.7499 3.08339 25.2374 3.08339 25.8332C3.08339 26.4291 3.57092 26.9166 4.16673 26.9166C4.76254 26.9166 5.25007 26.429 5.25007 25.8332C5.25007 25.2374 4.76254 24.7499 4.16673 24.7499Z" fill="#C08735"/>
<path d="M25.8332 28C24.6361 28 23.6665 27.0304 23.6665 25.8332C23.6665 24.6361 24.6361 23.6665 25.8332 23.6665C27.0303 23.6665 28 24.6361 28 25.8332C28 27.0303 27.0303 28 25.8332 28ZM25.8332 24.7499C25.2374 24.7499 24.7499 25.2374 24.7499 25.8332C24.7499 26.4291 25.2374 26.9166 25.8332 26.9166C26.4291 26.9166 26.9166 26.429 26.9166 25.8332C26.9166 25.2374 26.4291 24.7499 25.8332 24.7499Z" fill="#C08735"/>
<path d="M25.8332 6.33341C24.6361 6.33341 23.6665 5.36382 23.6665 4.16668C23.6665 2.96953 24.6361 2 25.8332 2C27.0303 2 28 2.96958 28 4.16673C28 5.36388 27.0303 6.33341 25.8332 6.33341ZM25.8332 3.08334C25.2374 3.08334 24.7499 3.57086 24.7499 4.16668C24.7499 4.76249 25.2374 5.25001 25.8332 5.25001C26.4291 5.25001 26.9166 4.76249 26.9166 4.16668C26.9166 3.57086 26.4291 3.08334 25.8332 3.08334Z" fill="#C08735"/>
<path d="M5.79102 3.625H24.2081V4.70834H5.79102V3.625Z" fill="#C08735"/>
<path d="M3.625 5.79102H4.70834V24.2081H3.625V5.79102Z" fill="#C08735"/>
<path d="M5.79102 25.2915H24.2081V26.3748H5.79102V25.2915Z" fill="#C08735"/>
<path d="M25.2915 5.79102H26.3748V24.2081H25.2915V5.79102Z" fill="#C08735"/>
<path d="M19.8759 20.9584H10.1257V15.5416H7.95898V14.2903L15.0008 8.38062L22.0426 14.2903V15.5416H19.8759L19.8759 20.9584ZM11.2091 19.875H18.7926V14.4582H20.553L15.0008 9.79981L9.4486 14.4582H11.2091V19.875Z" fill="#C08735"/>
</svg>
