<svg width="419" height="58" viewBox="0 0 419 58" fill="none" xmlns="http://www.w3.org/2000/svg">
<path d="M418.861 39.5499H395.039C395.534 43.3244 398.813 46.0469 404.134 46.0469C406.919 46.0469 410.569 44.995 412.302 43.2006L417.128 47.9651C413.911 51.3064 408.651 52.9152 404.011 52.9152C393.492 52.9152 387.242 46.4182 387.242 36.6418C387.242 27.3604 393.554 20.6777 403.454 20.6777C413.663 20.6777 420.037 26.9891 418.861 39.5499ZM395.162 33.3005H411.621C411.126 29.3404 408.033 27.3604 403.701 27.3604C399.617 27.3604 396.276 29.3404 395.162 33.3005Z" fill="#C08735"/>
<path d="M366.982 13.8102L374.531 13.0059V21.6685H382.946V28.1655H374.469V41.3451C374.469 44.2533 376.077 45.6764 378.429 45.6764C379.604 45.6764 380.966 45.3052 382.079 44.7483L384.183 51.1834C382.018 52.0497 380.223 52.4209 377.934 52.4828C371.313 52.7303 366.982 48.9559 366.982 41.3451V28.1655H361.289V21.6685H366.982V13.8102Z" fill="#C08735"/>
<path d="M351.333 25.8139L351.58 21.6063H358.82V52.1112H351.704L351.333 47.6561C349.6 51.2449 344.836 52.9775 341.432 53.0394C332.398 53.1012 325.716 47.5324 325.716 36.8278C325.716 26.3089 332.708 20.8019 341.618 20.8638C345.702 20.8638 349.6 22.782 351.333 25.8139ZM342.299 27.6083C337.287 27.6083 333.265 31.0115 333.265 36.8278C333.265 42.6442 337.287 46.1092 342.299 46.1092C354.179 46.1092 354.179 27.6083 342.299 27.6083Z" fill="#C08735"/>
<path d="M305.771 13.8102L313.32 13.0059V21.6685H321.735V28.1655H313.258V41.3451C313.258 44.2533 314.866 45.6764 317.218 45.6764C318.393 45.6764 319.755 45.3052 320.868 44.7483L322.972 51.1834C320.807 52.0497 319.012 52.4209 316.723 52.4828C310.102 52.7303 305.771 48.9559 305.771 41.3451V28.1655H300.078V21.6685H305.771V13.8102Z" fill="#C08735"/>
<path d="M296.41 24.7612L292.202 29.7113C290.037 27.6694 287.561 26.9887 284.653 26.9887C281.064 26.9887 279.084 28.1025 279.084 30.0207C279.084 32.0007 280.879 33.1145 284.777 33.362C290.532 33.7332 297.833 35.0326 297.833 43.1384C297.833 48.5216 293.44 53.1623 284.715 53.1623C279.889 53.1623 275.062 52.3579 270.607 47.7172L274.32 42.334C276.486 44.7472 281.436 46.5416 284.839 46.6035C287.685 46.6653 290.346 45.1803 290.346 42.9528C290.346 40.849 288.613 39.9827 284.282 39.7352C278.528 39.3021 271.659 37.1983 271.659 30.2682C271.659 23.2143 278.961 20.7393 284.53 20.7393C289.294 20.7393 292.883 21.6674 296.41 24.7612Z" fill="#C08735"/>
<path d="M213.726 21.4824V52.111H206.177V21.4824H213.726ZM205.496 13.0054C205.496 18.8836 214.406 18.8836 214.406 13.0054C214.406 7.12712 205.496 7.12712 205.496 13.0054Z" fill="white"/>
<path d="M199.917 24.7612L195.709 29.7113C193.543 27.6694 191.068 26.9887 188.16 26.9887C184.571 26.9887 182.591 28.1025 182.591 30.0207C182.591 32.0007 184.386 33.1145 188.284 33.362C194.038 33.7332 201.34 35.0326 201.34 43.1384C201.34 48.5216 196.947 53.1623 188.222 53.1623C183.396 53.1623 178.569 52.3579 174.114 47.7172L177.827 42.334C179.992 44.7472 184.943 46.5416 188.346 46.6035C191.192 46.6653 193.853 45.1803 193.853 42.9528C193.853 40.849 192.12 39.9827 187.789 39.7352C182.034 39.3021 175.166 37.1983 175.166 30.2682C175.166 23.2143 182.468 20.7393 188.036 20.7393C192.801 20.7393 196.39 21.6674 199.917 24.7612Z" fill="white"/>
<path d="M161.702 8.86035H169.189V52.1117H161.702V8.86035Z" fill="white"/>
<path d="M147.819 25.8139L148.066 21.6063H155.306V52.1112H148.19L147.819 47.6561C146.086 51.2449 141.322 52.9775 137.919 53.0394C128.885 53.1012 122.202 47.5324 122.202 36.8278C122.202 26.3089 129.194 20.8019 138.104 20.8638C142.188 20.8638 146.086 22.782 147.819 25.8139ZM138.785 27.6083C133.773 27.6083 129.751 31.0115 129.751 36.8278C129.751 42.6442 133.773 46.1092 138.785 46.1092C150.665 46.1092 150.665 27.6083 138.785 27.6083Z" fill="white"/>
<path d="M119.867 8.79785V9.04536L100.624 29.7738L121.476 51.6161V52.1111H111.39L93.2604 32.9295V52.1111H85.0928V8.79785H93.2604V27.1132L109.719 8.79785H119.867Z" fill="white"/>
<path fill-rule="evenodd" clip-rule="evenodd" d="M236.148 52.1101H267.689L262.532 44.4492H236.148V52.1101ZM236.148 35.1384H260.026V27.89H236.148V35.1384ZM236.148 18.4024H262.532L267.689 10.8594H236.148V18.4024Z" fill="#C08735"/>
<path fill-rule="evenodd" clip-rule="evenodd" d="M0 0H58.5919V57.5861C54.9874 56.387 50.8953 55.399 46.4455 54.6718L46.4344 13.8765C46.4344 13.6991 46.3719 13.5513 46.2469 13.433L32.5175 5.38197C32.4878 5.35401 32.4511 5.33568 32.4118 5.32917C32.3725 5.32267 32.3323 5.32827 32.2959 5.3453C32.2596 5.36233 32.2286 5.39008 32.2069 5.42519C32.1851 5.4603 32.1735 5.50129 32.1733 5.54323V38.2869L35.4367 40.1642V53.4698C33.145 53.3352 30.7978 53.2654 28.4083 53.2654C26.3925 53.2654 24.4068 53.3151 22.4592 53.4114V32.6989L27.7654 35.7513L27.7594 16.2991C27.7589 16.2689 27.7503 16.2393 27.7346 16.2139C27.7189 16.1885 27.6968 16.1684 27.6709 16.1561C27.645 16.1437 27.6165 16.1396 27.5888 16.1442C27.5611 16.1489 27.5353 16.162 27.5146 16.1822L13.6513 26.6765C13.6043 26.7222 13.5667 26.7777 13.5411 26.8394C13.5154 26.9012 13.5021 26.9679 13.5021 27.0353L13.5057 54.2109C8.57554 54.8573 4.02065 55.8155 0 57.0244V0Z" fill="#C08735"/>
<path fill-rule="evenodd" clip-rule="evenodd" d="M0 0H58.5919V57.5861C54.9874 56.387 50.8953 55.399 46.4455 54.6718L46.4344 13.8765C46.4344 13.6991 46.3719 13.5513 46.2469 13.433L32.5175 5.38197C32.4878 5.35401 32.4511 5.33568 32.4118 5.32917C32.3725 5.32267 32.3323 5.32827 32.2959 5.3453C32.2596 5.36233 32.2286 5.39008 32.2069 5.42519C32.1851 5.4603 32.1735 5.50129 32.1733 5.54323V38.2869L35.4367 40.1642V53.4698C33.145 53.3352 30.7978 53.2654 28.4083 53.2654C26.3925 53.2654 24.4068 53.3151 22.4592 53.4114V32.6989L27.7654 35.7513L27.7594 16.2991C27.7589 16.2689 27.7503 16.2393 27.7346 16.2139C27.7189 16.1885 27.6968 16.1684 27.6709 16.1561C27.645 16.1437 27.6165 16.1396 27.5888 16.1442C27.5611 16.1489 27.5353 16.162 27.5146 16.1822L13.6513 26.6765C13.6043 26.7222 13.5667 26.7777 13.5411 26.8394C13.5154 26.9012 13.5021 26.9679 13.5021 27.0353L13.5057 54.2109C8.57554 54.8573 4.02065 55.8155 0 57.0244V0Z" fill="#C08735"/>
</svg>
