<svg width="21" height="21" viewBox="0 0 21 21" fill="none" xmlns="http://www.w3.org/2000/svg">
<path d="M8.1717 16.3434C10.1648 16.3434 11.9767 15.6368 13.39 14.4409L19.7317 20.7826C19.8766 20.9275 20.0578 21 20.2571 21C20.4564 21 20.6376 20.9275 20.7826 20.7826C21.0725 20.4927 21.0725 20.0216 20.7826 19.7317L14.4409 13.39C15.6186 11.9767 16.3434 10.1467 16.3434 8.1717C16.3434 3.66005 12.6833 0 8.1717 0C3.67817 0 0 3.67817 0 8.1717C0 12.6833 3.67817 16.3434 8.1717 16.3434ZM8.1717 1.48576C11.868 1.48576 14.8576 4.49353 14.8576 8.1717C14.8576 11.868 11.868 14.8576 8.1717 14.8576C4.47541 14.8576 1.48576 11.8499 1.48576 8.1717C1.48576 4.49353 4.49353 1.48576 8.1717 1.48576Z" fill="white"/>
</svg>
