<svg width="34" height="34" viewBox="0 0 34 34" fill="none" xmlns="http://www.w3.org/2000/svg">
<g id="share-circle-line">
<path id="Vector" d="M15.5835 2.90433V5.75466C12.7257 6.1183 10.1135 7.55647 8.27801 9.77689C6.44249 11.9973 5.52131 14.8333 5.70171 17.7085C5.88211 20.5837 7.15055 23.2824 9.24922 25.256C11.3479 27.2295 14.1193 28.3299 17.0002 28.3335C19.7607 28.3334 22.4263 27.326 24.4968 25.5002C26.5673 23.6743 27.9003 21.1557 28.2457 18.4168H31.0974C30.3862 25.5752 24.3456 31.1668 17.0002 31.1668C9.17591 31.1668 2.8335 24.8244 2.8335 17.0002C2.8335 9.65475 8.42508 3.61408 15.5835 2.90433ZM28.3335 7.67L17.0002 19.0033L14.997 17.0002L26.3303 5.66683H19.8335V2.8335H31.1668V14.1668H28.3335V7.67Z" fill="white"/>
</g>
</svg>
