<svg width="45" height="45" viewBox="0 0 45 45" fill="none" xmlns="http://www.w3.org/2000/svg">
<rect width="45" height="45" fill="white"/>
<g clip-path="url(#clip0_931_1059)">
<path d="M12.4744 29.8118H31.1177C31.3423 29.8118 31.5832 29.6389 31.5832 29.3744C31.5832 29.1364 31.3838 28.9369 31.1458 28.9369H12.4885C11.5882 28.9369 10.8591 28.1949 10.8591 27.3076C10.8591 27.0555 10.6597 26.8561 10.4076 26.8561C10.1556 26.8561 9.95615 27.0555 9.95615 27.3076C9.95615 28.6852 11.0983 29.8118 12.4744 29.8118ZM33.1547 16.6925C33.1547 16.9445 33.3542 17.144 33.6062 17.144C33.8302 17.144 34.0437 16.9586 34.0437 16.6784C34.0437 15.3016 32.9022 14.1601 31.5254 14.1601H12.854C12.602 14.1601 12.4025 14.3596 12.4025 14.6116C12.4025 14.8637 12.602 15.0631 12.854 15.0631H31.5254C32.3981 15.0631 33.1547 15.8198 33.1547 16.6925Z" fill="#4C4C4C" stroke="#4C4C4C" stroke-width="0.2"/>
<path d="M12.4026 27.2794C12.4026 27.5315 12.6021 27.7309 12.8541 27.7309C12.9755 27.7309 13.09 27.6876 13.1691 27.6085C13.2477 27.5299 13.2876 27.419 13.2634 27.297V14.3585C13.2634 13.4316 12.5016 12.6698 11.5747 12.6698C10.6466 12.6698 9.9 13.4328 9.9 14.3585V27.2794C9.9 27.5315 10.0994 27.7309 10.3515 27.7309C10.6036 27.7309 10.803 27.5315 10.803 27.2794C10.803 26.8265 11.168 26.4656 11.5888 26.4656C12.0397 26.4656 12.4026 26.8285 12.4026 27.2794ZM12.4308 25.8192C12.1762 25.6767 11.9019 25.6047 11.6169 25.6047C11.3224 25.6047 11.0504 25.6944 10.817 25.8224V14.3585C10.817 13.9066 11.181 13.5446 11.6169 13.5446C12.0678 13.5446 12.4308 13.9076 12.4308 14.3585V25.8192Z" fill="#4C4C4C" stroke="#4C4C4C" stroke-width="0.2"/>
<path d="M34.0996 29.6761L34.0999 29.6761V29.6695V16.7065C34.0999 16.4658 33.8978 16.269 33.6484 16.269C33.399 16.269 33.1969 16.4658 33.1969 16.7065C33.1969 17.1574 32.8339 17.5203 32.383 17.5203C31.9321 17.5203 31.5691 17.1574 31.5691 16.7065C31.5691 16.4658 31.367 16.269 31.1176 16.269C30.8682 16.269 30.6661 16.4658 30.6661 16.7065V29.6555C30.6661 30.5841 31.4297 31.3302 32.3689 31.3302C33.2965 31.3302 34.0402 30.5831 34.0996 29.6761ZM31.555 29.6695V18.1915C31.7891 18.3198 32.0632 18.4093 32.3689 18.4093C32.6634 18.4093 32.9451 18.3196 33.1828 18.1909V29.6695C33.1828 30.1054 32.8209 30.4694 32.3689 30.4694C31.917 30.4694 31.555 30.1054 31.555 29.6695Z" fill="#4C4C4C" stroke="#4C4C4C" stroke-width="0.2"/>
<path d="M21.0794 25.3978L21.0808 25.3896V25.3813V17.1845C21.0808 16.9324 20.8813 16.733 20.6293 16.733H15.9052C15.6531 16.733 15.4537 16.9324 15.4537 17.1845V25.3532C15.4537 25.6053 15.6531 25.8047 15.9052 25.8047H20.6293C20.7445 25.8047 20.8488 25.7523 20.9264 25.679C21.004 25.6057 21.0614 25.5056 21.0794 25.3978ZM20.1918 17.6079V24.9298H16.3567V17.6079H20.1918Z" fill="#4C4C4C" stroke="#4C4C4C" stroke-width="0.2"/>
<path d="M29.2774 21.8741L29.2777 21.8741V21.8664V17.1564C29.2777 16.9044 29.0782 16.7049 28.8262 16.7049H20.6293C20.3773 16.7049 20.1778 16.9044 20.1778 17.1564C20.1778 17.4085 20.3773 17.6079 20.6293 17.6079H28.3747V21.4149H20.6293C20.3773 21.4149 20.1778 21.6144 20.1778 21.8664C20.1778 22.1018 20.3747 22.3179 20.6293 22.3179H28.8121C29.068 22.3179 29.2598 22.1019 29.2774 21.8741Z" fill="#4C4C4C" stroke="#4C4C4C" stroke-width="0.2"/>
<path d="M26.8301 27.645L26.8311 27.638V27.6309V21.8664C26.8311 21.6143 26.6317 21.4149 26.3796 21.4149C26.1275 21.4149 25.9281 21.6143 25.9281 21.8664V27.1794H18.803V25.3532C18.803 25.1126 18.6009 24.9158 18.3515 24.9158C18.1021 24.9158 17.9 25.1126 17.9 25.3532V27.6309C17.9 27.883 18.0994 28.0824 18.3515 28.0824H26.3656C26.6079 28.0824 26.7964 27.8808 26.8301 27.645Z" fill="#4C4C4C" stroke="#4C4C4C" stroke-width="0.2"/>
</g>
<defs>
<clipPath id="clip0_931_1059">
<rect width="24" height="24" fill="white" transform="translate(10 10)"/>
</clipPath>
</defs>
</svg>
