<svg width="45" height="45" viewBox="0 0 45 45" fill="none" xmlns="http://www.w3.org/2000/svg">
<rect width="45" height="45" fill="white"/>
<g clip-path="url(#clip0_1102_1390)">
<path d="M11.6808 30.4544H31.8777C32.1176 30.4544 32.3737 30.2698 32.3737 29.9889C32.3737 29.7356 32.1614 29.5233 31.9081 29.5233H11.6961C10.7161 29.5233 9.92261 28.7157 9.92261 27.7499C9.92261 27.4814 9.71029 27.2691 9.44182 27.2691C9.17335 27.2691 8.96104 27.4814 8.96104 27.7499C8.96104 29.2376 10.1946 30.4544 11.6808 30.4544ZM34.0928 16.2501C34.0928 16.5186 34.3052 16.7309 34.5736 16.7309C34.8116 16.7309 35.0392 16.5338 35.0392 16.2349C35.0392 14.7479 33.8064 13.5151 32.3194 13.5151H12.0921C11.8236 13.5151 11.6113 13.7274 11.6113 13.9959C11.6113 14.2644 11.8236 14.4767 12.0921 14.4767H32.3194C33.2694 14.4767 34.0928 15.3001 34.0928 16.2501Z" fill="#C08735" stroke="#C08735" stroke-width="0.2"/>
<path d="M11.6112 27.7194C11.6112 27.9879 11.8235 28.2002 12.092 28.2002C12.2215 28.2002 12.3434 28.1539 12.4273 28.07C12.5107 27.9866 12.553 27.8689 12.5271 27.7393V13.7217C12.5271 12.7222 11.7055 11.9006 10.7059 11.9006C9.70519 11.9006 8.9 12.7233 8.9 13.7217V27.7194C8.9 27.9879 9.11232 28.2002 9.38079 28.2002C9.64925 28.2002 9.86157 27.9879 9.86157 27.7194C9.86157 27.2242 10.2605 26.8293 10.7211 26.8293C11.2143 26.8293 11.6112 27.2263 11.6112 27.7194ZM11.6417 26.1517C11.3636 25.9933 11.0635 25.9135 10.7516 25.9135C10.4291 25.9135 10.1314 26.0132 9.8768 26.1551V13.7217C9.8768 13.2276 10.2747 12.8317 10.7516 12.8317C11.2447 12.8317 11.6417 13.2286 11.6417 13.7217V26.1517Z" fill="#C08735" stroke="#C08735" stroke-width="0.2"/>
<path d="M35.0998 30.3153L35.1 30.3153V30.3087V16.2654C35.1 16.0095 34.8851 15.7998 34.6193 15.7998C34.3535 15.7998 34.1385 16.0095 34.1385 16.2654C34.1385 16.7585 33.7415 17.1554 33.2484 17.1554C32.7553 17.1554 32.3584 16.7585 32.3584 16.2654C32.3584 16.0095 32.1434 15.7998 31.8776 15.7998C31.6118 15.7998 31.3968 16.0095 31.3968 16.2654V30.2935C31.3968 31.2948 32.2201 32.0994 33.2332 32.0994C34.2334 32.0994 35.0357 31.2937 35.0998 30.3153ZM32.3432 30.3087V17.8601C32.5985 18.0021 32.8983 18.1017 33.2332 18.1017C33.5557 18.1017 33.8642 18.002 34.1232 17.8594V30.3087C34.1232 30.7856 33.7273 31.1835 33.2332 31.1835C32.7391 31.1835 32.3432 30.7856 32.3432 30.3087Z" fill="#C08735" stroke="#C08735" stroke-width="0.2"/>
<path d="M20.9946 25.6796L20.9959 25.6714V25.6631V16.7832C20.9959 16.5148 20.7836 16.3025 20.5151 16.3025H15.3974C15.1289 16.3025 14.9166 16.5148 14.9166 16.7832V25.6327C14.9166 25.9011 15.1289 26.1135 15.3974 26.1135H20.5151C20.6373 26.1135 20.7484 26.0578 20.8313 25.9795C20.9142 25.9013 20.9754 25.7945 20.9946 25.6796ZM20.0496 17.2336V25.1824H15.8782V17.2336H20.0496Z" fill="#C08735" stroke="#C08735" stroke-width="0.2"/>
<path d="M29.8755 21.863L29.8758 21.863V21.8553V16.7528C29.8758 16.4843 29.6634 16.272 29.395 16.272H20.5151C20.2466 16.272 20.0343 16.4843 20.0343 16.7528C20.0343 17.0212 20.2466 17.2336 20.5151 17.2336H28.9142V21.3745H20.5151C20.2466 21.3745 20.0343 21.5868 20.0343 21.8553C20.0343 22.1059 20.244 22.3361 20.5151 22.3361H29.3797C29.6521 22.3361 29.8568 22.106 29.8755 21.863Z" fill="#C08735" stroke="#C08735" stroke-width="0.2"/>
<path d="M27.2242 28.1143L27.2252 28.1073V28.1002V21.8553C27.2252 21.5868 27.0129 21.3745 26.7444 21.3745C26.476 21.3745 26.2636 21.5868 26.2636 21.8553V27.6194H18.5281V25.6327C18.5281 25.3768 18.3131 25.1671 18.0473 25.1671C17.7815 25.1671 17.5665 25.3768 17.5665 25.6327V28.1002C17.5665 28.3686 17.7788 28.5809 18.0473 28.5809H26.7292C26.9867 28.5809 27.1882 28.3665 27.2242 28.1143Z" fill="#C08735" stroke="#C08735" stroke-width="0.2"/>
</g>
<defs>
<clipPath id="clip0_1102_1390">
<rect width="26" height="26" fill="white" transform="translate(9 9)"/>
</clipPath>
</defs>
</svg>
