<svg width="26" height="26" viewBox="0 0 26 26" fill="none" xmlns="http://www.w3.org/2000/svg">
<g id="3653938631678857513 2" clip-path="url(#clip0_619_2019)">
<g id="Layer_x0020_1">
<g id="_610408064">
<g id="Group">
<g id="Group_2">
<path id="Vector" d="M2.68084 21.4544H22.8777C23.1176 21.4544 23.3737 21.2698 23.3737 20.9889C23.3737 20.7356 23.1614 20.5233 22.9081 20.5233H2.69607C1.71609 20.5233 0.922605 19.7157 0.922605 18.7499C0.922605 18.4814 0.710288 18.2691 0.44182 18.2691C0.173352 18.2691 -0.0389648 18.4814 -0.0389648 18.7499C-0.0389648 20.2376 1.19461 21.4544 2.68084 21.4544ZM25.0928 7.25015C25.0928 7.51862 25.3052 7.73093 25.5736 7.73093C25.8116 7.73093 26.0392 7.53385 26.0392 7.23492C26.0392 5.74794 24.8064 4.51512 23.3194 4.51512H3.09208C2.82362 4.51512 2.6113 4.72743 2.6113 4.9959C2.6113 5.26437 2.82362 5.47669 3.09208 5.47669H23.3194C24.2694 5.47669 25.0928 6.3001 25.0928 7.25015Z" fill="#C08735" stroke="#C08735" stroke-width="0.2"/>
</g>
<g id="Group_3">
<path id="Vector_2" d="M2.61119 18.7194C2.61119 18.9879 2.82351 19.2002 3.09197 19.2002C3.22154 19.2002 3.34336 19.1539 3.42733 19.07C3.51073 18.9866 3.55296 18.8689 3.52707 18.7393V4.72174C3.52707 3.72216 2.70549 2.90059 1.70592 2.90059C0.705188 2.90059 -0.1 3.72332 -0.1 4.72174V18.7194C-0.1 18.9879 0.112317 19.2002 0.380785 19.2002C0.649253 19.2002 0.86157 18.9879 0.86157 18.7194C0.86157 18.2243 1.26053 17.8294 1.72115 17.8294C2.21425 17.8294 2.61119 18.2263 2.61119 18.7194ZM2.64165 17.1517C2.36364 16.9933 2.0635 16.9135 1.75161 16.9135C1.42907 16.9135 1.13143 17.0132 0.876801 17.1551V4.72174C0.876801 4.22762 1.27475 3.83169 1.75161 3.83169C2.24471 3.83169 2.64165 4.22863 2.64165 4.72174V17.1517Z" fill="#C08735" stroke="#C08735" stroke-width="0.2"/>
</g>
<g id="Group_4">
<path id="Vector_3" d="M26.0996 21.3153L26.0998 21.3153V21.3087V7.26538C26.0998 7.00951 25.8848 6.79983 25.619 6.79983C25.3532 6.79983 25.1382 7.00951 25.1382 7.26538C25.1382 7.75848 24.7413 8.15542 24.2482 8.15542C23.7551 8.15542 23.3582 7.75848 23.3582 7.26538C23.3582 7.00951 23.1432 6.79983 22.8774 6.79983C22.6116 6.79983 22.3966 7.00951 22.3966 7.26538V21.2935C22.3966 22.2948 23.2199 23.0994 24.233 23.0994C25.2332 23.0994 26.0354 22.2938 26.0996 21.3153ZM23.3429 21.3087V8.86009C23.5982 9.00214 23.8981 9.10176 24.233 9.10176C24.5555 9.10176 24.8639 9.00201 25.123 8.85946V21.3087C25.123 21.7856 24.7271 22.1835 24.233 22.1835C23.7388 22.1835 23.3429 21.7856 23.3429 21.3087Z" fill="#C08735" stroke="#C08735" stroke-width="0.2"/>
</g>
</g>
<g id="Group_5">
<path id="Vector_4" d="M11.9946 16.6796L11.9959 16.6714V16.6632V7.78325C11.9959 7.51478 11.7836 7.30246 11.5151 7.30246H6.39739C6.12892 7.30246 5.9166 7.51478 5.9166 7.78325V16.6327C5.9166 16.9012 6.12892 17.1135 6.39739 17.1135H11.5151C11.6373 17.1135 11.7484 17.0578 11.8313 16.9796C11.9142 16.9013 11.9754 16.7945 11.9946 16.6796ZM11.0496 8.23357V16.1824H6.87817V8.23357H11.0496Z" fill="#C08735" stroke="#C08735" stroke-width="0.2"/>
</g>
<g id="Group_6">
<path id="Vector_5" d="M20.8755 12.863L20.8758 12.863V12.8553V7.75278C20.8758 7.48431 20.6634 7.272 20.395 7.272H11.5151C11.2466 7.272 11.0343 7.48431 11.0343 7.75278C11.0343 8.02125 11.2466 8.23357 11.5151 8.23357H19.9142V12.3745H11.5151C11.2466 12.3745 11.0343 12.5868 11.0343 12.8553C11.0343 13.1059 11.244 13.3361 11.5151 13.3361H20.3797C20.6521 13.3361 20.8568 13.106 20.8755 12.863Z" fill="#C08735" stroke="#C08735" stroke-width="0.2"/>
</g>
<g id="Group_7">
<path id="Vector_6" d="M18.2242 19.1143L18.2252 19.1073V19.1002V12.8553C18.2252 12.5868 18.0129 12.3745 17.7444 12.3745C17.476 12.3745 17.2636 12.5868 17.2636 12.8553V18.6194H9.52807V16.6327C9.52807 16.3768 9.31308 16.1671 9.04729 16.1671C8.7815 16.1671 8.5665 16.3768 8.5665 16.6327V19.1002C8.5665 19.3686 8.77882 19.581 9.04729 19.581H17.7292C17.9867 19.581 18.1882 19.3665 18.2242 19.1143Z" fill="#C08735" stroke="#C08735" stroke-width="0.2"/>
</g>
</g>
</g>
</g>
<defs>
<clipPath id="clip0_619_2019">
<rect width="26" height="26" fill="white"/>
</clipPath>
</defs>
</svg>
