<svg width="1354" height="5480" viewBox="0 0 1354 5480" fill="none" xmlns="http://www.w3.org/2000/svg">
<rect x="1309" width="45" height="45" fill="white"/>
<g clip-path="url(#clip0_3_9)">
<path d="M1320.68 30.4544H1340.88C1341.12 30.4544 1341.37 30.2698 1341.37 29.9889C1341.37 29.7356 1341.16 29.5233 1340.91 29.5233H1320.7C1319.72 29.5233 1318.92 28.7157 1318.92 27.7499C1318.92 27.4814 1318.71 27.2691 1318.44 27.2691C1318.17 27.2691 1317.96 27.4814 1317.96 27.7499C1317.96 29.2376 1319.19 30.4544 1320.68 30.4544ZM1343.09 16.2501C1343.09 16.5186 1343.31 16.7309 1343.57 16.7309C1343.81 16.7309 1344.04 16.5338 1344.04 16.2349C1344.04 14.7479 1342.81 13.5151 1341.32 13.5151H1321.09C1320.82 13.5151 1320.61 13.7274 1320.61 13.9959C1320.61 14.2644 1320.82 14.4767 1321.09 14.4767H1341.32C1342.27 14.4767 1343.09 15.3001 1343.09 16.2501Z" fill="#C08735" stroke="#C08735" stroke-width="0.2"/>
<path d="M1320.61 27.7194C1320.61 27.9879 1320.82 28.2002 1321.09 28.2002C1321.22 28.2002 1321.34 28.154 1321.43 28.07C1321.51 27.9866 1321.55 27.8689 1321.53 27.7393V13.7218C1321.53 12.7222 1320.71 11.9006 1319.71 11.9006C1318.71 11.9006 1317.9 12.7233 1317.9 13.7218V27.7194C1317.9 27.9879 1318.11 28.2002 1318.38 28.2002C1318.65 28.2002 1318.86 27.9879 1318.86 27.7194C1318.86 27.2243 1319.26 26.8294 1319.72 26.8294C1320.21 26.8294 1320.61 27.2263 1320.61 27.7194ZM1320.64 26.1517C1320.36 25.9934 1320.06 25.9135 1319.75 25.9135C1319.43 25.9135 1319.13 26.0133 1318.88 26.1551V13.7218C1318.88 13.2276 1319.27 12.8317 1319.75 12.8317C1320.24 12.8317 1320.64 13.2287 1320.64 13.7218V26.1517Z" fill="#C08735" stroke="#C08735" stroke-width="0.2"/>
<path d="M1344.1 30.3153L1344.1 30.3153V30.3087V16.2654C1344.1 16.0095 1343.88 15.7998 1343.62 15.7998C1343.35 15.7998 1343.14 16.0095 1343.14 16.2654C1343.14 16.7585 1342.74 17.1554 1342.25 17.1554C1341.76 17.1554 1341.36 16.7585 1341.36 16.2654C1341.36 16.0095 1341.14 15.7998 1340.88 15.7998C1340.61 15.7998 1340.4 16.0095 1340.4 16.2654V30.2935C1340.4 31.2948 1341.22 32.0994 1342.23 32.0994C1343.23 32.0994 1344.04 31.2938 1344.1 30.3153ZM1341.34 30.3087V17.8601C1341.6 18.0022 1341.9 18.1018 1342.23 18.1018C1342.56 18.1018 1342.86 18.002 1343.12 17.8595V30.3087C1343.12 30.7856 1342.73 31.1836 1342.23 31.1836C1341.74 31.1836 1341.34 30.7856 1341.34 30.3087Z" fill="#C08735" stroke="#C08735" stroke-width="0.2"/>
<path d="M1329.99 25.6796L1330 25.6714V25.6632V16.7833C1330 16.5148 1329.78 16.3025 1329.51 16.3025H1324.4C1324.13 16.3025 1323.92 16.5148 1323.92 16.7833V25.6327C1323.92 25.9012 1324.13 26.1135 1324.4 26.1135H1329.51C1329.64 26.1135 1329.75 26.0578 1329.83 25.9796C1329.91 25.9013 1329.98 25.7945 1329.99 25.6796ZM1329.05 17.2336V25.1824H1324.88V17.2336H1329.05Z" fill="#C08735" stroke="#C08735" stroke-width="0.2"/>
<path d="M1338.88 21.863L1338.88 21.863V21.8553V16.7528C1338.88 16.4843 1338.66 16.272 1338.39 16.272H1329.51C1329.25 16.272 1329.03 16.4843 1329.03 16.7528C1329.03 17.0213 1329.25 17.2336 1329.51 17.2336H1337.91V21.3745H1329.51C1329.25 21.3745 1329.03 21.5868 1329.03 21.8553C1329.03 22.106 1329.24 22.3361 1329.51 22.3361H1338.38C1338.65 22.3361 1338.86 22.106 1338.88 21.863Z" fill="#C08735" stroke="#C08735" stroke-width="0.2"/>
<path d="M1336.22 28.1143L1336.23 28.1073V28.1002V21.8553C1336.23 21.5869 1336.01 21.3745 1335.74 21.3745C1335.48 21.3745 1335.26 21.5869 1335.26 21.8553V27.6194H1327.53V25.6327C1327.53 25.3768 1327.31 25.1672 1327.05 25.1672C1326.78 25.1672 1326.57 25.3768 1326.57 25.6327V28.1002C1326.57 28.3687 1326.78 28.581 1327.05 28.581H1335.73C1335.99 28.581 1336.19 28.3665 1336.22 28.1143Z" fill="#C08735" stroke="#C08735" stroke-width="0.2"/>
</g>
<defs>
<clipPath id="clip0_3_9">
<rect width="26" height="26" fill="white" transform="translate(1318 9)"/>
</clipPath>
</defs>
</svg>
