<svg width="45" height="45" viewBox="0 0 45 45" fill="none" xmlns="http://www.w3.org/2000/svg">
<g id="Sqft">
<g id="Group 427321726">
<rect id="Rectangle 8691" width="45" height="45" fill="white"/>
<g id="Group 427321523">
<path id="Vector" d="M24.1117 27.7827L24.1118 27.7827L26.7338 31.5998H31.5998V23.6204H20.2338C19.9089 23.6204 19.646 23.3571 19.646 23.0327C19.646 22.7079 19.909 22.4449 20.2338 22.4449H31.5998V14.0255H23.8796V19.4654C23.8796 19.7902 23.6162 20.0531 23.2918 20.0531C22.9674 20.0531 22.7041 19.7902 22.7041 19.4654V14.0255H14.0255V25.3314H17.474C17.7988 25.3314 18.0617 25.5947 18.0617 25.9191C18.0617 26.2435 17.7988 26.5069 17.474 26.5069H14.0255V31.5998H20.6067C20.9316 31.5998 21.1945 31.8631 21.1945 32.1876C21.1945 32.512 20.9316 32.7753 20.6067 32.7753H13.4377C13.1129 32.7753 12.85 32.512 12.85 32.1876V13.4377C12.85 13.113 13.113 12.85 13.4377 12.85H32.1876C32.5119 12.85 32.7754 13.1128 32.775 13.4376M24.1117 27.7827L32.625 32.1873C32.625 32.4289 32.4289 32.625 32.1873 32.625H26.4243C26.2801 32.625 26.145 32.5541 26.0636 32.4353M24.1117 27.7827C23.9278 27.5153 23.5627 27.4478 23.2948 27.6309L23.2945 27.6311C23.0266 27.815 22.9596 28.1806 23.1426 28.4482L23.1428 28.4484L25.9399 32.5201M24.1117 27.7827L26.0636 32.4353M32.775 13.4376L32.625 13.4374H32.775V13.4376ZM32.775 13.4376V32.1873C32.775 32.5117 32.5117 32.775 32.1873 32.775H26.4243C26.2309 32.775 26.0494 32.6799 25.9399 32.5201M25.9399 32.5201L25.9399 32.5202L26.0636 32.4353M25.9399 32.5201L26.0636 32.4353" fill="#4C4C4C" stroke="#4C4C4C" stroke-width="0.3"/>
</g>
</g>
</g>
</svg>
