<svg width="17" height="17" viewBox="0 0 17 17" fill="none" xmlns="http://www.w3.org/2000/svg">
<g id="3535154801543238865 1" clip-path="url(#clip0_1705_375)">
<path id="Vector" d="M16.1165 13.0496C16.1165 13.4101 15.9733 13.7558 15.7184 14.0107C15.4635 14.2656 15.1178 14.4088 14.7573 14.4088H2.52426C2.16377 14.4088 1.81805 14.2656 1.56315 14.0107C1.30824 13.7558 1.16504 13.4101 1.16504 13.0496V5.57384C1.16504 5.21335 1.30824 4.86763 1.56315 4.61272C1.81805 4.35782 2.16377 4.21462 2.52426 4.21462H5.24271L6.60193 2.17578H10.6796L12.0388 4.21462H14.7573C15.1178 4.21462 15.4635 4.35782 15.7184 4.61272C15.9733 4.86763 16.1165 5.21335 16.1165 5.57384V13.0496Z" stroke="#252525" stroke-width="2.03884" stroke-linecap="round" stroke-linejoin="round"/>
<path id="Vector_2" d="M8.64032 11.6908C10.1417 11.6908 11.3588 10.4737 11.3588 8.97235C11.3588 7.471 10.1417 6.25391 8.64032 6.25391C7.13897 6.25391 5.92188 7.471 5.92188 8.97235C5.92188 10.4737 7.13897 11.6908 8.64032 11.6908Z" stroke="#252525" stroke-width="2.03884" stroke-linecap="round" stroke-linejoin="round"/>
</g>
<defs>
<clipPath id="clip0_1705_375">
<rect width="16.3107" height="16.3107" fill="white" transform="translate(0.485352 0.136719)"/>
</clipPath>
</defs>
</svg>
