<svg width="56" height="56" viewBox="0 0 56 56" fill="none" xmlns="http://www.w3.org/2000/svg">
<path d="M44.333 20.4167C39.503 20.4167 35.583 16.4967 35.583 11.6667C35.583 6.83675 39.503 2.91675 44.333 2.91675C49.163 2.91675 53.083 6.83675 53.083 11.6667C53.083 16.4967 49.163 20.4167 44.333 20.4167ZM44.333 6.41675C41.4397 6.41675 39.083 8.77341 39.083 11.6667C39.083 14.5601 41.4397 16.9167 44.333 16.9167C47.2263 16.9167 49.583 14.5601 49.583 11.6667C49.583 8.77341 47.2263 6.41675 44.333 6.41675Z" fill="#C08735"/>
<path d="M27.9997 32.0833H16.333C15.3763 32.0833 14.583 31.2899 14.583 30.3333C14.583 29.3766 15.3763 28.5833 16.333 28.5833H27.9997C28.9563 28.5833 29.7497 29.3766 29.7497 30.3333C29.7497 31.2899 28.9563 32.0833 27.9997 32.0833Z" fill="#C08735"/>
<path d="M37.333 41.4167H16.333C15.3763 41.4167 14.583 40.6234 14.583 39.6667C14.583 38.7101 15.3763 37.9167 16.333 37.9167H37.333C38.2897 37.9167 39.083 38.7101 39.083 39.6667C39.083 40.6234 38.2897 41.4167 37.333 41.4167Z" fill="#C08735"/>
<path d="M35.0003 53.0834H21.0003C8.33033 53.0834 2.91699 47.6701 2.91699 35.0001V21.0001C2.91699 8.33008 8.33033 2.91675 21.0003 2.91675H32.667C33.6237 2.91675 34.417 3.71008 34.417 4.66675C34.417 5.62341 33.6237 6.41675 32.667 6.41675H21.0003C10.2437 6.41675 6.41699 10.2434 6.41699 21.0001V35.0001C6.41699 45.7567 10.2437 49.5834 21.0003 49.5834H35.0003C45.757 49.5834 49.5837 45.7567 49.5837 35.0001V23.3334C49.5837 22.3767 50.377 21.5834 51.3337 21.5834C52.2903 21.5834 53.0837 22.3767 53.0837 23.3334V35.0001C53.0837 47.6701 47.6703 53.0834 35.0003 53.0834Z" fill="#C08735"/>
</svg>
