<svg width="68" height="68" viewBox="0 0 68 68" fill="none" xmlns="http://www.w3.org/2000/svg">
<path d="M34.0003 47.4584C32.867 47.4584 31.7337 47.3734 30.657 47.1751C24.6503 46.2967 19.182 42.8401 15.7253 37.7117C13.317 34.0851 12.042 29.8634 12.042 25.5001C12.042 13.4017 21.902 3.54175 34.0003 3.54175C46.0987 3.54175 55.9587 13.4017 55.9587 25.5001C55.9587 29.8634 54.6837 34.0851 52.2753 37.7117C48.7903 42.8684 43.322 46.2968 37.2587 47.2034C36.267 47.3734 35.1337 47.4584 34.0003 47.4584ZM34.0003 7.79175C24.2253 7.79175 16.292 15.7251 16.292 25.5001C16.292 29.0417 17.312 32.4418 19.2387 35.3318C22.0437 39.4684 26.4353 42.2451 31.3087 42.9534C33.122 43.2651 34.907 43.2651 36.5787 42.9534C41.537 42.2451 45.9287 39.4401 48.7337 35.3034C50.6603 32.4134 51.6803 29.0134 51.6803 25.4717C51.7087 15.7251 43.7753 7.79175 34.0003 7.79175Z" fill="#C08735"/>
<path d="M18.3307 64.0048C17.9341 64.0048 17.5657 63.9482 17.1691 63.8632C15.3274 63.4382 13.9107 62.0215 13.4857 60.1798L12.4941 56.0148C12.4374 55.7598 12.2391 55.5615 11.9557 55.4765L7.28074 54.3715C5.52408 53.9465 4.13574 52.6432 3.65408 50.9148C3.17241 49.1865 3.65408 47.3165 4.92908 46.0415L15.9791 34.9915C16.4324 34.5382 17.0557 34.3115 17.6791 34.3682C18.3024 34.4248 18.8691 34.7648 19.2374 35.3031C22.0424 39.4398 26.4341 42.2448 31.3357 42.9532C33.1491 43.2648 34.9341 43.2648 36.6057 42.9532C41.5641 42.2448 45.9557 39.4398 48.7607 35.3031C49.1007 34.7648 49.6957 34.4248 50.3191 34.3682C50.9424 34.3115 51.5658 34.5382 52.0191 34.9915L63.0691 46.0415C64.3441 47.3165 64.8257 49.1865 64.3441 50.9148C63.8624 52.6432 62.4458 53.9748 60.7174 54.3715L56.0424 55.4765C55.7874 55.5331 55.5891 55.7315 55.5041 56.0148L54.5124 60.1798C54.0874 62.0215 52.6707 63.4382 50.8291 63.8632C48.9874 64.3165 47.0891 63.6648 45.8991 62.2198L33.9991 48.5348L22.0991 62.2482C21.1357 63.3815 19.7757 64.0048 18.3307 64.0048ZM17.2541 39.7515L7.93241 49.0732C7.67741 49.3282 7.70574 49.6115 7.76241 49.7815C7.79074 49.9232 7.93241 50.2065 8.27241 50.2631L12.9474 51.3682C14.7891 51.7932 16.2057 53.2098 16.6307 55.0515L17.6224 59.2165C17.7074 59.5848 17.9907 59.6981 18.1607 59.7548C18.3307 59.7831 18.6141 59.8115 18.8691 59.5282L29.7207 47.0332C24.9041 46.0982 20.4841 43.5198 17.2541 39.7515ZM38.2774 47.0048L49.1291 59.4715C49.3841 59.7831 49.6957 59.7831 49.8657 59.7265C50.0357 59.6981 50.2907 59.5565 50.4041 59.1882L51.3957 55.0232C51.8207 53.1815 53.2374 51.7648 55.0791 51.3398L59.7541 50.2349C60.0941 50.1499 60.2358 49.8948 60.2641 49.7532C60.3208 49.6115 60.3491 49.2998 60.0941 49.0448L50.7724 39.7231C47.5141 43.4915 43.1224 46.0698 38.2774 47.0048Z" fill="#C08735"/>
<path d="M39.3556 36.5217C38.6189 36.5217 37.7406 36.3233 36.6922 35.7L34.0006 34.085L31.3089 35.6716C28.8439 37.1449 27.2289 36.295 26.6339 35.87C26.0389 35.445 24.7639 34.17 25.4156 31.365L26.0956 28.4466L23.8289 26.3499C22.5822 25.1033 22.1289 23.6016 22.5539 22.2416C22.9789 20.8816 24.2256 19.9183 25.9822 19.6349L29.0139 19.125L30.4589 15.9516C31.2806 14.3366 32.5556 13.4299 34.0006 13.4299C35.4456 13.4299 36.7489 14.365 37.5422 15.98L39.2139 19.3233L42.0189 19.6633C43.7472 19.9466 44.9939 20.9099 45.4472 22.2699C45.8722 23.6299 45.4189 25.1316 44.1722 26.3783L41.8206 28.73L42.5572 31.365C43.2089 34.17 41.9339 35.445 41.3389 35.87C41.0272 36.125 40.3472 36.5217 39.3556 36.5217ZM27.2289 23.7717L29.1839 25.7266C30.0906 26.6333 30.5439 28.1633 30.2606 29.41L29.7222 31.6766L31.9889 30.3449C33.2072 29.6366 34.8506 29.6366 36.0406 30.3449L38.3072 31.6766L37.7972 29.41C37.5139 28.135 37.9389 26.6333 38.8456 25.7266L40.8006 23.7717L38.3356 23.3466C37.1456 23.1483 35.9556 22.27 35.4172 21.1933L34.0006 18.4166L32.5839 21.25C32.0739 22.2983 30.8839 23.205 29.6939 23.4033L27.2289 23.7717Z" fill="#C08735"/>
</svg>
