<svg width="59" height="59" viewBox="0 0 59 59" fill="none" xmlns="http://www.w3.org/2000/svg">
<path d="M29.4997 31.3438C21.7068 31.3438 15.3643 25.0013 15.3643 17.2084C15.3643 9.4155 21.7068 3.073 29.4997 3.073C37.2926 3.073 43.6351 9.4155 43.6351 17.2084C43.6351 25.0013 37.2926 31.3438 29.4997 31.3438ZM29.4997 6.7605C23.7472 6.7605 19.0518 11.4559 19.0518 17.2084C19.0518 22.9609 23.7472 27.6563 29.4997 27.6563C35.2522 27.6563 39.9476 22.9609 39.9476 17.2084C39.9476 11.4559 35.2522 6.7605 29.4997 6.7605Z" fill="#C08735"/>
<path d="M50.617 55.9271C49.609 55.9271 48.7732 55.0912 48.7732 54.0833C48.7732 45.6021 40.1199 38.7188 29.4999 38.7188C18.8799 38.7188 10.2266 45.6021 10.2266 54.0833C10.2266 55.0912 9.39073 55.9271 8.38281 55.9271C7.3749 55.9271 6.53906 55.0912 6.53906 54.0833C6.53906 43.5862 16.8395 35.0312 29.4999 35.0312C42.1603 35.0312 52.4607 43.5862 52.4607 54.0833C52.4607 55.0912 51.6249 55.9271 50.617 55.9271Z" fill="#C08735"/>
</svg>
