<svg width="206" height="206" viewBox="0 0 206 206" fill="none" xmlns="http://www.w3.org/2000/svg">
<path d="M103 103L141.625 64.375" stroke="#C08735" stroke-width="4" stroke-miterlimit="10" stroke-linecap="round" stroke-linejoin="round"/>
<path d="M193.125 38.625H167.375V12.875L141.625 38.625V64.375H167.375L193.125 38.625Z" stroke="#C08735" stroke-width="4" stroke-miterlimit="10" stroke-linecap="round" stroke-linejoin="round"/>
<path d="M103 141.625C124.332 141.625 141.625 124.332 141.625 103C141.625 81.668 124.332 64.375 103 64.375C81.668 64.375 64.375 81.668 64.375 103C64.375 124.332 81.668 141.625 103 141.625Z" stroke="#C08735" stroke-width="4" stroke-miterlimit="10" stroke-linecap="round" stroke-linejoin="round"/>
<path d="M173.812 57.9375C182.181 70.8125 186.688 86.2625 186.688 103C186.688 149.35 149.35 186.688 103 186.688C56.65 186.688 19.3125 149.35 19.3125 103C19.3125 56.65 56.65 19.3125 103 19.3125C119.737 19.3125 135.188 23.8188 148.062 32.1875" stroke="#C08735" stroke-width="4" stroke-miterlimit="10" stroke-linecap="round" stroke-linejoin="round"/>
</svg>
