<svg width="182" height="143" viewBox="0 0 182 143" fill="none" xmlns="http://www.w3.org/2000/svg">
<path d="M13.3465 100.131C5.78214 90.5387 2 85.7423 2 71.5C2 57.2577 5.78214 52.4616 13.3465 42.8689C28.4504 23.7149 53.7812 2 91 2C128.219 2 153.549 23.7149 168.653 42.8689C176.217 52.4616 180 57.2577 180 71.5C180 85.7423 176.217 90.5387 168.653 100.131C153.549 119.285 128.219 141 91 141C53.7812 141 28.4504 119.285 13.3465 100.131Z" stroke="#C08735" stroke-width="4"/>
<path d="M117.7 71.5C117.7 85.8943 105.746 97.5625 90.9998 97.5625C76.2534 97.5625 64.2998 85.8943 64.2998 71.5C64.2998 57.1057 76.2534 45.4375 90.9998 45.4375C105.746 45.4375 117.7 57.1057 117.7 71.5Z" stroke="#C08735" stroke-width="4"/>
</svg>
