<svg width="29" height="25" viewBox="0 0 29 25" fill="none" xmlns="http://www.w3.org/2000/svg">
<g id="Group 1000003096">
<path id="Vector" d="M4.63204 16.7593L4.6321 16.7594L13.3293 24.1655C13.5788 24.4048 13.914 24.5 14.2108 24.5C14.5083 24.5 14.8443 24.4044 15.0941 24.1638L23.7214 16.6913C23.7219 16.6909 23.7224 16.6904 23.7229 16.69C25.633 15.0623 26.9855 12.9329 27.5568 10.648L27.5569 10.648L27.5592 10.6375C27.736 9.86006 27.8083 9.21684 27.8265 8.73377C27.8356 8.4925 27.8313 8.28847 27.8191 8.1256C27.8099 8.00383 27.7949 7.88351 27.7698 7.78283C27.3864 3.60681 23.9873 0.5 19.9267 0.5C17.4571 0.5 15.3939 1.99149 14.0736 3.73553C12.7394 1.98767 10.6203 0.5 8.15445 0.5C4.06385 0.5 1.03157 3.56995 0.584663 7.84515C0.4827 8.22993 0.398427 9.25351 0.797848 10.7211C1.37003 13.0048 2.72255 15.1328 4.63204 16.7593ZM2.93095 8.16337L2.93096 8.1633L2.93846 8.12204V8.07697V8.03479C3.26583 4.92674 5.39692 2.86098 8.15445 2.86098C10.2563 2.86098 12.0917 4.62786 12.9362 6.50855L13.547 7.93366L14.0066 9.006L14.4661 7.93366L15.0769 6.50851C15.9196 4.63165 17.7539 2.86098 19.9267 2.86098C22.783 2.86098 25.1595 5.09547 25.3478 8.10816L25.3496 8.1375L25.3542 8.16273C25.3542 8.16222 25.3542 8.16242 25.3543 8.16334L25.3543 8.1634L25.3563 8.17732C25.3583 8.19229 25.3614 8.21853 25.3644 8.25577C25.3705 8.33022 25.3763 8.4488 25.3725 8.60946C25.3649 8.93051 25.3186 9.42116 25.1576 10.0651L25.1576 10.0651C24.7077 11.8648 23.6772 13.5464 22.1167 14.9123C22.1162 14.9128 22.1157 14.9132 22.1152 14.9137L14.1426 21.7753L6.17003 14.9137C6.16953 14.9132 6.16902 14.9128 6.16852 14.9124C4.60803 13.5464 3.57756 11.8648 3.12759 10.0651C2.96666 9.42113 2.92045 8.93048 2.91281 8.60943C2.90899 8.44876 2.91481 8.33019 2.92087 8.25573C2.9239 8.21849 2.92699 8.19226 2.92897 8.17729L2.93095 8.16337Z" fill="white" stroke="white"/>
</g>
</svg>
