<svg width="22" height="22" viewBox="0 0 22 22" fill="none" xmlns="http://www.w3.org/2000/svg">
<path d="M11 0V2.2C15.84 2.2 19.8 6.16 19.8 11C19.8 15.84 15.84 19.8 11 19.8C6.16 19.8 2.2 15.84 2.2 11C2.2 8.8 2.97 6.82 4.4 5.17V6.6H6.6V1.1H1.1V3.3H3.19C1.21 5.39 0 8.03 0 11C0 17.05 4.95 22 11 22C17.05 22 22 17.05 22 11C22 4.95 17.05 0 11 0Z" fill="white"/>
<path d="M6.59961 8.80039V16.5004H15.3996V8.80039H14.2996V7.70039C14.2996 5.83039 12.8696 4.40039 10.9996 4.40039C9.12961 4.40039 7.69961 5.83039 7.69961 7.70039V8.80039H6.59961ZM13.1996 14.3004H8.79961V11.0004H13.1996V14.3004ZM9.89961 7.70039C9.89961 7.04039 10.3396 6.60039 10.9996 6.60039C11.6596 6.60039 12.0996 7.04039 12.0996 7.70039V8.80039H9.89961V7.70039Z" fill="white"/>
</svg>
