<svg width="34" height="34" viewBox="0 0 34 34" fill="none" xmlns="http://www.w3.org/2000/svg">
<path d="M17.0002 31.1668C9.17591 31.1668 2.8335 24.8244 2.8335 17.0002C2.8335 9.17591 9.17591 2.8335 17.0002 2.8335C24.8244 2.8335 31.1668 9.17591 31.1668 17.0002C31.1668 24.8244 24.8244 31.1668 17.0002 31.1668ZM9.93525 25.8628C11.9406 27.4661 14.4327 28.3376 17.0002 28.3335C19.791 28.3335 22.3452 27.3248 24.3201 25.6532C23.3974 24.7065 22.2943 23.9544 21.076 23.4415C19.8576 22.9285 18.5488 22.6651 17.2268 22.6668C15.8563 22.6652 14.5005 22.9485 13.2452 23.4987C11.99 24.0489 10.8629 24.854 9.93525 25.8628V25.8628ZM7.95616 23.8285C9.14681 22.5649 10.5836 21.5586 12.178 20.8715C13.7724 20.1844 15.4907 19.8312 17.2268 19.8335C18.9008 19.8313 20.5588 20.1598 22.1055 20.8002C23.6522 21.4406 25.0571 22.3801 26.2397 23.565C27.4524 21.8581 28.1686 19.8486 28.3088 17.7594C28.449 15.6702 28.0076 13.583 27.0337 11.7294C26.0598 9.87578 24.5914 8.32821 22.7914 7.25838C20.9915 6.18854 18.9304 5.63827 16.8367 5.6686C14.743 5.69894 12.6987 6.3087 10.9305 7.43023C9.16228 8.55177 7.73935 10.1412 6.81956 12.0223C5.89976 13.9033 5.51906 16.0024 5.71969 18.0867C5.92032 20.1709 6.69444 22.1589 7.95616 23.8299V23.8285ZM17.0002 18.4168C15.4973 18.4168 14.0559 17.8198 12.9932 16.7571C11.9305 15.6944 11.3335 14.2531 11.3335 12.7502C11.3335 11.2473 11.9305 9.80593 12.9932 8.74322C14.0559 7.68052 15.4973 7.0835 17.0002 7.0835C18.5031 7.0835 19.9444 7.68052 21.0071 8.74322C22.0698 9.80593 22.6668 11.2473 22.6668 12.7502C22.6668 14.2531 22.0698 15.6944 21.0071 16.7571C19.9444 17.8198 18.5031 18.4168 17.0002 18.4168ZM17.0002 15.5835C17.7516 15.5835 18.4723 15.285 19.0036 14.7536C19.535 14.2223 19.8335 13.5016 19.8335 12.7502C19.8335 11.9987 19.535 11.278 19.0036 10.7467C18.4723 10.2153 17.7516 9.91683 17.0002 9.91683C16.2487 9.91683 15.528 10.2153 14.9967 10.7467C14.4653 11.278 14.1668 11.9987 14.1668 12.7502C14.1668 13.5016 14.4653 14.2223 14.9967 14.7536C15.528 15.285 16.2487 15.5835 17.0002 15.5835Z" fill="white"/>
</svg>
