<svg width="19" height="18" viewBox="0 0 19 18" fill="none" xmlns="http://www.w3.org/2000/svg">
<g id="Group 427321641">
<path id="Vector" d="M10.5766 4.68326V5.03899H10.9323H17.6911V16.8012H1.32753V4.24325L10.5766 1.02578V4.68326ZM9.5093 5.0392H9.86503V4.68347V2.49186V1.99144L9.39241 2.15588L2.27789 4.63127L2.03906 4.71437V4.96725V7.45553V7.81125H2.39479H4.88482V8.48541H2.39479H2.03906V8.84114V15.7709V16.1266H2.39479H5.24055H5.59628V15.7709V14.2578V14.0045L5.35691 13.9216C4.66141 13.6809 4.17308 13.046 4.17308 12.3061C4.17308 11.3636 4.96106 10.5829 5.95215 10.5829C6.9432 10.5829 7.73101 11.3636 7.73101 12.3061C7.73101 13.046 7.24268 13.6809 6.54719 13.9216L6.30781 14.0045V14.2578V15.7709V16.1266H6.66354H9.5093H9.86503V15.7709V8.84114V8.48541H9.5093H7.01927V7.81105H9.5093H9.86503V7.45532V6.06908V5.71335H9.5093H7.01927V5.0392H9.5093ZM16.6238 16.1266H16.9795V15.7709V6.06929V5.71356H16.6238H10.9323H10.5766V6.06929V15.7709V16.1266H10.9323H13.0667H13.4224V15.7709V14.0476H14.1337V15.7709V16.1266H14.4894H16.6238ZM4.88482 12.3061C4.88482 12.8936 5.37156 13.3547 5.95194 13.3547L6.66333 12.3061H7.01906C7.01906 12.306 7.01906 12.306 7.01906 12.3059C7.01895 11.7184 6.53232 11.2573 5.95194 11.2573C5.37149 11.2573 4.88482 11.7185 4.88482 12.3061Z" fill="#C08735" stroke="#C08735" stroke-width="0.711458"/>
</g>
</svg>
