<svg width="17" height="17" viewBox="0 0 17 17" fill="none" xmlns="http://www.w3.org/2000/svg">
<g id="Group 427321646">
<path id="Vector" d="M12.8607 5.69658C12.8607 9.52756 8.48239 12.866 8.48239 12.866C8.48239 12.866 4.10413 9.52756 4.10413 5.69658C4.10413 3.28854 6.07434 1.37305 8.48239 1.37305C10.8904 1.37305 12.8607 3.28854 12.8607 5.69658Z" stroke="#C08735" stroke-width="1.42292" stroke-miterlimit="10" stroke-linecap="round" stroke-linejoin="round"/>
<path id="Vector_2" d="M8.48238 6.84538C9.0869 6.84538 9.57695 6.35533 9.57695 5.75082C9.57695 5.1463 9.0869 4.65625 8.48238 4.65625C7.87787 4.65625 7.38782 5.1463 7.38782 5.75082C7.38782 6.35533 7.87787 6.84538 8.48238 6.84538Z" stroke="#C08735" stroke-width="1.42292" stroke-miterlimit="10" stroke-linecap="round" stroke-linejoin="round"/>
<path id="Vector_3" d="M10.2338 11.2246H13.408L15.5972 15.6029H1.3678L3.55693 11.2246H6.73117" stroke="#C08735" stroke-width="1.42292" stroke-miterlimit="10" stroke-linecap="round" stroke-linejoin="round"/>
</g>
</svg>
