<svg width="16" height="16" viewBox="0 0 16 16" fill="none" xmlns="http://www.w3.org/2000/svg">
<g id="Group 427321791">
<path id="Vector" d="M13.3583 0C12.2511 0 11.3247 0.788963 11.1117 1.83423H-0.000976562V15.6521H13.3583C14.6226 15.6521 15.6511 14.6235 15.6511 13.3593V2.29279C15.6511 1.02854 14.6226 0 13.3583 0ZM13.3583 0.917114C14.1169 0.917114 14.734 1.53424 14.734 2.29279V11.5263C14.3505 11.2378 13.8741 11.0665 13.3583 11.0665C12.8426 11.0665 12.3661 11.2378 11.9826 11.5263V2.29279C11.9826 1.53424 12.5998 0.917114 13.3583 0.917114ZM13.3583 14.735H0.916138V2.75134H11.0655V13.3593H11.9826C11.9826 12.6008 12.5998 11.9836 13.3583 11.9836C14.1169 11.9836 14.734 12.6008 14.734 13.3593C14.734 14.1178 14.1169 14.735 13.3583 14.735Z" fill="#C08735"/>
<path id="Vector_2" d="M2.81126 6.48045H1.83301V7.39757H4.64549V6.48045H3.72838V4.58508H5.56261V8.31468H7.39683V7.39757H6.47972V4.58508H9.23106V9.2318H5.56261V12.9003H3.72838V10.1489H4.64549V9.2318H1.83301V10.1489H2.81126V13.8174H10.1482V3.66797H2.81126V6.48045ZM6.47972 12.9003V10.1489H9.23106V11.066H8.31395V11.9831H9.23106V12.9003H6.47972Z" fill="#C08735"/>
</g>
</svg>
