<svg width="5" height="9" viewBox="0 0 5 9" fill="none" xmlns="http://www.w3.org/2000/svg">
<path id="Vector" d="M3.16603 4.72446L3.0574 4.84406L0.719288 7.41799C0.719281 7.418 0.719275 7.418 0.719269 7.41801C0.643417 7.50155 0.59012 7.60993 0.568393 7.73021C0.546661 7.85052 0.557937 7.97507 0.600238 8.08751C0.642516 8.19988 0.713115 8.29325 0.800622 8.35763C0.88785 8.42181 0.988382 8.45478 1.08956 8.45482L3.16603 4.72446ZM3.16603 4.72446L3.0574 4.60487M3.16603 4.72446L3.0574 4.60487M3.0574 4.60487L0.719269 2.03092L0.719289 2.0309M3.0574 4.60487L0.719289 2.0309M0.719289 2.0309L0.717177 2.02865M0.719289 2.0309L0.717177 2.02865M0.717177 2.02865C0.665489 1.9737 0.623417 1.90704 0.594191 1.83214C0.56496 1.75723 0.549386 1.67612 0.548735 1.59367C0.548085 1.51123 0.562376 1.42979 0.590446 1.35426C0.618513 1.27875 0.659575 1.2112 0.710469 1.15517C0.761331 1.09918 0.820856 1.05594 0.885058 1.02702C0.949198 0.998133 1.01722 0.983875 1.08535 0.984527C1.15347 0.985178 1.22132 1.00074 1.28508 1.03089C1.34891 1.06108 1.40784 1.10552 1.45789 1.16257L1.45787 1.16259M0.717177 2.02865L1.45787 1.16259M1.45787 1.16259L1.45994 1.16486M1.45787 1.16259L1.45994 1.16486M1.45994 1.16486L4.30004 4.29142C4.30005 4.29142 4.30005 4.29143 4.30006 4.29144C4.40194 4.40364 4.46174 4.55915 4.46174 4.72446C4.46174 4.88978 4.40194 5.04529 4.30006 5.15749C4.30005 5.1575 4.30005 5.15751 4.30004 5.15751L1.45994 8.28407L1.45992 8.28409M1.45994 1.16486L1.45992 8.28409M1.45992 8.28409C1.35855 8.39572 1.22493 8.45476 1.08965 8.45482L1.45992 8.28409Z" fill="#252525" stroke="#F6F4F1" stroke-width="0.355729"/>
</svg>
