<svg width="14" height="8" viewBox="0 0 14 8" fill="none" xmlns="http://www.w3.org/2000/svg">
<path id="Vector" d="M-5.88796e-08 1.34701C5.90804e-05 1.08387 0.082098 0.826656 0.235747 0.607884C0.389397 0.389111 0.607758 0.2186 0.863223 0.117909C1.11869 0.0172184 1.39979 -0.00913163 1.67099 0.0421885C1.94219 0.0935087 2.19131 0.220196 2.38687 0.406234L6.99141 4.78808L11.596 0.406234C11.7249 0.279143 11.8792 0.17777 12.0498 0.108032C12.2204 0.0382933 12.4039 0.0015855 12.5896 5.01782e-05C12.7752 -0.00148515 12.9594 0.0321837 13.1312 0.0990902C13.303 0.165997 13.4592 0.264802 13.5905 0.389741C13.7217 0.51468 13.8256 0.66325 13.8959 0.826782C13.9662 0.990315 14.0016 1.16553 13.9999 1.34222C13.9983 1.5189 13.9598 1.69351 13.8865 1.85586C13.8132 2.0182 13.7067 2.16503 13.5731 2.28778L7.97999 7.6104C7.71778 7.85986 7.36218 8 6.99141 8C6.62063 8 6.26504 7.85986 6.00282 7.6104L0.409696 2.28778C0.147448 2.03829 7.90807e-05 1.69989 -5.88796e-08 1.34701Z" fill="#C08735"/>
</svg>
