<svg width="6" height="11" viewBox="0 0 6 11" fill="none" xmlns="http://www.w3.org/2000/svg">
<path id="Vector" d="M1.01026 11C0.812902 11 0.619993 10.9355 0.455913 10.8148C0.291833 10.694 0.16395 10.5225 0.0884323 10.3218C0.0129142 10.121 -0.00684831 9.90017 0.0316418 9.68708C0.0701319 9.47399 0.165147 9.27825 0.304676 9.12461L3.59106 5.50675L0.304676 1.8889C0.209357 1.78755 0.133328 1.66632 0.0810238 1.53228C0.0287201 1.39824 0.00118918 1.25407 3.76799e-05 1.1082C-0.00111382 0.962319 0.0241378 0.817649 0.0743177 0.682629C0.124498 0.547609 0.198602 0.424942 0.292306 0.321787C0.38601 0.218632 0.497437 0.137054 0.620087 0.0818124C0.742736 0.0265713 0.874151 -0.00122616 1.00666 4.14818e-05C1.13918 0.00130912 1.27013 0.0316168 1.39189 0.0891959C1.51365 0.146775 1.62377 0.230473 1.71584 0.335405L5.7078 4.73C5.8949 4.93603 6 5.21543 6 5.50675C6 5.79807 5.8949 6.07747 5.7078 6.2835L1.71584 10.6781C1.52872 10.8841 1.27492 10.9999 1.01026 11Z" fill="#C08735"/>
</svg>
