<svg width="90" height="90" viewBox="0 0 90 90" fill="none" xmlns="http://www.w3.org/2000/svg">
<circle cx="45" cy="45" r="44.5" fill="white" stroke="#C08735"/>
<path d="M64.5514 37.4946L54.4504 27.4438C54.0139 27.0093 53.359 26.8804 52.7915 27.117C52.223 27.353 51.8529 27.9078 51.8529 28.523V33.0855C46.8454 33.4164 44.3448 35.4926 43.893 35.9062C37.6093 41.1362 38.3042 48.2676 38.5154 49.6864C38.5184 49.7068 38.5215 49.7275 38.525 49.7479L38.728 50.9154C38.8372 51.5428 39.324 52.0357 39.9494 52.1519C40.0427 52.1692 40.1362 52.1778 40.2286 52.1778C40.757 52.1778 41.256 51.9026 41.5341 51.4382L42.1427 50.4239C45.4696 44.891 49.5808 44.0001 51.8529 43.9925V48.726C51.8529 49.3427 52.225 49.8981 52.7955 50.1336C53.3661 50.3686 54.0214 50.2366 54.4559 49.8L64.5571 39.6479C65.15 39.0519 65.1474 38.0875 64.5514 37.4946ZM54.8992 45.0361V42.5839C54.8992 41.8361 54.3571 41.1991 53.619 41.0804C51.8616 40.7976 46.3306 40.457 41.554 46.0316C41.8621 43.7565 42.8814 40.6987 45.8702 38.224C45.9068 38.1935 45.9194 38.1833 45.953 38.1498C45.9753 38.129 48.2464 36.0864 53.2235 36.0864H53.3758C54.2169 36.0864 54.8986 35.4047 54.8986 34.5636V32.1865L61.3239 38.5789L54.8992 45.0361Z" fill="#C08735"/>
<path d="M59.0101 53.5484C58.169 53.5484 57.4873 54.2301 57.4873 55.0712V59.3859H28.0457V37.051H37.1827C38.0238 37.051 38.7055 36.3693 38.7055 35.5282C38.7055 34.6871 38.0238 34.0054 37.1827 34.0054H26.5228C25.6817 34.0053 25 34.687 25 35.5281V60.9088C25 61.7499 25.6817 62.4316 26.5228 62.4316H59.0101C59.8512 62.4316 60.5329 61.7499 60.5329 60.9088V55.0712C60.5329 54.2301 59.8512 53.5484 59.0101 53.5484Z" fill="#C08735"/>
</svg>
