<svg width="140" height="140" viewBox="0 0 140 140" fill="none" xmlns="http://www.w3.org/2000/svg">
<circle cx="70" cy="70" r="70" fill="white"/>
<path d="M106.35 102.725H96.9405V95.8608H97.249C97.8877 95.8608 98.4058 95.3426 98.4058 94.7039C98.4058 94.0652 97.8877 93.5471 97.249 93.5471H96.9405V92.6728C96.9405 92.0341 96.4223 91.516 95.7837 91.516C95.145 91.516 94.6268 92.0341 94.6268 92.6728V93.5471H82.0599V83.3668H94.6268V87.7116C94.6268 88.3503 95.145 88.8685 95.7837 88.8685C96.4223 88.8685 96.9405 88.3503 96.9405 87.7116V83.3668H97.249C97.8877 83.3668 98.4058 82.8486 98.4058 82.2099C98.4058 81.5713 97.8877 81.0531 97.249 81.0531H96.9405V64.5619C98.4372 64.242 99.5627 62.9092 99.5627 61.3191V58.5427C99.5627 57.7347 98.9053 57.0773 98.0974 57.0773H96.9405V52.7765C96.9405 52.1372 96.4223 51.6197 95.7837 51.6197H94.781V40.3301C94.781 39.6914 94.2629 39.1733 93.6242 39.1733H85.9137V38.4189C85.9137 36.242 84.1422 34.4706 81.9647 34.4706H79.4721C79.1533 34.4706 78.8936 34.2109 78.8936 33.8921C78.8936 32.2972 77.5964 31 76.0015 31H64.9729C63.378 31 62.0807 32.2972 62.0807 33.8921C62.0807 34.2109 61.821 34.4706 61.5023 34.4706H59.0097C56.8321 34.4706 55.0607 36.242 55.0607 38.4189V39.1733H47.3502C46.7115 39.1733 46.1933 39.6914 46.1933 40.3301V42.6456C46.1933 43.2843 46.7115 43.8025 47.3502 43.8025C47.9888 43.8025 48.507 43.2843 48.507 42.6456V41.487H92.4673V51.6197H48.507V47.5815C48.507 46.9429 47.9888 46.4247 47.3502 46.4247C46.7115 46.4247 46.1933 46.9429 46.1933 47.5815V51.6197H45.1907C44.552 51.6197 44.0339 52.1372 44.0339 52.7765V57.0773H42.877C42.069 57.0773 41.4117 57.7347 41.4117 58.5427V61.3191C41.4117 62.9092 42.5372 64.242 44.0339 64.5619V81.0531H43.7254C43.0867 81.0531 42.5685 81.5713 42.5685 82.2099C42.5685 82.8486 43.0867 83.3668 43.7254 83.3668H44.0339V93.5471H43.7254C43.0867 93.5471 42.5685 94.0652 42.5685 94.7039C42.5685 95.3426 43.0867 95.8608 43.7254 95.8608H44.0339V102.725H34.6248C32.6262 102.725 31 104.351 31 106.35C31 108.348 32.6262 109.974 34.6248 109.974H106.35C108.348 109.974 109.974 108.348 109.974 106.35C109.974 104.351 108.348 102.725 106.35 102.725ZM57.3744 38.4189C57.3744 37.5175 58.1077 36.7843 59.0097 36.7843H61.5023C63.0972 36.7843 64.3944 35.487 64.3944 33.8921C64.3944 33.5734 64.6541 33.3137 64.9729 33.3137H76.0015C76.3202 33.3137 76.5799 33.5734 76.5799 33.8921C76.5799 35.487 77.8772 36.7843 79.4721 36.7843H81.9647C82.8661 36.7843 83.6 37.5175 83.6 38.4189V39.1733H57.3744V38.4189ZM94.6268 95.8608V102.725H82.0599V95.8608H94.6268ZM79.7462 93.5471H79.3564C78.7177 93.5471 78.1995 94.0652 78.1995 94.7039C78.1995 95.3426 78.7177 95.8608 79.3564 95.8608H79.7462V102.725H61.2282V95.8608H61.618C62.2567 95.8608 62.7748 95.3426 62.7748 94.7039C62.7748 94.0652 62.2567 93.5471 61.618 93.5471H61.2282V83.3668H61.618C62.2567 83.3668 62.7748 82.8486 62.7748 82.2099C62.7748 81.5713 62.2567 81.0531 61.618 81.0531H61.3926C62.2115 76.789 65.9785 73.5564 70.4872 73.5564C74.9959 73.5564 78.7629 76.789 79.5817 81.0531H79.3564C78.7177 81.0531 78.1995 81.5713 78.1995 82.2099C78.1995 82.8486 78.7177 83.3668 79.3564 83.3668H79.7462V93.5471ZM46.3476 53.9334H94.6268V57.0773H46.3476V53.9334ZM46.3476 64.6354H75.3719C76.0105 64.6354 76.5287 64.1173 76.5287 63.4786C76.5287 62.8399 76.0105 62.3217 75.3719 62.3217H44.728C44.1748 62.3217 43.7254 61.8717 43.7254 61.3191V59.3911H97.249V61.3191C97.249 61.8717 96.7995 62.3217 96.2464 62.3217H80.4102C79.7715 62.3217 79.2533 62.8399 79.2533 63.4786C79.2533 64.1173 79.7715 64.6354 80.4102 64.6354H94.6268V81.0531H81.9292C81.085 75.5068 76.2757 71.2427 70.4872 71.2427C64.6987 71.2427 59.8893 75.5068 59.0452 81.0531H46.3476V64.6354ZM46.3476 83.3668H58.9145V93.5471H46.3476V83.3668ZM46.3476 95.8608H58.9145V102.725H46.3476V95.8608ZM106.35 107.661H34.6248C33.9018 107.661 33.3137 107.073 33.3137 106.35C33.3137 105.627 33.9018 105.038 34.6248 105.038H106.35C107.073 105.038 107.661 105.627 107.661 106.35C107.661 107.073 107.073 107.661 106.35 107.661Z" fill="black"/>
<path d="M83.135 47.7099C83.7736 47.7099 84.2918 47.1918 84.2918 46.5531C84.2918 45.9138 83.7736 45.3962 83.135 45.3962H57.8385C57.1998 45.3962 56.6816 45.9138 56.6816 46.5531C56.6816 47.1918 57.1998 47.7099 57.8385 47.7099H83.135Z" fill="black"/>
<path d="M52.7487 68.0957C50.6224 68.0957 48.8926 69.8256 48.8926 71.9519C48.8926 74.0782 50.6224 75.808 52.7487 75.808C54.8751 75.808 56.6049 74.0782 56.6049 71.9519C56.6049 69.8256 54.8751 68.0957 52.7487 68.0957ZM52.7487 73.4943C51.898 73.4943 51.2063 72.8026 51.2063 71.9519C51.2063 71.1011 51.898 70.4094 52.7487 70.4094C53.5995 70.4094 54.2912 71.1011 54.2912 71.9519C54.2912 72.8026 53.5995 73.4943 52.7487 73.4943Z" fill="black"/>
<path d="M88.2253 75.808C90.3516 75.808 92.0815 74.0782 92.0815 71.9519C92.0815 69.8256 90.3516 68.0957 88.2253 68.0957C86.099 68.0957 84.3691 69.8256 84.3691 71.9519C84.3691 74.0782 86.099 75.808 88.2253 75.808ZM88.2253 70.4094C89.0761 70.4094 89.7678 71.1011 89.7678 71.9519C89.7678 72.8026 89.0761 73.4943 88.2253 73.4943C87.3745 73.4943 86.6828 72.8026 86.6828 71.9519C86.6828 71.1011 87.3745 70.4094 88.2253 70.4094Z" fill="black"/>
</svg>
