<svg width="140" height="140" viewBox="0 0 140 140" fill="none" xmlns="http://www.w3.org/2000/svg">
<circle cx="70" cy="70" r="70" fill="white"/>
<path fill-rule="evenodd" clip-rule="evenodd" d="M61.3753 49.0524H55.3697C54.7781 49.0524 54.2988 48.5729 54.2988 47.9815V36.0588C54.2988 33.8127 56.1262 31.9854 58.3723 31.9854C60.6188 31.9854 62.4462 33.8127 62.4462 36.0588V47.9815C62.4462 48.5729 61.9669 49.0524 61.3753 49.0524ZM56.4407 46.9104H60.3043V36.0589C60.3043 34.9938 59.4378 34.1272 58.3727 34.1272C57.3074 34.1272 56.4407 34.9938 56.4407 36.0589L56.4407 46.9104Z" fill="#333333"/>
<path fill-rule="evenodd" clip-rule="evenodd" d="M58.3729 34.1271C57.7813 34.1271 57.3018 33.6478 57.3018 33.0562V29.0709C57.3018 28.4793 57.7813 28 58.3729 28C58.9643 28 59.4438 28.4793 59.4438 29.0709V33.0562C59.4438 33.6476 58.9643 34.1271 58.3729 34.1271Z" fill="#333333"/>
<path fill-rule="evenodd" clip-rule="evenodd" d="M61.3747 44.2098H55.369C54.7774 44.2098 54.2979 43.7305 54.2979 43.1389V39.2684C54.2979 38.6768 54.7774 38.1975 55.369 38.1975H61.3747C61.9663 38.1975 62.4456 38.6768 62.4456 39.2684V43.1389C62.4456 43.7305 61.9663 44.2098 61.3747 44.2098ZM56.4399 42.068H60.3038V40.3393H56.4399V42.068Z" fill="#333333"/>
<path fill-rule="evenodd" clip-rule="evenodd" d="M85.1858 49.0524H79.1803C78.5889 49.0524 78.1094 48.5729 78.1094 47.9815V36.0588C78.1094 33.8127 79.9367 31.9854 82.1827 31.9854C84.4294 31.9854 86.2569 33.8127 86.2569 36.0588V47.9815C86.2567 48.5729 85.777 49.0524 85.1858 49.0524ZM80.2512 46.9104H84.1145V36.0589C84.1145 34.9938 83.2479 34.1272 82.1829 34.1272C81.1176 34.1272 80.251 34.9938 80.251 36.0589L80.2512 46.9104Z" fill="#333333"/>
<path fill-rule="evenodd" clip-rule="evenodd" d="M82.1822 34.1271C81.5906 34.1271 81.1113 33.6478 81.1113 33.0562V29.0709C81.1113 28.4793 81.5906 28 82.1822 28C82.7738 28 83.2532 28.4793 83.2532 29.0709V33.0562C83.2532 33.6476 82.7738 34.1271 82.1822 34.1271Z" fill="#333333"/>
<path fill-rule="evenodd" clip-rule="evenodd" d="M85.1858 44.2098H79.1803C78.5887 44.2098 78.1094 43.7305 78.1094 43.1389V39.2684C78.1094 38.6768 78.5887 38.1975 79.1803 38.1975H85.1858C85.7774 38.1975 86.2569 38.6768 86.2569 39.2684V43.1389C86.2569 43.7305 85.7772 44.2098 85.1858 44.2098ZM80.251 42.068H84.1147V40.3393H80.251V42.068Z" fill="#333333"/>
<path fill-rule="evenodd" clip-rule="evenodd" d="M79.18 44.7184H61.3756C60.784 44.7184 60.3047 44.2391 60.3047 43.6475V37.3907C60.3047 36.7993 60.784 36.3198 61.3756 36.3198H79.18C79.7716 36.3198 80.251 36.7993 80.251 37.3907V43.6475C80.251 44.2391 79.7716 44.7184 79.18 44.7184ZM62.4467 42.5766H78.1093V38.4619H62.4467V42.5766Z" fill="#333333"/>
<path fill-rule="evenodd" clip-rule="evenodd" d="M85.1846 107.012H55.369C54.7774 107.012 54.2979 106.533 54.2979 105.941V47.9815C54.2979 47.3899 54.7774 46.9104 55.369 46.9104H85.1844C85.7758 46.9104 86.2553 47.3899 86.2553 47.9815V105.941C86.2555 106.533 85.7758 107.012 85.1846 107.012ZM56.4399 104.87H84.1135V49.0524H56.4399V104.87Z" fill="#333333"/>
<path fill-rule="evenodd" clip-rule="evenodd" d="M55.3699 107.012H38.9295C38.3379 107.012 37.8584 106.533 37.8584 105.941V72.224C37.8584 71.6326 38.3379 71.1531 38.9295 71.1531H55.3699C55.9613 71.1531 56.4408 71.6326 56.4408 72.224V105.941C56.441 106.533 55.9613 107.012 55.3699 107.012ZM40.0002 104.87H54.2988V73.2951H40.0002V104.87Z" fill="#333333"/>
<path fill-rule="evenodd" clip-rule="evenodd" d="M55.3696 73.2956H34.4703C33.8787 73.2956 33.3994 72.816 33.3994 72.2244V64.7008C33.3994 64.1094 33.8787 63.6299 34.4703 63.6299H55.3696C55.961 63.6299 56.4405 64.1094 56.4405 64.7008V72.2244C56.4405 72.816 55.961 73.2956 55.3696 73.2956ZM35.5412 71.1535H54.2984V65.7719H35.5412V71.1535Z" fill="#333333"/>
<path fill-rule="evenodd" clip-rule="evenodd" d="M101.626 107.012H85.1854C84.5938 107.012 84.1143 106.533 84.1143 105.941V72.224C84.1143 71.6326 84.5938 71.1531 85.1854 71.1531H101.626C102.217 71.1531 102.697 71.6326 102.697 72.224V105.941C102.697 106.533 102.217 107.012 101.626 107.012ZM86.2563 104.87H100.555V73.2951H86.2563V104.87Z" fill="#333333"/>
<path fill-rule="evenodd" clip-rule="evenodd" d="M106.085 73.2956H85.1854C84.5938 73.2956 84.1143 72.816 84.1143 72.2244V64.7008C84.1143 64.1094 84.5938 63.6299 85.1854 63.6299H106.085C106.676 63.6299 107.156 64.1094 107.156 64.7008V72.2244C107.156 72.816 106.676 73.2956 106.085 73.2956ZM86.2563 71.1535H105.014V65.7719H86.2563V71.1535Z" fill="#333333"/>
<path fill-rule="evenodd" clip-rule="evenodd" d="M55.3686 65.7715H41.0377C40.4461 65.7715 39.9668 65.292 39.9668 64.7004V52.7701C39.9668 52.1787 40.4461 51.6992 41.0377 51.6992H55.3686C55.9602 51.6992 56.4397 52.1787 56.4397 52.7701V64.7004C56.4397 65.2918 55.96 65.7715 55.3686 65.7715ZM42.1086 63.6295H54.2977V53.8412H42.1086V63.6295Z" fill="#333333"/>
<path fill-rule="evenodd" clip-rule="evenodd" d="M99.5165 65.7715H85.1854C84.5938 65.7715 84.1143 65.292 84.1143 64.7004V52.7701C84.1143 52.1787 84.5938 51.6992 85.1854 51.6992H99.5165C100.108 51.6992 100.587 52.1787 100.587 52.7701V64.7004C100.587 65.2918 100.108 65.7715 99.5165 65.7715ZM86.2563 63.6295H98.4453V53.8412H86.2563V63.6295Z" fill="#333333"/>
<path fill-rule="evenodd" clip-rule="evenodd" d="M77.6143 107.012H62.9391C62.3475 107.012 61.8682 106.533 61.8682 105.941V90.9345C61.8682 86.2982 65.64 82.5264 70.2765 82.5264C74.9133 82.5264 78.6853 86.2984 78.6853 90.9345V105.941C78.6851 106.532 78.2059 107.012 77.6143 107.012ZM64.01 104.87H76.5434V90.9344C76.5434 87.4792 73.7321 84.6683 70.2769 84.6683C66.8211 84.6683 64.01 87.4794 64.01 90.9344V104.87Z" fill="#333333"/>
<path fill-rule="evenodd" clip-rule="evenodd" d="M85.1846 70.7792H55.369C54.7774 70.7792 54.2979 70.2997 54.2979 69.7081V61.8712C54.2979 61.2796 54.7774 60.8003 55.369 60.8003H85.1844C85.7758 60.8003 86.2553 61.2796 86.2553 61.8712V69.7081C86.2555 70.2997 85.7758 70.7792 85.1846 70.7792ZM56.4399 68.637H84.1135V62.9419H56.4399V68.637Z" fill="#333333"/>
<path fill-rule="evenodd" clip-rule="evenodd" d="M51.266 107.012H43.0328C42.4412 107.012 41.9619 106.533 41.9619 105.941V87.7136C41.9619 84.8535 44.289 82.5264 47.1493 82.5264C50.0096 82.5264 52.3369 84.8535 52.3369 87.7136V105.941C52.3369 106.532 51.8574 107.012 51.266 107.012ZM44.1037 104.87H50.1948V87.7136C50.1948 86.0345 48.8287 84.6684 47.1493 84.6684C45.47 84.6684 44.1037 86.0345 44.1037 87.7136L44.1037 104.87Z" fill="#333333"/>
<path fill-rule="evenodd" clip-rule="evenodd" d="M97.5226 107.012H89.2897C88.6981 107.012 88.2188 106.533 88.2188 105.941V87.7136C88.2188 84.8535 90.5456 82.5264 93.406 82.5264C96.2663 82.5264 98.5934 84.8535 98.5934 87.7136V105.941C98.5935 106.532 98.1142 107.012 97.5226 107.012ZM90.3608 104.87H96.4519V87.7136C96.4519 86.0345 95.0856 84.6684 93.4063 84.6684C91.7271 84.6684 90.3609 86.0345 90.3609 87.7136L90.3608 104.87Z" fill="#333333"/>
<path fill-rule="evenodd" clip-rule="evenodd" d="M47.1492 84.6686C46.5576 84.6686 46.0781 84.1891 46.0781 83.5975V77.6317C46.0781 77.0401 46.5576 76.5605 47.1492 76.5605C47.7406 76.5605 48.2201 77.0401 48.2201 77.6317V83.5975C48.2201 84.1889 47.7406 84.6686 47.1492 84.6686Z" fill="#333333"/>
<path fill-rule="evenodd" clip-rule="evenodd" d="M93.4059 84.6686C92.8143 84.6686 92.335 84.1891 92.335 83.5975V77.6317C92.335 77.0401 92.8143 76.5605 93.4059 76.5605C93.9975 76.5605 94.4768 77.0401 94.4768 77.6317V83.5975C94.4768 84.1889 93.9973 84.6686 93.4059 84.6686Z" fill="#333333"/>
<path fill-rule="evenodd" clip-rule="evenodd" d="M62.9391 99.5095H55.3688C54.7774 99.5095 54.2979 99.0299 54.2979 98.4383C54.2979 97.8469 54.7774 97.3674 55.3688 97.3674H62.9391C63.5307 97.3674 64.01 97.8469 64.01 98.4383C64.01 99.0299 63.5307 99.5095 62.9391 99.5095Z" fill="#333333"/>
<path fill-rule="evenodd" clip-rule="evenodd" d="M85.186 99.5095H77.6158C77.0242 99.5095 76.5449 99.0299 76.5449 98.4383C76.5449 97.8469 77.0242 97.3674 77.6158 97.3674H85.186C85.7776 97.3674 86.2571 97.8469 86.2571 98.4383C86.2571 99.0299 85.7774 99.5095 85.186 99.5095Z" fill="#333333"/>
<path fill-rule="evenodd" clip-rule="evenodd" d="M109.485 112.359H31.0711C30.4795 112.359 30 111.88 30 111.288V105.941C30 105.35 30.4795 104.87 31.0711 104.87L109.485 104.87C110.076 104.87 110.556 105.35 110.556 105.941V111.288C110.556 111.88 110.076 112.359 109.485 112.359ZM32.1422 110.217H108.414V107.012H32.1422V110.217Z" fill="#333333"/>
</svg>
